<?xml version="1.0" encoding="UTF-8"?>
<svg width="15px" height="16px" viewBox="0 0 15 16" version="1.1" xmlns="http://www.w3.org/2000/svg" xmlns:xlink="http://www.w3.org/1999/xlink">
    <!-- Generator: Sketch 52.3 (67297) - http://www.bohemiancoding.com/sketch -->
    <title>Path</title>
    <desc>Created with Sketch.</desc>
    <g id="Page-1" stroke="none" stroke-width="1" fill="none" fill-rule="evenodd">
        <g id="mobile_nav-copy-3" transform="translate(-24.000000, -24.000000)" fill="#9C1E14">
            <path d="M38.4425876,36.5407849 C36.9788721,35.0805662 34.9556474,33.0818201 33.018847,31.2784026 C34.5729832,29.445511 36.3614139,27.8189383 38.1018866,26.0729704 C39.2868468,24.8820155 37.6263039,23.2194743 36.4398451,24.4104293 C34.6758929,26.1838731 33.034833,28.0127682 31.4527213,29.8701384 C29.773195,28.371953 28.0611973,26.9417081 26.2547824,25.5804026 C25.0103744,24.6437246 23.1619964,26.4831105 24.4208917,27.4307789 C26.2972452,28.8450379 28.0921701,30.3557123 29.8321433,31.9163428 C28.281504,33.8866139 26.8392696,35.9463065 25.5364128,38.1633611 C24.6886567,39.6040968 26.846763,40.7880579 27.6955182,39.341827 C28.8964644,37.3006181 29.9450442,35.1210307 31.3687949,33.2986299 C33.2401528,35.046596 35.1399857,36.9219504 36.601703,38.3826686 C37.331063,39.1135273 39.1734463,37.2706444 38.4425876,36.5407849 Z" id="Path"></path>
        </g>
    </g>
</svg>