<?xml version="1.0" encoding="UTF-8"?>
<svg width="24px" height="16px" viewBox="0 0 24 16" version="1.1" xmlns="http://www.w3.org/2000/svg" xmlns:xlink="http://www.w3.org/1999/xlink">
    <!-- Generator: Sketch 52.3 (67297) - http://www.bohemiancoding.com/sketch -->
    <title>Group</title>
    <desc>Created with Sketch.</desc>
    <g id="Page-1" stroke="none" stroke-width="1" fill="none" fill-rule="evenodd">
        <g id="Mobile_Landing_v1" transform="translate(-115.000000, -3541.000000)" fill="#FFFFFF">
            <g id="Group-9" transform="translate(115.000000, 3540.000000)">
                <g id="Group" transform="translate(0.000000, 1.000000)">
                    <path d="M0.340909091,0.881355932 C0.274636364,5.60433898 0.272727273,10.3275932 0.272727273,15.0508475 C0.272727273,15.5755932 1.09090909,15.5755932 1.09090909,15.0508475 C1.09090909,10.3275932 1.09281818,5.60433898 1.15909091,0.881355932 C1.16645455,0.356338983 0.348272727,0.357152542 0.340909091,0.881355932 Z" id="Path"></path>
                    <path d="M0.75,1.28813559 C4.48936364,1.73722034 8.19381818,0.980067797 11.9285455,0.860745763 C15.7401818,0.738983051 19.5632727,0.938033898 23.3719091,1.06630508 C23.8999091,1.0839322 23.898,0.270372881 23.3719091,0.252745763 C19.5580909,0.12420339 15.7450909,-0.0292881356 11.9285455,0.0471864407 C8.18536364,0.122305085 4.49972727,0.924745763 0.75,0.474576271 C0.226909091,0.411932203 0.232909091,1.2260339 0.75,1.28813559 Z" id="Path"></path>
                    <path d="M0.613636364,15.6610169 C8.10872727,15.3456271 15.6040909,15.847322 23.1010909,15.7160678 C23.628,15.7068475 23.6290909,14.8932881 23.1010909,14.9025085 C15.6040909,15.0337627 8.10872727,14.5320678 0.613636364,14.8474576 C0.0880909091,14.8696949 0.0859090909,15.6832542 0.613636364,15.6610169 Z" id="Path"></path>
                    <path d="M22.9090909,1.01694915 C22.9088182,3.6520678 22.8976364,6.28528814 22.7217273,8.91579661 C22.5804545,11.0288814 22.0006364,13.1886102 22.4465455,15.2946441 C22.5550909,15.808 23.3438182,15.5899661 23.2355455,15.0782373 C22.7795455,12.923661 23.43,10.5616271 23.5750909,8.39213559 C23.739,5.93844068 23.727,3.47444068 23.7272727,1.01694915 C23.7272727,0.49220339 22.9090909,0.49220339 22.9090909,1.01694915 Z" id="Path"></path>
                    <path d="M1.07427273,1.44027119 C4.70645455,4.47213559 7.88536364,7.98861017 10.7601818,11.7307119 C11.076,12.1418305 11.7872727,11.7372203 11.4668182,11.3201356 C8.54836364,7.52108475 5.34109091,3.94359322 1.653,0.864813559 C1.25154545,0.530169492 0.669818182,1.10237288 1.07427273,1.44027119 Z" id="Path"></path>
                    <path d="M11.6031818,11.8663051 C11.928,11.1625763 12.8323636,10.599322 13.3797273,10.0615593 C14.3986364,9.06033898 15.4459091,8.09030508 16.4869091,7.11132203 C18.6856364,5.04352542 20.949,2.98386441 23.0618182,0.830101695 C23.4302727,0.454508475 22.8520909,-0.121220339 22.4833636,0.254915254 C20.2516364,2.52989831 17.859,4.70128814 15.5364545,6.88569492 C14.5579091,7.80583051 13.5793636,8.72162712 12.6215455,9.66264407 C12.0662727,10.2082712 11.2303636,10.7322034 10.8962727,11.456 C10.6783636,11.9289492 11.3833636,12.3427797 11.6031818,11.8663051 Z" id="Path"></path>
                    <path d="M1.70645455,15.2664407 C4.44518182,13.4258983 6.74372727,11.0462373 9.28936364,8.96542373 C9.69736364,8.63213559 9.11481818,8.0599322 8.71090909,8.39023729 C6.22009091,10.4260339 3.97309091,12.7631186 1.29381818,14.5637966 C0.859090909,14.8558644 1.26790909,15.5612203 1.70645455,15.2664407 Z" id="Path"></path>
                    <path d="M14.3697273,8.49111864 C15.5312727,9.41071186 16.8310909,10.0829831 17.9419091,11.0915254 C19.3819091,12.3989153 20.7703636,13.8296949 22.0742727,15.2707797 C22.4277273,15.6615593 23.0045455,15.0842034 22.6527273,14.6955932 C21.435,13.3496949 20.1169091,12.0957288 18.8323636,10.8138305 C17.6528182,9.63688136 16.2327273,8.93288136 14.9481818,7.9159322 C14.5401818,7.59267797 13.9570909,8.16433898 14.3697273,8.49111864 Z" id="Path"></path>
                </g>
            </g>
        </g>
    </g>
</svg>