<?xml version="1.0" encoding="UTF-8"?>
<svg width="44px" height="44px" viewBox="0 0 44 44" version="1.1" xmlns="http://www.w3.org/2000/svg" xmlns:xlink="http://www.w3.org/1999/xlink">
    <!-- Generator: Sketch 52.3 (67297) - http://www.bohemiancoding.com/sketch -->
    <title>Group 22</title>
    <desc>Created with Sketch.</desc>
    <g id="Page-1" stroke="none" stroke-width="1" fill="none" fill-rule="evenodd">
        <g id="Mobile_Landing_v1" transform="translate(-113.000000, -3605.000000)">
            <rect fill="#FFFFFF" x="0" y="0" width="375" height="3719"></rect>
            <rect id="Rectangle-Copy-9" fill="#EFF1F3" fill-rule="nonzero" x="-1" y="3369" width="375" height="350"></rect>
            <g id="Group-23" transform="translate(113.000000, 3605.000000)">
                <rect id="Rectangle" fill-rule="nonzero" x="0" y="0" width="44" height="44"></rect>
                <g id="Group-22" transform="translate(12.000000, 12.000000)" fill="#26282A">
                    <path d="M6.15334307,1.88344526 C3.5229781,1.88344526 1.38312409,4.02329927 1.38312409,6.65348905 L1.38312409,13.3684088 C1.38312409,15.9987737 3.5229781,18.1386277 6.15334307,18.1386277 L13.7732555,18.1386277 C16.4034453,18.1386277 18.5432993,15.9987737 18.5432993,13.3684088 L18.5432993,6.65348905 C18.5432993,4.02329927 16.4034453,1.88344526 13.7732555,1.88344526 L6.15334307,1.88344526 Z M13.7732555,19.5018978 L6.15334307,19.5018978 C2.77162044,19.5018978 0.0200291971,16.7503066 0.0200291971,13.3684088 L0.0200291971,6.65348905 C0.0200291971,3.27176642 2.77162044,0.520525547 6.15334307,0.520525547 L13.7732555,0.520525547 C17.1548029,0.520525547 19.9063942,3.27176642 19.9063942,6.65348905 L19.9063942,13.3684088 C19.9063942,16.7503066 17.1548029,19.5018978 13.7732555,19.5018978 Z" id="Fill-839"></path>
                    <path d="M9.96321168,5.91439416 C7.70440876,5.91439416 5.86656934,7.75205839 5.86656934,10.0110365 C5.86656934,12.2698394 7.70440876,14.1075036 9.96321168,14.1075036 C12.2220146,14.1075036 14.0596788,12.2698394 14.0596788,10.0110365 C14.0596788,7.75205839 12.2220146,5.91439416 9.96321168,5.91439416 Z M9.96321168,15.4707737 C6.95270073,15.4707737 4.50382482,13.0215474 4.50382482,10.0110365 C4.50382482,7.00035036 6.95270073,4.55164964 9.96321168,4.55164964 C12.9737226,4.55164964 15.4227737,7.00035036 15.4227737,10.0110365 C15.4227737,13.0215474 12.9737226,15.4707737 9.96321168,15.4707737 Z" id="Fill-840"></path>
                    <path d="M16.4719416,4.71947445 C16.4719416,5.34487591 15.9649635,5.8520292 15.3393869,5.8520292 C14.713635,5.8520292 14.2063066,5.34487591 14.2063066,4.71947445 C14.2063066,4.09372263 14.713635,3.58656934 15.3393869,3.58656934 C15.9649635,3.58656934 16.4719416,4.09372263 16.4719416,4.71947445" id="Fill-841"></path>
                </g>
            </g>
        </g>
    </g>
</svg>