<?xml version="1.0" encoding="UTF-8"?>
<svg width="22px" height="18px" viewBox="0 0 22 18" version="1.1" xmlns="http://www.w3.org/2000/svg" xmlns:xlink="http://www.w3.org/1999/xlink">
    <!-- Generator: Sketch 52.3 (67297) - http://www.bohemiancoding.com/sketch -->
    <title>noun_menu_83768</title>
    <desc>Created with Sketch.</desc>
    <g id="Page-1" stroke="none" stroke-width="1" fill="none" fill-rule="evenodd">
        <g id="Mobile_Landing_v1" transform="translate(-23.000000, -23.000000)" fill="#9C1E14" stroke="#9C1E14">
            <g id="noun_menu_83768" transform="translate(24.000000, 24.000000)">
                <g id="Group">
                    <path d="M0.96,2.23386667 C6.9347541,2.18693333 12.8688525,1.54693333 18.842623,1.5 C20.035082,1.49093333 20.0363934,-0.00906666667 18.842623,0 C12.8681967,0.0469333333 6.93409836,0.686933333 0.96,0.7336 C-0.232131148,0.7432 -0.232786885,2.2432 0.96,2.23386667 Z" id="Path"></path>
                    <path d="M18.8429508,13.7656 C12.8688525,13.8130667 6.9347541,14.4530667 0.960327869,14.5 C-0.232131148,14.5090667 -0.232786885,16.0090667 0.960327869,16 C6.93508197,15.9530667 12.8691803,15.3130667 18.8429508,15.2656 C20.035082,15.2565333 20.0363934,13.7565333 18.8429508,13.7656 Z" id="Path"></path>
                    <path d="M0.96,7.34213333 C-0.232459016,7.29306667 -0.226557377,8.7936 0.96,8.84213333 C6.73737705,9.07706667 12.4734426,7.43973333 18.224918,8.0808 C19.3911475,8.21066667 19.8940984,6.7656 18.7163934,6.63413333 C12.7701639,5.97146667 6.92131148,7.584 0.96,7.34213333 Z" id="Path"></path>
                </g>
            </g>
        </g>
    </g>
</svg>