<?xml version="1.0" encoding="UTF-8"?>
<svg width="44px" height="44px" viewBox="0 0 44 44" version="1.1" xmlns="http://www.w3.org/2000/svg" xmlns:xlink="http://www.w3.org/1999/xlink">
    <!-- Generator: Sketch 52.3 (67297) - http://www.bohemiancoding.com/sketch -->
    <title>Group 18</title>
    <desc>Created with Sketch.</desc>
    <g id="Page-1" stroke="none" stroke-width="1" fill="none" fill-rule="evenodd">
        <g id="Mobile_Landing_v1" transform="translate(-217.000000, -3605.000000)">
            <rect fill="#FFFFFF" x="0" y="0" width="375" height="3719"></rect>
            <rect id="Rectangle-Copy-9" fill="#EFF1F3" fill-rule="nonzero" x="-1" y="3369" width="375" height="350"></rect>
            <g id="Group-23" transform="translate(113.000000, 3605.000000)">
                <rect id="Rectangle-Copy-30" fill-rule="nonzero" x="104" y="0" width="44" height="44"></rect>
                <g id="Group-18" transform="translate(118.000000, 15.000000)" fill="#26282A">
                    <g id="Group-17">
                        <path d="M15.6778978,2.14727007 C15.3145693,2.24764964 15.0286715,2.23188321 15.0286715,2.23188321 L15.0404088,2.1630365 C15.3783358,1.89237956 16.2311241,1.0620146 16.3435912,0.673635036 C16.3926423,0.505810219 16.3348321,0.448 16.3344818,0.442218978 L15.2453723,0.904875912 L14.334073,1.3160292 C13.7049927,0.650160584 12.7527007,0.225868613 11.6881168,0.225868613 C9.79369343,0.225868613 8.25751825,1.56759124 8.25751825,3.22376642 C8.25751825,3.52665693 8.30271533,4.0790073 8.39783942,4.35474453 C8.39783942,4.44163504 8.40134307,4.26767883 8.39783942,4.35474453 C7.17786861,4.32128467 5.61418978,3.82113869 4.22166423,3.11532847 C1.47480292,1.72385401 1.30294891,0.760525547 1.30294891,0.760525547 C0.871474453,1.21845255 0.648992701,2.73518248 1.08624818,3.92449635 C1.36618978,4.6860146 2.32846715,5.36922628 2.32846715,5.36922628 C2.32846715,5.36922628 1.89821898,5.37710949 1.44747445,5.22487591 C0.996554745,5.07246715 0.826277372,4.92163504 0.826277372,4.92163504 C0.558248175,5.57506569 1.09605839,6.74248175 2.02557664,7.5800292 C2.56724088,8.06843796 3.55667153,8.37465693 3.55667153,8.37465693 L2.01086131,8.41810219 C1.9239708,9.92064234 5.16186861,10.8131971 5.16186861,10.8131971 C4.21272993,11.5430073 3.11170803,11.9874453 1.93150365,11.9874453 C1.31976642,11.9874453 0.72870073,11.896 0.167591241,11.7285255 C1.72689051,13.0133139 3.7309781,13.9006131 5.91024818,13.7860438 C11.6916204,13.4821022 14.9552701,8.51252555 15.1104818,3.63176642 L15.1178394,3.64175182 C15.1178394,3.64175182 15.3888467,3.50668613 15.968,2.92735766 C16.5469781,2.34820438 16.9071533,1.67059854 16.9071533,1.67059854 C16.9071533,1.67059854 16.0414015,2.04706569 15.6778978,2.14727007" id="Fill-834"></path>
                    </g>
                </g>
            </g>
        </g>
    </g>
</svg>