<?xml version="1.0" encoding="UTF-8"?>
<svg width="51px" height="52px" viewBox="0 0 51 52" version="1.1" xmlns="http://www.w3.org/2000/svg" xmlns:xlink="http://www.w3.org/1999/xlink">
    <!-- Generator: Sketch 52.3 (67297) - http://www.bohemiancoding.com/sketch -->
    <title>Group 2</title>
    <desc>Created with Sketch.</desc>
    <g id="Page-1" stroke="none" stroke-width="1" fill="none" fill-rule="evenodd">
        <g id="Desktop_Books_Desc_v1" transform="translate(-833.000000, -2040.000000)" fill-rule="nonzero" stroke-width="2">
            <g id="Group-2" transform="translate(834.000000, 2042.000000)">
                <path d="M1.06829576,4.03275106 C2.56776541,2.51022296 13.0289934,0.450591785 20.6588744,0.450591785 C28.2887554,0.450591785 45.9102207,-1.07193631 46.6241255,1.48040737 C47.3380302,4.03275106 47.892048,19.649367 47.6150391,27.1098008 C47.3380302,34.5702346 48.6059528,44.7326621 47.6150391,45.7624777 C46.6241255,46.7922932 26.6394159,46.7922932 21.7017995,46.7922932 C16.7641831,46.7922932 2.41558388,49.5096334 1.06829576,46.7922932 C-0.278992359,44.074953 -0.431173888,5.55527915 1.06829576,4.03275106 Z" id="Path-3-Copy-2" stroke="#9C1E14" fill="#9C1E14"></path>
                <path d="M17,20 C19.1594197,21.9867907 20.6060484,23.3717944 21.3398862,24.1550109 C23.2899724,26.2363154 24.1698095,27.6411532 24.6411532,27.6411532 C25.747255,27.6411532 26.9816794,24.8175529 28.6438061,23.1554262 C29.7518906,22.0473417 30.964724,20.995533 32.2823065,20" id="Path-2-Copy-2" stroke="#FFFFFF" stroke-linecap="round" transform="translate(24.641153, 23.820577) scale(1, -1) translate(-24.641153, -23.820577) "></path>
            </g>
        </g>
    </g>
</svg>