<svg xmlns="http://www.w3.org/2000/svg" width="24" height="16" viewBox="0 0 24 16">
    <g fill="#FFF" fill-rule="evenodd">
        <path d="M.34.881C.276 5.604.274 10.328.274 15.051c0 .525.818.525.818 0 0-4.723.002-9.447.068-14.17.007-.525-.81-.524-.818 0z"/>
        <path d="M.75 1.288c3.74.45 7.444-.308 11.179-.427 3.811-.122 7.634.077 11.443.205.528.018.526-.796 0-.813C19.558.124 15.745-.03 11.929.047 8.185.122 4.499.925.75.475c-.523-.063-.517.751 0 .813zM.614 15.661c7.495-.315 14.99.186 22.487.055.527-.01.528-.823 0-.813-7.497.13-14.992-.37-22.487-.056-.526.023-.528.836 0 .814z"/>
        <path d="M22.91 1.017c-.001 2.635-.012 5.268-.188 7.899-.142 2.113-.721 4.273-.275 6.379.108.513.897.295.789-.217-.456-2.154.194-4.516.34-6.686.163-2.454.151-4.918.151-7.375 0-.525-.818-.525-.818 0zM1.074 1.44C4.706 4.472 7.885 7.99 10.76 11.73c.316.412 1.027.007.707-.41C8.548 7.521 5.34 3.944 1.653.865c-.401-.335-.983.237-.579.575z"/>
        <path d="M11.603 11.866c.325-.703 1.23-1.267 1.777-1.804 1.019-1.002 2.066-1.972 3.107-2.95 2.199-2.068 4.462-4.128 6.575-6.282.368-.375-.21-.951-.579-.575-2.231 2.275-4.624 4.446-6.947 6.63-.978.92-1.957 1.837-2.914 2.778-.556.545-1.392 1.07-1.726 1.793-.218.473.487.887.707.41zM1.706 15.266c2.74-1.84 5.038-4.22 7.583-6.3.408-.334-.174-.906-.578-.576-2.49 2.036-4.738 4.373-7.417 6.174-.435.292-.026.997.412.702z"/>
        <path d="M14.37 8.491c1.161.92 2.461 1.592 3.572 2.6 1.44 1.308 2.828 2.739 4.132 4.18.354.39.93-.187.579-.575-1.218-1.346-2.536-2.6-3.82-3.882-1.18-1.177-2.6-1.881-3.885-2.898-.408-.323-.99.248-.578.575z"/>
    </g>
</svg>
