<?xml version="1.0" standalone="no"?>
<!DOCTYPE svg PUBLIC "-//W3C//DTD SVG 20010904//EN"
 "http://www.w3.org/TR/2001/REC-SVG-20010904/DTD/svg10.dtd">
<svg version="1.0" xmlns="http://www.w3.org/2000/svg"
 width="147.000000pt" height="122.000000pt" viewBox="0 0 147.000000 122.000000"
 preserveAspectRatio="xMidYMid meet">
<metadata>
Created by potrace 1.10, written by Peter Selinger 2001-2011
</metadata>
<g transform="translate(0.000000,122.000000) scale(0.050000,-0.050000)"
fill="#000000" stroke="none">
<path d="M2070 2160 c-462 -152 -1105 -363 -1430 -469 -324 -105 -603 -201
-620 -212 -50 -34 270 -304 545 -460 l125 -71 54 -253 c71 -336 141 -580 170
-590 25 -8 260 180 358 287 l62 68 198 -147 c109 -81 238 -179 286 -218 84
-67 142 -79 142 -28 0 225 508 1506 818 2065 89 160 162 295 162 299 0 15 -12
12 -870 -271z m710 192 c0 -4 -468 -316 -1040 -692 l-1040 -684 -135 80 c-249
149 -550 396 -502 413 15 5 567 186 1227 402 660 216 1263 414 1340 440 161
54 150 51 150 41z m-131 -398 c-272 -527 -492 -1080 -651 -1634 -33 -116 -64
-221 -68 -235 -5 -15 -87 35 -214 131 -113 86 -278 207 -366 269 -88 61 -206
152 -263 201 l-104 88 552 458 c912 757 1266 1048 1275 1048 4 0 -68 -147
-161 -326z m-9 238 c-57 -54 -1610 -1343 -1668 -1384 -33 -23 -41 -64 -56
-282 -9 -141 -20 -265 -23 -276 -4 -11 -45 135 -91 326 -47 190 -82 353 -78
363 3 10 384 267 846 571 462 304 899 592 970 640 150 101 169 109 100 42z
m-1393 -1678 l58 -46 -156 -145 c-205 -192 -238 -210 -223 -120 7 37 18 172
26 301 l13 234 113 -88 c61 -49 138 -110 169 -136z"/>
</g>
</svg>
