<svg width="61" height="50" viewBox="0 0 61 50" fill="none" xmlns="http://www.w3.org/2000/svg">
<path d="M58.883 2.58044C58.8825 2.58045 58.8819 2.58044 58.8812 2.58048C58.8857 2.58058 58.8865 2.58034 58.883 2.58044ZM31.4051 43.3731L27.9279 40.8083L27.0296 41.7872L27.0289 41.788C26.0535 42.846 24.4167 44.285 22.9714 45.4352C22.2472 46.0116 21.5608 46.5237 21.0196 46.8845C20.7506 47.0638 20.5063 47.2134 20.3054 47.3149C20.2062 47.3651 20.103 47.411 20.0041 47.4414C19.9319 47.4635 19.756 47.5134 19.5689 47.4539L19.5689 47.454L19.5584 47.4504C19.4023 47.397 19.2943 47.2917 19.2312 47.2202C19.1608 47.1406 19.0983 47.0472 19.0425 46.9522C18.9306 46.7614 18.8154 46.5104 18.6976 46.2164C18.4608 45.6251 18.1901 44.799 17.8975 43.789C17.3114 41.7653 16.6252 38.9598 15.9355 35.717C15.9355 35.7169 15.9355 35.7168 15.9354 35.7167L14.9359 31.0642L12.7086 29.8073C10.0133 28.2882 7.10418 26.2186 4.98678 24.4432C3.93062 23.5577 3.0539 22.7308 2.49785 22.0716C2.22484 21.748 2.00039 21.4317 1.88282 21.1479C1.8244 21.0068 1.77362 20.8301 1.78998 20.6421C1.80853 20.4289 1.91283 20.2285 2.10785 20.0967L2.10778 20.0966L2.11737 20.0904C2.17695 20.0521 2.25331 20.0179 2.30926 19.9937C2.37653 19.9645 2.46098 19.9303 2.55952 19.8919C2.75718 19.8148 3.02474 19.7156 3.35216 19.5976C4.00776 19.3614 4.91424 19.0461 6.00483 18.6749C8.18636 17.9323 11.1114 16.9636 14.254 15.9518C20.5543 13.9102 33.0199 9.84609 41.9769 6.91827C50.2916 4.19352 54.5141 2.81441 56.6569 2.15304C57.7179 1.82555 58.2982 1.6646 58.6164 1.60817C58.6988 1.59356 58.7794 1.58296 58.8548 1.58083C58.9232 1.5789 59.0304 1.58205 59.142 1.62637C59.2797 1.68103 59.3958 1.78742 59.4562 1.93541C59.5006 2.04422 59.5001 2.14555 59.5 2.17045L59.5 2.17332C59.5 2.24788 59.4826 2.30587 59.4801 2.31487C59.4783 2.32112 59.4765 2.32705 59.4748 2.33257C59.4706 2.34555 59.4667 2.35627 59.464 2.3636C59.4593 2.37599 59.4544 2.38805 59.4497 2.39908C59.4462 2.40725 59.4429 2.41485 59.4398 2.4216C59.4249 2.45477 59.4054 2.49515 59.3834 2.53936C59.3387 2.62912 59.2746 2.75312 59.1942 2.90554C59.033 3.21132 58.8009 3.64222 58.5157 4.16547C57.9451 5.21235 57.1591 6.63443 56.2958 8.17645C53.3063 13.5323 49.3508 22.3697 46.1402 30.4189C44.5358 34.4412 43.1208 38.2582 42.1078 41.3364C41.6011 42.8759 41.1968 44.2252 40.9197 45.3202C40.6391 46.4288 40.5 47.2354 40.5 47.7094C40.5 48.0416 40.4029 48.3973 40.0952 48.6237C39.8013 48.8401 39.4412 48.843 39.1367 48.7825C38.53 48.6619 37.7639 48.2176 36.9364 47.5619L36.9364 47.5619L36.9329 47.5591C36.0118 46.8156 33.5192 44.934 31.4052 43.3732C31.4052 43.3732 31.4051 43.3732 31.4051 43.3731ZM18.0349 37.7871C18.4052 39.3145 18.7582 40.6903 19.0494 41.7596C19.1178 40.9097 19.192 39.8981 19.2602 38.8359L19.2604 38.8335C19.4051 36.7432 19.5182 35.4612 19.6808 34.6457C19.7629 34.2344 19.8635 33.908 20.0063 33.6436C20.1558 33.3667 20.3409 33.1772 20.5586 33.0261C21.1142 32.6347 29.9738 25.5586 38.8668 18.422C43.3091 14.857 47.7506 11.2844 51.1504 8.53818C54.5567 5.78668 56.8872 3.88863 57.1553 3.63783C57.374 3.42655 57.5411 3.22933 57.6566 3.06276C57.3163 3.19479 56.8188 3.45965 56.1377 3.91525C55.7968 4.14427 54.7262 4.91589 53.1686 6.03858C51.6122 7.16046 49.5693 8.63289 47.2821 10.2648C42.718 13.5212 37.2 17.3986 32.7124 20.3324C28.2349 23.2596 24.1506 25.96 21.1791 27.9522C19.693 28.9486 18.4868 29.7668 17.6493 30.3472C17.2301 30.6379 16.9062 30.8668 16.6867 31.028C16.6331 31.0674 16.5868 31.1019 16.5477 31.1315C16.5601 31.2223 16.5789 31.3401 16.6045 31.4847C16.6699 31.8542 16.7744 32.3721 16.9108 33.0029C17.1833 34.2631 17.5795 35.9578 18.0342 37.7841L18.0349 37.7871ZM22.591 36.8726L21.1553 35.7618L20.9564 39.3197L20.9562 39.3229C20.8024 41.7873 20.5884 44.4187 20.4453 45.1775C20.4276 45.2838 20.4145 45.3764 20.4057 45.4566C20.6636 45.2962 21.0359 45.0104 21.5583 44.5635C22.1642 44.0452 22.9429 43.3362 23.9359 42.4122L23.9373 42.4109L26.5314 40.0153L25.8671 39.4919L25.867 39.492L25.8565 39.4833C25.4456 39.1409 24.6126 38.4794 23.7448 37.7903C23.3556 37.4812 22.9593 37.1665 22.591 36.8726Z" fill="black" stroke="black"/>
</svg>
