<svg xmlns="http://www.w3.org/2000/svg" width="21" height="16" viewBox="0 0 21 16">
    <path fill="#EBE4E4" fill-rule="evenodd" d="M3.977 0c1.567 0 2.855.557 3.865 1.672 1.01 1.115 1.514 2.622 1.514 4.52 0 1.898-.851 4.008-2.554 6.328C5.1 14.84 3.54 16 2.124 16S0 15.397 0 14.192c0-.542.557-1.59 1.672-3.141 1.115-1.552 1.673-2.848 1.673-3.887 0-1.04-.407-1.89-1.22-2.554C1.31 3.947.903 3.314.903 2.712c0-.603.316-1.205.95-1.808C2.485.3 3.193 0 3.976 0zm11.48 0c1.567 0 2.856.557 3.865 1.672 1.01 1.115 1.514 2.622 1.514 4.52 0 1.898-.851 4.008-2.554 6.328C16.58 14.84 15.021 16 13.605 16c-1.417 0-2.125-.603-2.125-1.808 0-.542.558-1.59 1.673-3.141 1.114-1.552 1.672-2.848 1.672-3.887 0-1.04-.407-1.89-1.22-2.554-.814-.663-1.22-1.296-1.22-1.898 0-.603.316-1.205.948-1.808C13.966.3 14.674 0 15.458 0z"/>
</svg>
