<svg xmlns="http://www.w3.org/2000/svg" width="21" height="16" viewBox="0 0 21 16">
    <path fill="#EBE4E4" fill-rule="evenodd" d="M16.859 16c-1.567 0-2.855-.557-3.865-1.672-1.01-1.115-1.514-2.622-1.514-4.52 0-1.898.851-4.008 2.554-6.328C15.736 1.16 17.296 0 18.712 0s2.124.603 2.124 1.808c0 .542-.557 1.59-1.672 3.141-1.115 1.552-1.672 2.848-1.672 3.887 0 1.04.406 1.89 1.22 2.554.813.663 1.22 1.296 1.22 1.898 0 .603-.316 1.205-.949 1.808S17.643 16 16.86 16zm-11.48 0c-1.567 0-2.855-.557-3.865-1.672C.504 13.213 0 11.706 0 9.808 0 7.91.851 5.8 2.554 3.48 4.256 1.16 5.815 0 7.232 0c1.416 0 2.124.603 2.124 1.808 0 .542-.558 1.59-1.672 3.141C6.569 6.501 6.01 7.797 6.01 8.836c0 1.04.407 1.89 1.22 2.554.814.663 1.221 1.296 1.221 1.898 0 .603-.316 1.205-.95 1.808C6.87 15.7 6.163 16 5.38 16z"/>
</svg>
