<svg xmlns="http://www.w3.org/2000/svg" width="616" height="146">
    <path fill="none" fill-rule="nonzero" stroke="#EBE4E4" stroke-width="2" d="M19.902 8.853C8.932 11.565 2.328 37.876 1.17 75.209c-.975 31.43 2.508 63.157 6.785 65.482 4.305 2.339 51.36 3.667 126.35 4.123 31.36.19 61.436.218 100.621.16l12.007-.02c3.938-.005 6.614-.007 8.717-.007 32.283 0 117.715-.527 183.608-1.301 97.965-1.152 159.755-2.795 165.43-4.868 5.3-1.937 8.552-18.55 9.761-44.508.573-12.295.653-24.649.463-38.443.007.493-.09-5.864-.09-6.563 0-.438.008-.98.022-1.758.007-.412.04-2.05.046-2.338.146-7.575.078-13.243-.407-19.187-1.116-13.656-4.235-22.218-9.694-23.578-5.648-1.406-93.62-1.689-239.01-1.15-32.074.118-65.963.273-102.737.464-20.556.106-128.448.716-134.96.716-26.228 0-40.089.145-56.35.805-22.55.916-40.032 2.698-51.829 5.615z"/>
</svg>
