<svg xmlns="http://www.w3.org/2000/svg" width="327" height="170" viewBox="0 0 327 170">
    <path fill="none" fill-rule="nonzero" stroke="#EBE4E4" stroke-width="2" d="M10.914 10.057C5.262 13.122 1.704 44.222 1.09 87.55c-.52 36.723 1.341 73.902 3.645 76.648 2.093 2.496 27.42 4.064 66.57 4.586 16.642.222 32.604.253 53.401.185l6.374-.021c2.091-.007 3.512-.01 4.63-.01 17.13 0 62.475-.613 97.447-1.515 51.354-1.324 84.577-3.262 87.394-5.52 2.754-2.206 4.515-21.935 5.156-52.103.304-14.334.347-28.73.246-44.806.003.563-.048-6.824-.048-7.632 0-.505.004-1.133.011-2.034l.025-2.722c.078-8.842.042-15.461-.217-22.411-.59-15.829-2.306-26.162-5.027-27.649-2.813-1.537-50.285-1.871-126.52-1.252-17.025.138-35.014.319-54.535.54-10.902.124-68.189.835-71.65.835-13.902 0-21.244.168-29.847.934-11.879 1.058-21.073 3.114-27.23 6.454z"/>
</svg>
