<svg xmlns="http://www.w3.org/2000/svg" width="51" height="52" viewBox="0 0 51 52">
    <g fill="none" fill-rule="nonzero" stroke-width="2">
        <path fill="#9C1E14" stroke="#9C1E14" d="M2.068 6.033C3.568 4.51 14.03 2.45 21.658 2.45c7.63 0 25.252-1.523 25.966 1.03.714 2.552 1.268 18.168.991 25.629-.277 7.46.991 17.623 0 18.652-.99 1.03-20.976 1.03-25.913 1.03-4.938 0-19.286 2.718-20.634 0-1.347-2.717-1.5-41.237 0-42.76z"/>
        <path stroke="#FFF" stroke-linecap="round" d="M18 29.641c2.16-1.987 3.606-3.372 4.34-4.155C24.29 23.405 25.17 22 25.64 22c1.106 0 2.34 2.824 4.003 4.486a34.818 34.818 0 0 0 3.638 3.155"/>
    </g>
</svg>
