<?xml version="1.0" standalone="no"?>
<!DOCTYPE svg PUBLIC "-//W3C//DTD SVG 20010904//EN"
 "http://www.w3.org/TR/2001/REC-SVG-20010904/DTD/svg10.dtd">
<svg version="1.0" xmlns="http://www.w3.org/2000/svg"
 width="1154.000000pt" height="1844.000000pt" viewBox="0 0 1154.000000 1844.000000"
 preserveAspectRatio="xMidYMid meet">

<g transform="translate(0.000000,1844.000000) scale(0.100000,-0.100000)"
fill="#000000" stroke="none">
<path d="M11088 18333 c23 -2 59 -2 80 0 20 2 1 4 -43 4 -44 0 -61 -2 -37 -4z"/>
<path d="M11015 18309 c-43 -14 -265 -46 -445 -64 -85 -9 -204 -22 -265 -30
-60 -9 -162 -22 -225 -31 -63 -8 -133 -19 -155 -24 -39 -8 -399 -53 -680 -85
-77 -8 -189 -22 -250 -31 -140 -19 -397 -34 -409 -23 -6 5 -21 8 -35 8 -25 -1
-25 -2 4 -10 21 -6 10 -7 -38 -4 -50 3 -73 1 -83 -9 -7 -8 -57 -18 -116 -25
-343 -38 -541 -68 -863 -130 -110 -21 -238 -44 -285 -51 -47 -6 -101 -16 -120
-21 -39 -10 -162 -23 -380 -39 -137 -10 -419 -42 -650 -75 -117 -16 -297 -32
-470 -40 -129 -7 -238 -17 -415 -40 -149 -20 -346 -41 -445 -49 -181 -15 -556
-54 -580 -61 -8 -2 -69 -9 -135 -15 -157 -15 -333 -37 -392 -51 -83 -18 -203
-36 -353 -54 -80 -9 -167 -20 -195 -25 -27 -5 -99 -12 -159 -15 -60 -4 -134
-11 -165 -16 -82 -14 -164 -26 -271 -39 -123 -15 -282 -37 -395 -55 -49 -8
-117 -17 -150 -20 -33 -3 -87 -12 -120 -20 -33 -7 -96 -18 -140 -25 -44 -6
-108 -20 -142 -30 -64 -20 -343 -70 -387 -70 -57 0 -416 -135 -442 -167 -6 -7
-14 -13 -17 -13 -4 0 -46 -30 -94 -67 -91 -69 -153 -131 -188 -188 -11 -18
-38 -59 -59 -91 -22 -33 -64 -105 -93 -161 -43 -84 -53 -112 -53 -153 0 -45
-2 -50 -22 -50 -21 0 -21 -2 -15 -102 4 -57 9 -168 12 -248 4 -132 9 -189 21
-260 21 -124 28 -306 40 -1007 3 -193 7 -366 9 -385 2 -18 4 -143 5 -278 2
-135 9 -326 15 -425 7 -99 16 -376 19 -615 7 -509 13 -762 20 -880 3 -47 8
-209 11 -360 9 -440 17 -733 20 -765 2 -16 5 -167 6 -335 1 -168 6 -341 11
-385 5 -44 11 -359 13 -700 5 -1025 20 -1546 50 -1825 13 -117 18 -223 30
-595 2 -82 5 -548 7 -1035 1 -487 5 -941 9 -1010 4 -69 10 -163 13 -210 3 -47
13 -229 21 -405 8 -176 17 -356 20 -400 4 -87 14 -290 20 -455 3 -58 7 -480
10 -939 4 -459 9 -839 12 -844 3 -5 -3 -6 -15 -3 -11 4 -23 2 -27 -4 -11 -17
4 -60 20 -60 14 0 17 -4 19 -32 1 -15 62 -64 126 -101 46 -26 77 -32 320 -63
69 -8 143 -20 164 -26 22 -5 94 -16 160 -23 167 -19 243 -31 456 -71 102 -19
212 -39 245 -44 181 -30 265 -44 410 -66 88 -13 196 -31 240 -39 44 -8 136
-21 205 -30 69 -8 141 -18 160 -21 19 -3 64 -7 100 -9 36 -3 92 -9 125 -15 74
-12 291 -37 445 -50 108 -9 625 -74 680 -85 36 -7 321 -34 625 -59 105 -9 205
-18 222 -21 18 -3 54 -8 80 -10 58 -6 192 -22 288 -35 39 -5 140 -19 225 -30
85 -11 200 -27 255 -35 121 -17 264 -32 405 -40 58 -4 188 -15 290 -26 102
-10 208 -19 237 -19 28 0 64 -5 78 -10 15 -6 46 -11 68 -11 23 -1 58 -5 77 -9
19 -5 87 -14 150 -20 140 -13 380 -46 475 -65 39 -8 120 -21 180 -30 61 -9
178 -27 260 -40 175 -28 387 -60 570 -85 185 -25 452 -68 505 -80 25 -6 97
-17 160 -25 63 -8 130 -19 149 -25 32 -9 356 -51 500 -65 36 -3 67 -7 70 -9 3
-2 31 -7 61 -10 30 -4 96 -16 145 -27 50 -11 145 -25 212 -31 108 -10 128 -10
187 6 43 12 66 23 66 33 0 10 6 12 20 8 20 -6 20 -2 20 224 0 127 -1 233 -2
234 -2 2 3 11 11 20 8 11 10 22 5 30 -14 18 -2 1138 15 1432 4 77 7 170 7 208
-1 37 1 67 4 67 3 0 4 157 2 350 -1 194 1 350 6 350 5 0 12 -3 16 -7 16 -16
61 -8 119 22 83 41 96 74 102 269 3 77 7 164 10 191 9 85 17 410 21 910 2 264
6 554 9 645 9 279 18 1051 21 1775 2 592 15 1131 30 1255 4 39 13 439 19 825
1 138 5 264 8 280 16 95 26 276 27 465 2 347 9 691 15 745 7 65 8 739 1 919
-3 77 -6 572 -6 1100 -1 529 -2 1125 -2 1326 -1 201 -1 397 -1 435 0 39 3 210
7 380 22 922 25 2656 5 2965 -4 69 -8 234 -9 368 -1 325 -5 336 -139 347 -153
13 -188 13 -216 4z m200 -58 c30 -2 30 -2 -15 -25 -49 -26 -186 -62 -265 -70
-27 -3 -77 -10 -110 -16 -33 -6 -100 -15 -150 -20 -49 -6 -103 -12 -120 -14
-16 -2 -57 -7 -90 -10 -33 -4 -103 -14 -155 -21 -199 -30 -339 -47 -445 -55
-123 -8 -293 -24 -495 -45 -274 -29 -332 -27 -130 4 41 6 100 16 130 21 91 17
445 72 570 89 256 36 375 54 435 66 39 8 108 15 155 16 55 0 120 10 185 26
198 51 340 66 500 54z m104 -276 c1 -115 5 -293 11 -395 5 -102 12 -464 16
-805 7 -748 7 -692 0 -1000 -18 -763 -23 -2518 -12 -4890 0 -181 -2 -429 -6
-550 -4 -121 -10 -359 -13 -530 -5 -273 -15 -470 -30 -600 -3 -22 -8 -238 -11
-480 -3 -242 -8 -456 -9 -475 -2 -19 -6 -102 -10 -185 -3 -82 -9 -181 -12
-220 -12 -135 -11 -1475 1 -1468 6 4 4 -1 -4 -12 -13 -15 -15 -68 -16 -319 -1
-166 -4 -440 -8 -611 -4 -170 -9 -535 -11 -810 -5 -611 -13 -948 -31 -1249 -5
-83 -8 -93 -41 -138 -40 -56 -59 -68 -103 -68 -23 0 -33 -5 -37 -20 -13 -49
-21 -10 -27 128 -7 143 -5 240 10 622 5 102 8 223 7 270 -4 538 -3 584 27 840
12 102 27 403 35 710 6 215 12 351 35 720 6 91 13 255 15 365 2 110 7 254 10
320 2 66 7 205 11 309 3 103 7 196 9 205 2 10 6 101 9 202 3 101 9 247 12 324
5 134 8 479 4 500 -1 6 -2 13 -1 17 8 57 22 1200 20 1593 -1 160 0 524 1 810
4 857 4 912 -3 1120 -18 541 -29 2448 -14 2473 3 4 8 113 12 242 3 129 8 280
10 336 1 56 -1 119 -5 142 -5 31 -4 42 6 46 8 3 14 11 13 18 0 10 -2 10 -6 1
-5 -14 -33 -18 -33 -5 0 5 -19 19 -42 32 -24 13 -49 30 -56 37 -7 7 -20 17
-29 21 -10 6 -13 14 -8 22 5 7 9 306 11 664 5 963 18 1599 36 1633 6 13 9 25
7 27 -10 10 -49 9 -114 -2 -38 -6 -119 -18 -180 -26 -103 -14 -171 -22 -515
-61 -494 -56 -658 -75 -671 -79 -8 -2 -41 -7 -74 -10 -98 -9 -162 -16 -325
-36 -85 -11 -236 -29 -335 -40 -255 -29 -566 -65 -810 -94 -115 -14 -237 -28
-270 -31 -33 -4 -91 -10 -130 -15 -48 -6 -71 -5 -74 2 -2 7 -6 7 -10 -1 -4 -6
-43 -16 -87 -21 -129 -17 -1000 -120 -1052 -125 -26 -2 -121 -13 -212 -25 -91
-11 -259 -32 -375 -45 -115 -13 -241 -29 -280 -34 -38 -6 -99 -13 -135 -16
-94 -8 -231 -23 -317 -35 -94 -13 -126 -13 -118 0 3 6 1 10 -4 10 -6 0 -11 -6
-11 -13 0 -9 -42 -18 -147 -30 -250 -30 -283 -32 -283 -17 0 10 -4 9 -17 -2
-17 -15 -147 -36 -323 -53 -36 -4 -135 -15 -220 -25 -231 -29 -321 -39 -365
-44 -22 -2 -96 -11 -165 -20 -69 -9 -165 -20 -215 -26 -275 -30 -775 -89 -860
-100 -38 -5 -119 -14 -180 -20 -60 -6 -184 -19 -275 -30 -91 -11 -293 -33
-450 -50 -157 -17 -323 -35 -370 -40 -47 -5 -118 -12 -158 -15 -73 -6 -73 -6
-62 15 19 35 -1 46 -51 31 -86 -26 -170 -103 -214 -196 -19 -41 -25 -126 -12
-176 5 -22 3 -28 -13 -32 -27 -7 -27 -47 0 -47 11 0 21 -6 21 -12 1 -7 2 -25
3 -40 2 -35 13 -45 34 -31 12 8 16 22 14 51 l-2 40 47 -6 c27 -3 50 -8 53 -12
3 -4 131 -10 284 -14 154 -4 282 -9 285 -11 4 -1 74 -6 156 -9 83 -4 188 -9
235 -11 47 -2 148 -7 225 -10 77 -4 149 -8 160 -10 12 -2 86 -6 165 -9 329
-14 379 -17 470 -21 52 -3 133 -7 180 -10 177 -10 269 -15 380 -20 63 -3 151
-8 195 -10 135 -8 285 -15 400 -20 61 -3 130 -7 155 -10 25 -2 113 -7 195 -10
83 -3 175 -7 205 -10 30 -2 134 -7 230 -10 96 -3 195 -8 220 -10 25 -2 108 -6
185 -10 77 -3 178 -7 225 -10 47 -2 144 -7 215 -10 72 -3 218 -10 325 -15 107
-5 247 -12 310 -14 214 -10 745 -36 820 -41 41 -2 149 -7 240 -10 91 -3 188
-8 215 -10 28 -3 106 -7 175 -10 160 -7 493 -24 590 -30 41 -3 167 -9 280 -15
113 -5 333 -16 490 -25 558 -29 697 -36 1275 -60 173 -7 297 -15 400 -26 50
-5 116 -9 147 -9 31 0 59 -4 62 -9 10 -15 68 -7 80 11 5 9 8 20 4 23 -7 7 -71
12 -268 20 -80 3 -170 8 -200 10 -30 2 -134 7 -230 11 -96 3 -193 7 -215 9
-22 2 -112 6 -200 9 -173 7 -724 32 -870 41 -49 3 -128 7 -175 10 -47 3 -141
7 -210 10 -69 3 -172 8 -230 11 -58 3 -179 9 -269 13 -135 6 -166 11 -176 24
-15 21 -29 22 -22 2 7 -17 -22 -18 -233 -5 -80 5 -217 12 -305 15 -88 3 -227
10 -310 15 -82 5 -219 13 -303 16 -125 6 -152 10 -150 22 2 8 -7 21 -19 29
-21 14 -23 14 -23 0 0 -9 5 -19 10 -22 19 -12 10 -21 -17 -19 -16 1 -40 2 -55
3 -21 1 -28 6 -28 21 0 11 -7 20 -15 20 -18 0 -19 -12 -3 -28 8 -8 -22 -10
-128 -6 -167 6 -204 11 -204 27 0 13 -39 41 -47 34 -2 -3 1 -15 7 -27 l12 -23
-133 7 c-263 13 -310 18 -305 32 3 7 -2 15 -11 18 -12 5 -14 1 -10 -15 5 -20
3 -20 -81 -15 -48 2 -101 5 -119 5 -23 1 -33 7 -38 21 -3 11 -11 20 -16 20 -6
0 -7 -9 -4 -21 7 -21 5 -22 -61 -16 -38 4 -132 9 -209 12 -77 3 -216 10 -310
15 -93 5 -228 12 -300 15 -71 3 -215 10 -320 16 -104 6 -197 11 -205 11 -30 0
-616 28 -670 33 -30 2 -206 11 -390 20 -184 8 -371 17 -415 20 -44 2 -192 9
-330 15 -306 14 -285 13 -285 23 0 5 24 6 52 3 29 -3 168 -9 308 -12 140 -4
282 -8 315 -10 33 -1 103 -3 155 -3 62 -1 97 -5 102 -14 4 -6 8 -7 8 -2 0 6
29 9 69 9 162 -4 545 -15 786 -24 143 -6 373 -12 510 -15 138 -3 302 -7 365
-10 63 -2 221 -7 350 -10 129 -3 264 -8 300 -10 36 -2 205 -7 375 -10 171 -3
366 -8 435 -10 108 -4 538 -17 580 -17 8 0 123 -4 255 -8 132 -5 362 -11 510
-15 149 -3 304 -8 345 -10 41 -2 183 -7 315 -10 132 -3 290 -8 350 -10 61 -3
193 -7 295 -10 102 -3 255 -7 340 -10 183 -6 462 -14 682 -20 87 -2 276 -7
420 -10 145 -3 297 -7 338 -10 41 -3 149 -7 240 -10 91 -3 180 -8 198 -11 41
-6 72 3 72 22 0 10 -12 14 -38 14 -20 0 -100 2 -177 5 -191 6 -526 14 -850 20
-148 3 -322 7 -385 10 -159 7 -400 14 -625 20 -325 8 -535 15 -675 20 -275 11
-392 14 -695 20 -170 3 -339 8 -375 10 -36 3 -162 7 -280 10 -118 3 -260 7
-315 10 -55 3 -280 10 -500 15 -377 10 -876 24 -1225 35 -85 3 -247 7 -360 10
-113 3 -272 7 -355 10 -82 3 -267 8 -410 11 -143 4 -278 8 -300 9 -22 2 -146
6 -275 9 -129 3 -287 8 -350 11 -63 3 -214 7 -335 10 -296 7 -505 14 -590 20
-38 3 -178 7 -310 10 -132 4 -265 8 -295 10 -30 2 -136 7 -235 10 -238 7 -311
14 -312 28 -1 7 -4 40 -8 74 -9 72 11 124 71 186 49 50 76 65 72 40 -3 -16 5
-18 87 -16 50 1 133 9 185 17 52 8 148 20 212 26 65 6 126 13 136 15 19 3 95
12 177 20 28 3 91 9 140 15 50 5 115 12 145 14 84 6 545 54 630 66 70 9 372
41 520 55 80 8 133 14 185 21 22 3 85 9 140 14 55 5 179 19 275 30 96 11 218
25 270 30 121 13 177 19 215 25 17 2 64 7 105 10 41 3 85 8 98 11 23 5 179 21
287 30 33 2 114 11 180 19 103 12 197 22 470 51 28 2 167 18 310 35 143 16
328 36 410 44 83 8 168 17 190 20 22 3 85 9 140 15 55 6 141 15 190 20 50 6
135 15 190 20 132 12 252 25 465 50 96 11 222 25 280 30 58 6 164 17 235 25
72 8 236 26 365 40 129 14 253 28 275 30 22 3 126 14 230 25 105 11 206 22
225 25 56 7 240 26 300 31 30 2 91 9 135 14 69 8 229 26 410 46 28 2 129 14
225 25 175 20 397 44 500 54 30 3 69 7 85 10 17 2 73 7 125 11 52 3 97 8 101
10 3 1 39 6 80 9 259 22 279 25 279 46 0 11 -105 5 -225 -12 -82 -12 -268 -33
-479 -54 -82 -8 -156 -17 -165 -20 -9 -2 -65 -9 -126 -14 -183 -17 -314 -30
-435 -45 -129 -17 -158 -20 -390 -41 -91 -8 -175 -17 -186 -20 -12 -3 -50 -7
-85 -10 -35 -3 -143 -15 -239 -26 -96 -11 -200 -22 -230 -25 -68 -6 -190 -19
-425 -45 -99 -11 -223 -24 -275 -29 -92 -9 -185 -19 -360 -39 -47 -5 -114 -12
-150 -16 -36 -3 -76 -8 -90 -10 -14 -2 -50 -6 -80 -9 -62 -7 -559 -60 -695
-75 -49 -6 -135 -15 -190 -21 -325 -33 -681 -72 -750 -80 -44 -6 -100 -12
-125 -14 -82 -7 -364 -36 -435 -46 -38 -5 -140 -17 -225 -25 -85 -9 -211 -22
-280 -30 -69 -8 -152 -17 -185 -20 -33 -3 -159 -17 -280 -30 -355 -40 -375
-42 -375 -35 0 6 419 61 656 85 114 12 342 39 859 101 72 9 168 19 215 24 47
5 164 18 260 30 198 24 307 37 430 50 47 5 122 14 168 20 198 25 252 31 327
40 160 18 531 60 565 65 323 41 539 65 558 60 12 -3 22 -2 22 3 0 5 69 16 153
26 199 23 217 25 315 36 45 6 119 14 165 20 45 5 123 14 172 20 86 10 197 23
780 90 143 17 283 33 310 35 28 3 82 10 120 15 39 5 113 14 165 19 52 6 151
18 220 26 359 43 553 65 630 71 47 3 87 8 90 9 6 4 227 19 280 20 l35 0 -1
-160 0 -160 -130 -12 c-300 -26 -378 -34 -639 -63 -99 -11 -250 -27 -335 -35
-272 -27 -539 -53 -750 -75 -113 -11 -254 -25 -315 -31 -60 -5 -146 -14 -190
-19 -100 -12 -149 -17 -305 -30 -69 -6 -210 -20 -315 -30 -104 -11 -287 -29
-405 -40 -118 -11 -253 -25 -300 -30 -47 -5 -139 -14 -205 -20 -66 -6 -138
-13 -160 -15 -22 -2 -157 -16 -300 -29 -295 -29 -325 -32 -450 -46 -49 -5
-124 -12 -165 -15 -41 -3 -136 -12 -210 -20 -74 -8 -209 -21 -300 -30 -91 -8
-203 -20 -250 -25 -47 -6 -202 -21 -345 -35 -143 -14 -321 -32 -395 -40 -74
-8 -164 -17 -200 -20 -94 -8 -231 -21 -515 -49 -137 -14 -279 -28 -315 -31
-36 -3 -76 -8 -90 -10 -14 -2 -54 -6 -90 -9 -36 -3 -180 -17 -320 -31 -140
-13 -302 -29 -360 -35 -58 -5 -177 -16 -265 -25 -88 -8 -185 -18 -215 -20 -30
-3 -167 -17 -305 -30 -232 -23 -610 -58 -750 -70 -226 -18 -351 -28 -374 -29
-19 -1 -27 -7 -29 -24 -2 -13 -10 -26 -18 -29 -14 -5 -20 -42 -6 -44 4 0 31
-1 60 -2 34 -1 52 -6 52 -14 0 -8 14 -13 38 -13 67 0 794 -11 932 -15 74 -2
286 -6 470 -9 611 -11 913 -16 1115 -21 352 -8 722 -15 1025 -20 162 -3 410
-7 550 -10 400 -7 846 -15 1200 -20 179 -3 442 -7 585 -10 255 -5 468 -9 1205
-21 201 -3 368 -8 371 -10 3 -2 76 -4 161 -5 86 0 172 -4 192 -9 23 -5 34 -4
30 2 -4 7 36 8 117 4 68 -3 453 -11 854 -16 815 -11 1066 -17 1205 -30 84 -8
96 -7 108 7 7 10 11 21 9 26 -1 5 -146 10 -322 12 -693 8 -1108 15 -1930 30
-436 8 -1267 23 -1655 30 -157 3 -368 7 -470 10 -102 3 -347 7 -545 10 -198 3
-481 7 -630 10 -148 3 -432 7 -630 10 -198 3 -454 7 -570 10 -115 3 -358 7
-540 10 -181 4 -400 8 -485 10 -85 2 -342 6 -570 10 -228 3 -464 8 -525 10
-60 3 -281 8 -490 12 -209 4 -396 7 -415 8 -19 1 -69 3 -110 4 -63 3 -70 4
-41 11 116 27 1881 30 3871 5 206 -3 791 -7 1300 -10 1110 -6 1852 -13 2130
-20 113 -3 626 -7 1140 -10 514 -3 1052 -8 1195 -11 250 -5 297 -1 281 24 -4
7 -286 11 -849 12 -463 1 -896 3 -962 5 -66 2 -547 6 -1070 9 -522 4 -1094 9
-1270 11 -176 2 -792 7 -1370 11 -577 4 -1081 8 -1120 9 -38 1 -279 3 -535 5
-528 4 -426 12 290 24 217 3 458 8 535 11 77 3 268 7 425 10 157 3 355 7 440
10 85 3 281 7 435 10 290 5 600 12 955 20 570 13 1047 23 1485 31 165 3 361 7
435 9 74 2 325 7 556 10 232 4 435 8 450 10 16 2 281 6 589 10 308 4 564 11
569 16 5 4 6 15 2 24 -4 12 -14 15 -33 11 -16 -3 -127 -8 -248 -11 -121 -3
-296 -7 -390 -10 -268 -8 -548 -14 -830 -20 -143 -3 -361 -7 -485 -10 -363 -8
-695 -15 -995 -20 -290 -6 -515 -11 -815 -20 -96 -3 -332 -7 -525 -10 -192 -3
-426 -7 -520 -10 -93 -3 -307 -7 -475 -10 -168 -3 -350 -7 -405 -10 -55 -2
-275 -7 -490 -10 -214 -4 -442 -8 -505 -10 -63 -2 -270 -7 -460 -10 -190 -3
-430 -8 -535 -10 -217 -4 -1057 -17 -1248 -19 -70 0 -127 2 -127 5 0 3 48 9
107 13 233 15 279 18 528 36 215 16 440 29 630 35 99 3 221 8 270 10 50 2 169
7 265 10 96 4 234 10 305 15 72 4 182 9 245 9 63 1 124 4 135 6 11 2 101 7
200 10 157 5 818 35 1080 49 50 3 160 8 245 11 85 3 200 8 255 10 55 3 174 7
265 10 91 3 239 10 330 15 91 5 289 14 440 20 151 6 370 15 485 20 116 6 264
12 330 15 144 6 347 14 510 21 66 2 156 6 200 9 112 6 282 14 555 25 129 5
289 12 355 15 560 27 858 38 1085 42 146 2 271 6 278 8 6 2 12 14 12 25 0 20
-4 21 -62 16 -35 -3 -128 -8 -208 -12 -80 -3 -172 -7 -205 -9 -33 -2 -139 -6
-235 -10 -96 -3 -191 -8 -210 -10 -19 -2 -120 -7 -225 -10 -104 -4 -197 -8
-205 -10 -8 -2 -91 -7 -185 -10 -187 -7 -989 -41 -1265 -54 -96 -4 -184 -8
-195 -8 -18 0 -556 -23 -880 -38 -66 -3 -154 -8 -195 -10 -41 -3 -196 -10
-345 -15 -148 -6 -315 -12 -370 -15 -55 -2 -154 -7 -220 -10 -354 -15 -411
-18 -417 -22 -5 -2 -8 1 -8 7 0 7 -6 8 -17 2 -10 -5 -97 -12 -193 -16 -96 -4
-218 -9 -270 -11 -52 -3 -196 -9 -320 -15 -124 -5 -286 -12 -360 -16 -74 -3
-173 -7 -220 -9 -47 -1 -146 -6 -220 -10 -74 -4 -133 -5 -130 -2 3 3 71 11
150 16 80 6 174 13 210 16 36 3 157 12 270 20 298 22 464 35 650 50 91 8 212
17 270 20 58 4 125 8 150 11 25 2 131 11 235 19 105 8 215 17 245 19 30 3 93
8 140 11 47 3 110 8 140 10 30 3 120 9 200 15 80 6 260 20 400 31 140 11 320
24 400 29 80 5 197 14 260 19 63 6 178 15 255 21 425 30 704 51 815 60 69 6
188 15 265 20 77 5 165 12 195 15 48 4 329 25 550 40 41 3 127 10 190 15 63 5
180 14 260 20 80 6 197 15 260 20 63 5 160 13 215 16 55 4 109 8 120 10 11 1
80 3 154 4 101 2 136 -1 142 -11 6 -11 12 -10 27 4 10 9 21 15 23 13 2 -2 1
-80 -2 -173 -3 -92 -6 -343 -7 -558 -3 -459 -9 -596 -28 -626 -4 -7 -6 -29 -6
-51 2 -37 1 -38 -36 -39 -93 -1 -291 2 -332 6 -25 2 -124 6 -220 9 -96 4 -211
9 -255 11 -44 3 -143 7 -220 10 -474 18 -703 27 -955 40 -52 3 -178 7 -280 10
-102 3 -214 7 -250 10 -36 3 -123 7 -195 10 -355 14 -420 17 -550 25 -77 5
-171 10 -208 11 -37 1 -70 6 -73 11 -3 4 -10 5 -16 2 -13 -8 -96 -8 -283 0
-307 14 -339 16 -347 29 -6 9 -8 9 -8 0 0 -9 -13 -11 -42 -8 -24 2 -122 7
-218 10 -96 3 -260 10 -365 15 -104 5 -300 14 -435 19 -135 6 -318 13 -406 17
-89 4 -179 8 -200 9 -22 2 -83 4 -136 4 -74 1 -100 5 -112 17 -10 10 -16 11
-16 4 0 -10 -49 -11 -202 -6 -112 4 -221 9 -243 11 -22 2 -130 7 -240 10 -110
3 -272 10 -360 15 -88 6 -288 14 -445 20 -157 5 -334 12 -395 15 -191 10 -296
14 -445 20 -80 3 -179 8 -220 10 -41 3 -140 7 -220 10 -80 3 -170 8 -200 10
-30 3 -145 9 -255 15 -110 6 -238 13 -285 15 -47 3 -132 7 -190 10 -58 3 -144
8 -191 11 -59 4 -89 3 -93 -5 -11 -17 -50 -13 -166 13 -58 14 -139 30 -180 36
-81 12 -104 26 -126 79 -20 47 -19 52 22 111 20 29 52 85 72 124 23 45 59 93
97 131 58 56 192 153 261 188 17 9 36 23 43 31 8 9 24 16 37 16 31 0 106 18
169 41 129 47 317 99 380 104 39 4 108 13 155 21 47 8 144 21 215 29 72 8 159
19 195 24 36 5 101 12 145 15 119 8 362 35 425 46 30 5 125 17 210 25 85 8
187 19 225 24 124 17 256 30 405 41 370 28 529 43 815 79 44 6 123 16 175 22
52 7 108 13 125 15 16 2 101 11 190 19 214 21 344 34 380 39 17 2 91 9 165 16
74 6 185 18 245 25 123 16 170 21 335 35 168 14 277 27 435 50 271 39 376 50
485 54 61 2 110 3 108 1 -4 -3 -314 -61 -403 -75 -38 -6 -95 -15 -125 -20 -30
-5 -84 -11 -120 -15 -80 -7 -177 -21 -250 -35 -30 -6 -75 -13 -100 -16 -54 -5
-164 -21 -240 -35 -30 -5 -80 -12 -110 -15 -30 -3 -63 -6 -72 -7 -18 -1 -23
-22 -12 -51 3 -9 10 -13 15 -10 16 10 87 22 172 29 32 2 62 7 66 9 11 7 52 13
141 21 41 4 86 12 100 17 64 26 191 45 345 54 61 3 155 16 210 29 91 20 169
34 294 51 24 3 59 13 78 21 34 14 117 28 223 37 30 2 75 12 100 21 47 17 300
59 455 75 126 13 270 34 480 70 99 17 198 33 220 35 22 2 94 11 160 20 66 8
147 17 180 20 55 5 249 32 285 40 8 1 60 6 115 11 55 4 102 9 105 9 35 9 89
16 150 20 41 2 89 6 105 9 17 2 86 7 155 11 69 3 150 10 180 15 30 5 93 12
138 15 46 3 123 10 170 16 48 6 114 13 147 15 33 3 78 9 100 14 22 4 83 13
135 19 52 6 115 14 140 17 25 2 81 8 125 13 76 8 167 22 355 57 94 17 184 53
214 86 l20 22 7 -25 c4 -13 7 -118 8 -234z m-1904 69 c-38 -15 -586 -90 -875
-119 -135 -14 -251 -28 -259 -31 -8 -2 -30 -7 -50 -10 -20 -3 -112 -21 -206
-40 -93 -19 -208 -41 -255 -49 -47 -7 -143 -25 -215 -40 -292 -58 -510 -85
-845 -105 -91 -5 -190 -14 -220 -20 -30 -5 -104 -17 -165 -24 -60 -8 -177 -24
-260 -34 -82 -11 -185 -23 -228 -26 -43 -3 -180 -17 -305 -30 -125 -13 -263
-27 -307 -30 -83 -7 -213 -20 -350 -36 -44 -6 -129 -14 -190 -20 -199 -18
-362 -36 -395 -45 -8 -2 -51 -7 -95 -10 -44 -4 -132 -13 -195 -21 -146 -19
-264 -30 -520 -49 -201 -15 -462 -41 -710 -71 -444 -53 -543 -65 -610 -70 -41
-3 -82 -7 -90 -10 -10 -4 -12 -2 -5 5 12 12 153 36 300 51 165 16 270 28 370
44 50 8 140 17 200 21 99 6 254 26 419 54 32 6 62 8 66 6 8 -5 136 13 170 25
30 10 274 45 420 61 58 6 125 15 150 20 73 15 117 19 258 26 72 3 132 10 132
14 0 5 23 9 50 9 28 0 148 12 268 26 273 33 269 32 317 39 101 14 289 28 540
41 168 8 180 9 243 23 47 9 101 15 237 26 84 7 163 15 235 25 41 6 104 13 140
16 36 3 110 9 165 15 55 6 129 12 165 14 98 6 151 14 164 23 6 5 28 10 49 10
21 1 43 4 48 8 6 3 40 8 77 10 65 4 180 26 232 45 14 5 70 16 125 24 157 24
269 43 285 49 22 8 242 34 350 41 52 3 149 14 215 25 66 10 192 23 280 29 88
7 221 21 295 31 74 11 167 24 205 29 71 9 198 13 180 5z m-980 -179 c-44 -7
-111 -15 -150 -18 -60 -5 -64 -5 -30 4 51 13 157 26 215 27 34 0 26 -3 -35
-13z m2568 -402 c0 -13 -1 -72 -2 -132 l-1 -109 -77 -6 c-43 -4 -98 -9 -123
-11 -25 -2 -81 -7 -125 -10 -44 -3 -105 -8 -135 -10 -30 -3 -111 -10 -180 -15
-69 -6 -177 -14 -240 -20 -63 -5 -179 -14 -257 -20 -78 -5 -197 -15 -265 -20
-68 -6 -161 -13 -208 -16 -47 -2 -130 -9 -185 -14 -55 -5 -145 -12 -200 -15
-55 -4 -113 -8 -130 -10 -31 -4 -132 -11 -275 -20 -47 -3 -137 -10 -200 -15
-63 -6 -180 -15 -260 -20 -80 -6 -226 -17 -325 -25 -99 -7 -220 -17 -270 -20
-76 -5 -231 -17 -520 -40 -33 -3 -123 -10 -200 -15 -121 -9 -222 -17 -588 -45
-38 -3 -132 -10 -210 -15 -181 -13 -615 -46 -777 -60 -200 -16 -257 -20 -400
-31 -221 -16 -374 -27 -580 -43 -107 -9 -222 -18 -255 -20 -33 -3 -100 -8
-150 -11 -49 -3 -112 -8 -140 -10 -27 -3 -203 -16 -390 -30 -187 -14 -396 -29
-465 -35 -131 -10 -275 -16 -600 -25 -418 -13 -910 -34 -922 -41 -4 -3 -9 0
-13 6 -3 5 -5 10 -3 10 2 0 80 7 173 15 94 8 199 17 235 20 36 3 103 10 150
15 47 5 137 14 200 20 63 6 178 17 255 25 77 8 169 17 205 20 36 3 76 8 90 10
23 5 85 10 370 35 114 10 158 14 355 35 72 8 164 16 205 20 152 13 264 23 370
35 73 9 188 20 460 46 30 2 93 9 140 14 47 5 137 14 200 20 63 6 135 13 160
16 25 2 72 7 105 10 33 3 141 14 240 25 99 10 277 28 395 39 118 11 253 25
300 30 47 5 110 12 140 14 30 3 125 12 210 21 85 8 178 17 205 20 28 3 97 9
155 14 93 9 424 42 720 72 58 5 123 12 145 14 115 11 182 18 300 30 115 13
231 24 430 40 33 3 74 8 90 11 17 3 80 9 140 14 254 21 361 30 380 34 19 4
112 13 360 36 61 6 151 15 200 20 50 5 142 14 205 20 63 6 133 13 155 15 22 3
92 9 155 15 63 6 131 12 150 14 88 10 437 44 535 52 39 3 129 11 200 17 183
17 190 17 188 -10z m-7548 -493 c-98 -15 -135 -18 -135 -10 0 9 61 16 145 17
37 1 36 0 -10 -7z m-157 -17 c-10 -2 -26 -2 -35 0 -10 3 -2 5 17 5 19 0 27 -2
18 -5z m-123 -13 c-11 -5 -29 -9 -40 -9 l-20 0 20 9 c11 5 29 9 40 9 l20 0
-20 -9z m-68 -6 c-3 -3 -12 -4 -19 -1 -8 3 -5 6 6 6 11 1 17 -2 13 -5z m-250
-30 c-3 -3 -12 -4 -19 -1 -8 3 -5 6 6 6 11 1 17 -2 13 -5z m936 -261 c-7 -2
-19 -2 -25 0 -7 3 -2 5 12 5 14 0 19 -2 13 -5z m-3425 -142 c-13 -21 -35 -56
-50 -77 -37 -53 -43 -100 -20 -155 34 -76 66 -98 163 -110 46 -6 118 -19 159
-29 41 -11 100 -21 130 -24 56 -5 63 -6 163 -26 33 -6 65 -9 73 -6 7 3 16 1
19 -4 3 -4 33 -9 68 -9 99 -1 268 -20 317 -35 25 -8 81 -17 125 -20 95 -7 142
-13 295 -33 290 -38 372 -50 401 -61 28 -11 132 -22 264 -27 50 -2 124 -8 165
-14 41 -6 125 -16 185 -21 61 -6 146 -17 190 -24 44 -8 145 -17 225 -21 275
-11 441 -23 448 -30 17 -19 -691 21 -1003 56 -49 5 -128 12 -175 15 -47 3
-109 9 -139 14 -30 6 -79 10 -109 10 -70 0 -260 18 -382 35 -52 8 -149 21
-215 30 -66 8 -165 22 -220 30 -55 8 -122 17 -150 21 -27 3 -61 8 -75 10 -14
2 -52 7 -85 10 -74 6 -83 7 -380 38 -290 31 -356 36 -461 37 l-82 1 -6 30
c-17 85 16 186 112 338 54 85 97 129 50 51z m1421 25 c-11 -9 -120 -16 -114
-6 3 5 31 10 62 10 31 0 54 -2 52 -4z m-170 -10 c-9 -9 -169 -14 -163 -5 3 5
42 9 86 9 45 0 79 -2 77 -4z m1688 -32 c-3 -3 -12 -4 -19 -1 -8 3 -5 6 6 6 11
1 17 -2 13 -5z m-2329 -51 c-10 -2 -26 -2 -35 0 -10 3 -2 5 17 5 19 0 27 -2
18 -5z m785 -140 c-7 -2 -19 -2 -25 0 -7 3 -2 5 12 5 14 0 19 -2 13 -5z m54 1
c-3 -3 -12 -4 -19 -1 -8 3 -5 6 6 6 11 1 17 -2 13 -5z m-760 -180 c-3 -3 -12
-4 -19 -1 -8 3 -5 6 6 6 11 1 17 -2 13 -5z m278 -9 c83 -3 263 -10 400 -15
138 -5 300 -12 360 -15 130 -6 274 -12 595 -25 129 -5 264 -12 300 -15 36 -2
153 -7 260 -10 182 -5 254 -8 455 -20 44 -3 148 -7 230 -10 261 -9 628 -25
690 -30 33 -2 148 -7 255 -10 107 -3 227 -8 265 -10 39 -3 192 -10 340 -15
250 -10 581 -23 835 -35 166 -7 322 -14 490 -20 85 -3 241 -10 345 -15 105 -5
269 -12 365 -16 96 -3 189 -7 205 -9 31 -3 208 -12 430 -20 72 -3 177 -7 235
-10 58 -3 164 -7 235 -10 72 -3 216 -10 320 -15 105 -5 253 -12 330 -15 376
-15 1080 -45 1170 -50 474 -28 495 -31 464 -62 -20 -20 8 -23 29 -3 30 28 39
25 34 -14 -2 -18 1 -44 8 -56 6 -12 10 -23 8 -25 -2 -1 -35 3 -75 10 -42 7
-97 10 -130 6 -55 -6 -138 6 -188 29 -63 28 -173 41 -470 55 -66 4 -127 8
-135 10 -8 2 -121 6 -250 10 -129 3 -271 8 -315 10 -44 2 -267 9 -495 15 -228
6 -481 15 -563 20 -81 6 -196 10 -255 10 -59 0 -174 7 -257 15 -82 8 -202 19
-265 25 -63 6 -137 15 -165 20 -56 10 -112 16 -235 25 -47 3 -110 8 -140 10
-30 2 -116 7 -190 10 -130 5 -174 8 -380 20 -52 3 -165 8 -250 11 -85 3 -252
9 -370 13 -118 5 -222 5 -230 1 -8 -5 -42 -1 -76 8 -72 19 -90 13 -109 -32
l-14 -34 -158 6 c-171 7 -540 4 -588 -4 -33 -5 -351 -18 -460 -19 -38 0 -124
4 -190 8 -66 4 -210 10 -320 12 -248 5 -380 12 -560 31 -77 7 -227 23 -333 33
-106 11 -196 22 -200 25 -7 4 -158 20 -302 32 -48 3 -174 20 -220 29 -29 5
-236 35 -350 49 -119 16 -173 22 -274 31 -32 3 -86 12 -120 20 -34 7 -96 17
-139 20 -42 4 -79 11 -82 15 -3 5 7 7 22 5 16 -2 96 -6 178 -10z m-650 -97
c33 -8 74 -13 90 -12 17 1 95 -5 175 -12 80 -7 177 -15 215 -19 39 -3 111 -12
160 -20 155 -24 189 -29 290 -39 111 -11 145 -16 225 -31 93 -17 139 -22 315
-35 77 -5 149 -12 160 -14 11 -2 72 -7 135 -10 63 -4 165 -13 225 -21 61 -8
151 -16 200 -20 50 -3 104 -7 120 -10 28 -4 284 -18 550 -30 61 -2 220 -7 354
-10 134 -3 247 -7 250 -9 4 -3 60 -7 126 -10 66 -4 152 -9 190 -12 72 -5 184
-9 640 -19 298 -7 310 -8 580 -30 110 -9 319 -19 465 -21 146 -2 315 -10 375
-18 61 -7 173 -14 250 -16 148 -2 149 -2 405 -19 91 -6 237 -13 325 -16 88 -3
194 -8 235 -10 41 -2 183 -7 315 -10 132 -3 254 -8 270 -10 17 -2 138 -7 270
-10 132 -3 283 -8 335 -10 91 -5 283 -11 680 -19 102 -2 232 -7 290 -11 58 -4
231 -8 385 -10 154 -2 382 -6 507 -10 138 -4 233 -3 244 3 25 14 73 -8 82 -38
10 -35 8 -461 -3 -670 -16 -317 -7 -2595 11 -2710 3 -19 5 -154 3 -300 -3
-331 -4 -1169 -1 -1605 1 -181 0 -368 -3 -415 -2 -47 -7 -346 -10 -665 -6
-707 -20 -1349 -29 -1364 -5 -9 -21 -393 -31 -736 -9 -348 -16 -507 -25 -600
-9 -85 -16 -257 -25 -550 -5 -148 -13 -363 -21 -540 -5 -107 -25 -339 -40
-465 -9 -77 -17 -963 -15 -1700 2 -607 -5 -941 -24 -1210 -4 -55 -15 -1119
-15 -1475 -1 -189 -1 -191 -25 -218 -15 -15 -40 -29 -62 -32 -21 -3 -46 -8
-55 -10 -26 -5 -117 9 -282 44 -165 35 -238 46 -366 56 -47 4 -87 9 -90 10 -3
2 -34 6 -70 9 -127 13 -236 28 -290 41 -30 7 -91 16 -135 20 -44 4 -102 11
-130 17 -103 20 -455 75 -840 132 -170 26 -350 53 -400 61 -49 8 -126 19 -170
26 -106 14 -115 17 -92 30 9 6 17 17 17 26 0 13 -7 10 -30 -12 -23 -22 -32
-26 -43 -17 -8 7 -16 9 -19 7 -3 -3 -45 2 -94 10 -49 9 -160 22 -247 30 -87 8
-195 21 -240 29 -124 22 -224 35 -312 41 -73 5 -242 21 -307 30 -15 2 -84 6
-154 10 -69 4 -136 8 -148 11 -11 2 -64 8 -116 14 -52 5 -144 17 -205 25 -214
30 -538 72 -625 81 -36 3 -68 8 -71 10 -3 2 -35 6 -70 10 -35 3 -67 11 -71 18
-6 8 -10 7 -17 -2 -6 -10 -21 -12 -52 -8 -24 3 -73 8 -109 11 -280 22 -597 56
-875 94 -121 16 -245 32 -275 35 -194 19 -450 47 -540 60 -58 8 -145 17 -195
21 -91 7 -145 15 -560 80 -520 81 -672 106 -790 130 -38 8 -124 24 -190 36
-66 11 -122 22 -125 24 -3 2 -59 8 -125 15 -66 6 -133 15 -150 20 -16 5 -113
21 -215 35 -102 15 -204 33 -226 42 -37 13 -104 69 -144 118 -12 16 -14 128
-16 764 -2 668 -7 986 -19 1121 -2 25 -7 144 -10 265 -4 121 -8 245 -10 275
-2 30 -7 111 -9 180 -10 236 -17 365 -26 505 -19 269 -22 417 -25 1305 -1 492
-6 996 -9 1120 -6 207 -21 444 -31 480 -5 21 -18 283 -31 625 -3 94 -8 490 -9
880 -3 672 -7 834 -21 984 -3 35 -7 206 -9 380 -2 174 -6 402 -9 506 -4 105
-9 280 -11 390 -3 110 -7 250 -9 310 -3 61 -8 247 -11 415 -3 168 -7 341 -10
385 -3 44 -7 264 -10 489 -3 225 -8 413 -11 418 -3 4 -7 160 -9 346 -3 185 -7
355 -9 377 -3 22 -8 204 -11 405 -9 653 -18 864 -41 1035 -2 17 -7 98 -10 180
-2 83 -6 173 -7 201 l-3 51 226 -3 c140 -2 248 -8 285 -16z m5330 -183 c105
-4 296 -8 425 -10 129 -3 267 -7 305 -9 39 -3 126 -8 195 -11 214 -10 277 -16
495 -46 39 -5 93 -11 120 -14 28 -3 73 -7 100 -10 105 -10 334 -26 435 -30
130 -6 323 -13 540 -20 91 -3 192 -8 225 -11 60 -4 147 -8 450 -19 88 -4 176
-8 195 -9 19 -2 130 -7 245 -11 241 -8 249 -9 525 -24 113 -7 216 -16 230 -20
25 -9 102 -30 130 -35 8 -2 22 -6 30 -9 8 -3 68 -8 133 -10 74 -3 123 -9 130
-17 9 -9 -25 -10 -158 -5 -93 3 -231 8 -305 10 -74 3 -182 12 -240 20 -155 22
-169 24 -370 41 -333 28 -424 33 -530 34 -58 0 -157 7 -220 14 -132 17 -252
22 -268 12 -18 -11 -967 4 -1207 19 -427 28 -518 36 -654 61 -75 13 -197 28
-271 33 -74 5 -142 10 -150 10 -8 1 -136 3 -285 6 -372 7 -765 32 -783 50 -23
22 96 24 533 10z m-770 -50 c126 -6 174 -11 187 -22 13 -12 21 -12 38 -3 13 7
37 9 59 5 20 -4 68 -9 106 -11 39 -2 109 -6 158 -8 48 -3 91 -7 96 -10 5 -3
89 -5 187 -5 351 2 471 0 497 -10 15 -6 61 -9 102 -7 53 3 75 1 75 -7 0 -8 3
-8 9 1 7 11 41 8 188 -17 175 -29 266 -39 598 -62 249 -17 726 -32 1100 -34
303 -2 446 -7 525 -20 14 -2 122 -7 240 -10 211 -6 296 -12 286 -22 -4 -4
-234 -3 -376 2 -307 11 -484 16 -765 20 -181 4 -355 8 -385 10 -30 2 -149 6
-265 10 -366 9 -1003 42 -1440 75 -71 5 -260 14 -420 20 -159 6 -366 17 -460
25 -200 16 -401 25 -725 30 -303 5 -537 18 -549 31 -2 2 18 4 45 4 115 0 576
18 580 23 3 3 121 0 309 -8z m-1422 -2 c-7 -2 -19 -2 -25 0 -7 3 -2 5 12 5 14
0 19 -2 13 -5z m407 -13 c53 -6 23 -7 -101 -3 -97 3 -192 9 -210 14 -41 10
201 1 311 -11z m6757 -152 c-3 -8 -6 -5 -6 6 -1 11 2 17 5 13 3 -3 4 -12 1
-19z m-1199 -85 c-10 -2 -26 -2 -35 0 -10 3 -2 5 17 5 19 0 27 -2 18 -5z m49
1 c-3 -3 -12 -4 -19 -1 -8 3 -5 6 6 6 11 1 17 -2 13 -5z"/>
<path d="M7146 17481 c-4 -5 -2 -12 3 -15 5 -4 12 -2 15 3 4 5 2 12 -3 15 -5
4 -12 2 -15 -3z"/>
<path d="M10950 16860 c0 -5 5 -10 10 -10 6 0 10 5 10 10 0 6 -4 10 -10 10 -5
0 -10 -4 -10 -10z"/>
<path d="M9958 16683 c7 -3 16 -2 19 1 4 3 -2 6 -13 5 -11 0 -14 -3 -6 -6z"/>
<path d="M5130 16596 c0 -8 7 -16 15 -20 17 -6 18 -4 9 18 -8 20 -24 21 -24 2z"/>
<path d="M5990 16500 c0 -5 9 -10 21 -10 11 0 17 5 14 10 -3 6 -13 10 -21 10
-8 0 -14 -4 -14 -10z"/>
<path d="M7707 16495 c-4 -8 -2 -17 3 -20 6 -4 10 3 10 14 0 25 -6 27 -13 6z"/>
<path d="M8370 16481 c0 -12 6 -21 15 -21 8 0 15 4 15 9 0 5 -7 14 -15 21 -13
10 -15 9 -15 -9z"/>
<path d="M2780 16421 c0 -5 5 -13 10 -16 6 -3 10 -2 10 4 0 5 -4 13 -10 16 -5
3 -10 2 -10 -4z"/>
<path d="M3005 16420 c-8 -13 15 -24 27 -12 6 6 4 11 -6 15 -8 3 -18 2 -21 -3z"/>
<path d="M2890 16410 c0 -5 5 -10 10 -10 6 0 10 5 10 10 0 6 -4 10 -10 10 -5
0 -10 -4 -10 -10z"/>
<path d="M5411 16393 c-1 -18 4 -33 9 -33 12 0 12 17 0 45 -7 17 -9 15 -9 -12z"/>
<path d="M4410 16390 c0 -5 5 -10 10 -10 6 0 10 5 10 10 0 6 -4 10 -10 10 -5
0 -10 -4 -10 -10z"/>
<path d="M5286 16393 c-9 -9 -7 -33 3 -33 12 0 22 28 12 34 -5 3 -11 3 -15 -1z"/>
<path d="M4995 16380 c3 -5 8 -10 11 -10 2 0 4 5 4 10 0 6 -5 10 -11 10 -5 0
-7 -4 -4 -10z"/>
<path d="M5585 16370 c3 -5 8 -10 11 -10 2 0 4 5 4 10 0 6 -5 10 -11 10 -5 0
-7 -4 -4 -10z"/>
<path d="M5845 16360 c3 -5 10 -10 16 -10 5 0 9 5 9 10 0 6 -7 10 -16 10 -8 0
-12 -4 -9 -10z"/>
<path d="M6300 16359 c0 -5 5 -7 10 -4 6 3 10 8 10 11 0 2 -4 4 -10 4 -5 0
-10 -5 -10 -11z"/>
<path d="M7993 16345 c13 -27 27 -33 27 -12 0 14 -19 37 -31 37 -4 0 -2 -11 4
-25z"/>
<path d="M8375 16350 c-9 -14 10 -36 35 -43 28 -7 25 14 -5 36 -15 11 -26 13
-30 7z"/>
<path d="M8110 16331 c0 -11 4 -21 9 -21 18 0 21 18 6 30 -13 10 -15 9 -15 -9z"/>
<path d="M7439 16331 c12 -8 51 -4 51 5 0 2 -15 4 -32 4 -23 0 -29 -3 -19 -9z"/>
<path d="M10090 16305 c0 -18 5 -25 19 -25 30 0 32 13 5 33 -24 18 -24 18 -24
-8z"/>
<path d="M2855 16310 c3 -5 8 -10 11 -10 2 0 4 5 4 10 0 6 -5 10 -11 10 -5 0
-7 -4 -4 -10z"/>
<path d="M10785 16289 c-10 -15 3 -25 16 -12 7 7 7 13 1 17 -6 3 -14 1 -17 -5z"/>
<path d="M5114 16265 c3 -20 13 -28 26 -20 8 5 8 11 -1 21 -15 18 -28 18 -25
-1z"/>
<path d="M5245 16250 c-3 -5 -1 -10 4 -10 6 0 11 5 11 10 0 6 -2 10 -4 10 -3
0 -8 -4 -11 -10z"/>
<path d="M6120 16235 c0 -8 7 -15 15 -15 8 0 15 4 15 9 0 5 -7 11 -15 15 -9 3
-15 0 -15 -9z"/>
<path d="M6612 16221 c2 -7 7 -12 11 -12 12 1 9 15 -3 20 -7 2 -11 -2 -8 -8z"/>
<path d="M4166 16201 c-3 -5 1 -11 9 -15 8 -3 15 -1 15 4 0 13 -18 22 -24 11z"/>
<path d="M7840 16179 c0 -5 9 -9 20 -9 11 0 20 2 20 4 0 2 -9 6 -20 9 -11 3
-20 1 -20 -4z"/>
<path d="M4755 16170 c3 -5 8 -10 11 -10 2 0 4 5 4 10 0 6 -5 10 -11 10 -5 0
-7 -4 -4 -10z"/>
<path d="M5170 16153 c0 -21 3 -24 9 -14 5 8 7 20 4 28 -8 21 -13 15 -13 -14z"/>
<path d="M7760 16043 c0 -11 7 -27 16 -34 15 -12 16 -11 9 11 -10 35 -25 49
-25 23z"/>
<path d="M8155 16000 c-3 -5 1 -10 9 -10 9 0 16 5 16 10 0 6 -4 10 -9 10 -6 0
-13 -4 -16 -10z"/>
<path d="M5350 15991 c0 -6 5 -13 10 -16 6 -3 10 1 10 9 0 9 -4 16 -10 16 -5
0 -10 -4 -10 -9z"/>
<path d="M5710 15976 c0 -9 5 -16 10 -16 6 0 10 4 10 9 0 6 -4 13 -10 16 -5 3
-10 -1 -10 -9z"/>
<path d="M9845 15920 c3 -5 16 -10 28 -10 18 0 19 2 7 10 -20 13 -43 13 -35 0z"/>
<path d="M6860 15459 c0 -5 5 -7 10 -4 6 3 10 8 10 11 0 2 -4 4 -10 4 -5 0
-10 -5 -10 -11z"/>
<path d="M10848 18303 c7 -3 16 -2 19 1 4 3 -2 6 -13 5 -11 0 -14 -3 -6 -6z"/>
<path d="M10788 18293 c7 -3 16 -2 19 1 4 3 -2 6 -13 5 -11 0 -14 -3 -6 -6z"/>
<path d="M10448 18253 c6 -2 18 -2 25 0 6 3 1 5 -13 5 -14 0 -19 -2 -12 -5z"/>
<path d="M10363 18243 c9 -2 25 -2 35 0 9 3 1 5 -18 5 -19 0 -27 -2 -17 -5z"/>
<path d="M10288 18233 c6 -2 18 -2 25 0 6 3 1 5 -13 5 -14 0 -19 -2 -12 -5z"/>
<path d="M10113 18213 c9 -2 23 -2 30 0 6 3 -1 5 -18 5 -16 0 -22 -2 -12 -5z"/>
<path d="M10018 18203 c6 -2 18 -2 25 0 6 3 1 5 -13 5 -14 0 -19 -2 -12 -5z"/>
<path d="M9933 18193 c9 -2 23 -2 30 0 6 3 -1 5 -18 5 -16 0 -22 -2 -12 -5z"/>
<path d="M9843 18183 c9 -2 23 -2 30 0 6 3 -1 5 -18 5 -16 0 -22 -2 -12 -5z"/>
<path d="M9753 18173 c9 -2 25 -2 35 0 9 3 1 5 -18 5 -19 0 -27 -2 -17 -5z"/>
<path d="M9653 18163 c9 -2 23 -2 30 0 6 3 -1 5 -18 5 -16 0 -22 -2 -12 -5z"/>
<path d="M9558 18153 c6 -2 18 -2 25 0 6 3 1 5 -13 5 -14 0 -19 -2 -12 -5z"/>
<path d="M9473 18143 c9 -2 23 -2 30 0 6 3 -1 5 -18 5 -16 0 -22 -2 -12 -5z"/>
<path d="M9408 18133 c6 -2 18 -2 25 0 6 3 1 5 -13 5 -14 0 -19 -2 -12 -5z"/>
<path d="M9338 18123 c6 -2 18 -2 25 0 6 3 1 5 -13 5 -14 0 -19 -2 -12 -5z"/>
<path d="M9268 18113 c7 -3 16 -2 19 1 4 3 -2 6 -13 5 -11 0 -14 -3 -6 -6z"/>
<path d="M9193 18103 c9 -2 23 -2 30 0 6 3 -1 5 -18 5 -16 0 -22 -2 -12 -5z"/>
<path d="M9123 18093 c9 -2 23 -2 30 0 6 3 -1 5 -18 5 -16 0 -22 -2 -12 -5z"/>
<path d="M9048 18083 c6 -2 18 -2 25 0 6 3 1 5 -13 5 -14 0 -19 -2 -12 -5z"/>
<path d="M8973 18073 c9 -2 23 -2 30 0 6 3 -1 5 -18 5 -16 0 -22 -2 -12 -5z"/>
<path d="M8893 18063 c9 -2 23 -2 30 0 6 3 -1 5 -18 5 -16 0 -22 -2 -12 -5z"/>
<path d="M8803 18053 c9 -2 25 -2 35 0 9 3 1 5 -18 5 -19 0 -27 -2 -17 -5z"/>
<path d="M8708 18043 c6 -2 18 -2 25 0 6 3 1 5 -13 5 -14 0 -19 -2 -12 -5z"/>
<path d="M8623 18033 c9 -2 25 -2 35 0 9 3 1 5 -18 5 -19 0 -27 -2 -17 -5z"/>
<path d="M8358 18003 c12 -2 30 -2 40 0 9 3 -1 5 -23 4 -22 0 -30 -2 -17 -4z"/>
<path d="M8278 17993 c12 -2 30 -2 40 0 9 3 -1 5 -23 4 -22 0 -30 -2 -17 -4z"/>
<path d="M8173 17983 c9 -2 25 -2 35 0 9 3 1 5 -18 5 -19 0 -27 -2 -17 -5z"/>
<path d="M8073 17973 c9 -2 25 -2 35 0 9 3 1 5 -18 5 -19 0 -27 -2 -17 -5z"/>
<path d="M7988 17963 c12 -2 30 -2 40 0 9 3 -1 5 -23 4 -22 0 -30 -2 -17 -4z"/>
<path d="M7888 17953 c12 -2 30 -2 40 0 9 3 -1 5 -23 4 -22 0 -30 -2 -17 -4z"/>
<path d="M7788 17943 c12 -2 30 -2 40 0 9 3 -1 5 -23 4 -22 0 -30 -2 -17 -4z"/>
<path d="M7708 17933 c12 -2 30 -2 40 0 9 3 -1 5 -23 4 -22 0 -30 -2 -17 -4z"/>
<path d="M7618 17923 c12 -2 30 -2 40 0 9 3 -1 5 -23 4 -22 0 -30 -2 -17 -4z"/>
<path d="M7543 17913 c9 -2 25 -2 35 0 9 3 1 5 -18 5 -19 0 -27 -2 -17 -5z"/>
<path d="M7415 17900 c-13 -6 -2 -7 30 -3 28 3 52 7 54 9 9 8 -65 2 -84 -6z"/>
<path d="M7333 17883 c9 -2 23 -2 30 0 6 3 -1 5 -18 5 -16 0 -22 -2 -12 -5z"/>
<path d="M7263 17873 c9 -2 23 -2 30 0 6 3 -1 5 -18 5 -16 0 -22 -2 -12 -5z"/>
<path d="M7183 17863 c9 -2 25 -2 35 0 9 3 1 5 -18 5 -19 0 -27 -2 -17 -5z"/>
<path d="M7103 17853 c9 -2 25 -2 35 0 9 3 1 5 -18 5 -19 0 -27 -2 -17 -5z"/>
<path d="M7033 17843 c9 -2 23 -2 30 0 6 3 -1 5 -18 5 -16 0 -22 -2 -12 -5z"/>
<path d="M6948 17833 c6 -2 18 -2 25 0 6 3 1 5 -13 5 -14 0 -19 -2 -12 -5z"/>
<path d="M6868 17823 c7 -3 16 -2 19 1 4 3 -2 6 -13 5 -11 0 -14 -3 -6 -6z"/>
<path d="M6793 17813 c9 -2 23 -2 30 0 6 3 -1 5 -18 5 -16 0 -22 -2 -12 -5z"/>
<path d="M6713 17803 c9 -2 23 -2 30 0 6 3 -1 5 -18 5 -16 0 -22 -2 -12 -5z"/>
<path d="M6633 17793 c9 -2 23 -2 30 0 6 3 -1 5 -18 5 -16 0 -22 -2 -12 -5z"/>
<path d="M6563 17783 c9 -2 23 -2 30 0 6 3 -1 5 -18 5 -16 0 -22 -2 -12 -5z"/>
<path d="M6498 17773 c6 -2 18 -2 25 0 6 3 1 5 -13 5 -14 0 -19 -2 -12 -5z"/>
<path d="M6423 17763 c9 -2 23 -2 30 0 6 3 -1 5 -18 5 -16 0 -22 -2 -12 -5z"/>
<path d="M6353 17753 c9 -2 25 -2 35 0 9 3 1 5 -18 5 -19 0 -27 -2 -17 -5z"/>
<path d="M6283 17743 c9 -2 23 -2 30 0 6 3 -1 5 -18 5 -16 0 -22 -2 -12 -5z"/>
<path d="M6213 17733 c9 -2 23 -2 30 0 6 3 -1 5 -18 5 -16 0 -22 -2 -12 -5z"/>
<path d="M6123 17723 c9 -2 25 -2 35 0 9 3 1 5 -18 5 -19 0 -27 -2 -17 -5z"/>
<path d="M6053 17713 c9 -2 25 -2 35 0 9 3 1 5 -18 5 -19 0 -27 -2 -17 -5z"/>
<path d="M5953 17703 c9 -2 25 -2 35 0 9 3 1 5 -18 5 -19 0 -27 -2 -17 -5z"/>
<path d="M5873 17693 c9 -2 25 -2 35 0 9 3 1 5 -18 5 -19 0 -27 -2 -17 -5z"/>
<path d="M5798 17683 c6 -2 18 -2 25 0 6 3 1 5 -13 5 -14 0 -19 -2 -12 -5z"/>
<path d="M5723 17673 c9 -2 25 -2 35 0 9 3 1 5 -18 5 -19 0 -27 -2 -17 -5z"/>
<path d="M5638 17663 c12 -2 30 -2 40 0 9 3 -1 5 -23 4 -22 0 -30 -2 -17 -4z"/>
<path d="M5543 17653 c9 -2 25 -2 35 0 9 3 1 5 -18 5 -19 0 -27 -2 -17 -5z"/>
<path d="M5453 17643 c9 -2 25 -2 35 0 9 3 1 5 -18 5 -19 0 -27 -2 -17 -5z"/>
<path d="M5363 17633 c9 -2 25 -2 35 0 9 3 1 5 -18 5 -19 0 -27 -2 -17 -5z"/>
<path d="M5288 17623 c12 -2 30 -2 40 0 9 3 -1 5 -23 4 -22 0 -30 -2 -17 -4z"/>
<path d="M5203 17613 c9 -2 25 -2 35 0 9 3 1 5 -18 5 -19 0 -27 -2 -17 -5z"/>
<path d="M5123 17603 c9 -2 25 -2 35 0 9 3 1 5 -18 5 -19 0 -27 -2 -17 -5z"/>
<path d="M5008 17593 c17 -2 47 -2 65 0 17 2 3 4 -33 4 -36 0 -50 -2 -32 -4z"/>
<path d="M4863 17583 c15 -2 37 -2 50 0 12 2 0 4 -28 4 -27 0 -38 -2 -22 -4z"/>
<path d="M4733 17573 c15 -2 39 -2 55 0 15 2 2 4 -28 4 -30 0 -43 -2 -27 -4z"/>
<path d="M4567 17563 c18 -2 50 -2 70 0 21 2 7 4 -32 4 -38 0 -55 -2 -38 -4z"/>
<path d="M4443 17553 c15 -2 37 -2 50 0 12 2 0 4 -28 4 -27 0 -38 -2 -22 -4z"/>
<path d="M4328 17543 c12 -2 30 -2 40 0 9 3 -1 5 -23 4 -22 0 -30 -2 -17 -4z"/>
<path d="M4228 17533 c12 -2 30 -2 40 0 9 3 -1 5 -23 4 -22 0 -30 -2 -17 -4z"/>
<path d="M4123 17523 c9 -2 23 -2 30 0 6 3 -1 5 -18 5 -16 0 -22 -2 -12 -5z"/>
<path d="M4033 17513 c9 -2 25 -2 35 0 9 3 1 5 -18 5 -19 0 -27 -2 -17 -5z"/>
<path d="M3948 17503 c6 -2 18 -2 25 0 6 3 1 5 -13 5 -14 0 -19 -2 -12 -5z"/>
<path d="M3868 17493 c6 -2 18 -2 25 0 6 3 1 5 -13 5 -14 0 -19 -2 -12 -5z"/>
<path d="M3788 17483 c6 -2 18 -2 25 0 6 3 1 5 -13 5 -14 0 -19 -2 -12 -5z"/>
<path d="M3728 17473 c7 -3 16 -2 19 1 4 3 -2 6 -13 5 -11 0 -14 -3 -6 -6z"/>
<path d="M3663 17463 c9 -2 23 -2 30 0 6 3 -1 5 -18 5 -16 0 -22 -2 -12 -5z"/>
<path d="M3603 17453 c9 -2 23 -2 30 0 6 3 -1 5 -18 5 -16 0 -22 -2 -12 -5z"/>
<path d="M3538 17443 c6 -2 18 -2 25 0 6 3 1 5 -13 5 -14 0 -19 -2 -12 -5z"/>
<path d="M3478 17433 c6 -2 18 -2 25 0 6 3 1 5 -13 5 -14 0 -19 -2 -12 -5z"/>
<path d="M3418 17423 c6 -2 18 -2 25 0 6 3 1 5 -13 5 -14 0 -19 -2 -12 -5z"/>
<path d="M3298 17403 c7 -3 16 -2 19 1 4 3 -2 6 -13 5 -11 0 -14 -3 -6 -6z"/>
<path d="M3178 17383 c7 -3 16 -2 19 1 4 3 -2 6 -13 5 -11 0 -14 -3 -6 -6z"/>
<path d="M3108 17373 c6 -2 18 -2 25 0 6 3 1 5 -13 5 -14 0 -19 -2 -12 -5z"/>
<path d="M3038 17363 c6 -2 18 -2 25 0 6 3 1 5 -13 5 -14 0 -19 -2 -12 -5z"/>
<path d="M2968 17353 c6 -2 18 -2 25 0 6 3 1 5 -13 5 -14 0 -19 -2 -12 -5z"/>
<path d="M2898 17343 c6 -2 18 -2 25 0 6 3 1 5 -13 5 -14 0 -19 -2 -12 -5z"/>
<path d="M2828 17333 c6 -2 18 -2 25 0 6 3 1 5 -13 5 -14 0 -19 -2 -12 -5z"/>
<path d="M2768 17323 c7 -3 16 -2 19 1 4 3 -2 6 -13 5 -11 0 -14 -3 -6 -6z"/>
<path d="M2708 17313 c7 -3 16 -2 19 1 4 3 -2 6 -13 5 -11 0 -14 -3 -6 -6z"/>
<path d="M2628 17303 c7 -3 16 -2 19 1 4 3 -2 6 -13 5 -11 0 -14 -3 -6 -6z"/>
<path d="M2538 17293 c6 -2 18 -2 25 0 6 3 1 5 -13 5 -14 0 -19 -2 -12 -5z"/>
<path d="M2453 17283 c9 -2 23 -2 30 0 6 3 -1 5 -18 5 -16 0 -22 -2 -12 -5z"/>
<path d="M2388 17273 c6 -2 18 -2 25 0 6 3 1 5 -13 5 -14 0 -19 -2 -12 -5z"/>
<path d="M2318 17263 c7 -3 16 -2 19 1 4 3 -2 6 -13 5 -11 0 -14 -3 -6 -6z"/>
<path d="M2088 17233 c7 -3 16 -2 19 1 4 3 -2 6 -13 5 -11 0 -14 -3 -6 -6z"/>
<path d="M1968 17213 c7 -3 16 -2 19 1 4 3 -2 6 -13 5 -11 0 -14 -3 -6 -6z"/>
<path d="M1698 17173 c7 -3 16 -2 19 1 4 3 -2 6 -13 5 -11 0 -14 -3 -6 -6z"/>
<path d="M1188 17083 c7 -3 16 -2 19 1 4 3 -2 6 -13 5 -11 0 -14 -3 -6 -6z"/>
</g>
</svg>
