<?xml version="1.0" standalone="no"?>
<!DOCTYPE svg PUBLIC "-//W3C//DTD SVG 20010904//EN"
 "http://www.w3.org/TR/2001/REC-SVG-20010904/DTD/svg10.dtd">
<svg version="1.0" xmlns="http://www.w3.org/2000/svg"
 width="1441.000000pt" height="2044.000000pt" viewBox="0 0 1441.000000 2044.000000"
 preserveAspectRatio="xMidYMid meet">

<g transform="translate(0.000000,2044.000000) scale(0.100000,-0.100000)"
fill="#000000" stroke="none">
<path d="M3035 20288 c-177 -23 -220 -59 -231 -198 -2 -25 -8 -65 -13 -90 -5
-25 -13 -74 -16 -110 -3 -36 -20 -159 -36 -274 -23 -156 -27 -211 -18 -216 8
-6 8 -9 -1 -12 -12 -4 -28 -82 -60 -295 -33 -220 -35 -236 -35 -288 0 -27 -4
-53 -9 -56 -8 -7 -18 -51 -36 -174 -5 -33 -18 -100 -29 -150 -34 -148 -84
-533 -85 -658 -1 -31 -4 -57 -7 -57 -9 0 -24 -145 -21 -195 2 -30 0 -36 -7
-25 -9 12 -11 11 -11 -7 0 -12 -3 -29 -7 -39 -4 -12 -3 -15 5 -10 9 5 10 1 3
-16 -4 -13 -6 -29 -3 -37 3 -8 0 -11 -7 -7 -8 5 -11 -8 -11 -43 0 -68 17 -73
25 -9 3 29 10 76 16 103 5 28 11 66 14 85 21 152 51 390 59 460 3 25 10 93 16
151 6 58 22 157 35 220 13 62 21 117 19 121 -3 5 0 8 6 8 6 0 9 4 6 9 -3 4 -1
22 3 39 6 20 5 34 -2 42 -9 10 -9 11 -1 7 17 -10 25 31 80 408 14 94 29 190
33 215 5 25 16 92 25 150 9 58 21 132 26 165 10 63 15 104 30 225 5 41 14 109
20 150 6 41 12 93 14 115 4 38 7 50 23 93 3 9 8 31 10 47 6 50 50 79 140 93
188 29 513 30 733 2 47 -6 119 -13 160 -16 41 -2 120 -11 176 -19 55 -8 161
-16 235 -17 74 -1 152 -5 174 -9 22 -4 72 -10 110 -14 39 -3 107 -13 152 -21
44 -8 134 -16 200 -19 65 -2 168 -7 228 -10 61 -4 157 -8 215 -11 58 -2 110
-5 115 -5 6 0 91 0 190 1 99 2 214 -2 255 -8 41 -5 82 -10 90 -10 8 -1 42 -3
75 -6 65 -6 332 -22 510 -31 61 -4 133 -8 160 -11 47 -5 233 -7 1395 -19 250
-3 500 -9 555 -13 134 -10 1513 -9 1740 2 99 4 209 8 245 9 132 3 827 -15
1175 -30 77 -3 196 -7 265 -8 131 -3 308 -13 350 -21 14 -2 138 -6 275 -9 138
-3 295 -10 350 -17 55 -6 138 -13 185 -14 86 -3 219 -12 275 -19 17 -2 73 -7
125 -10 54 -4 104 -13 117 -21 12 -8 28 -14 35 -14 11 0 13 -37 12 -172 -2
-220 -13 -534 -21 -618 -8 -89 -8 -88 -21 -150 -6 -30 -14 -91 -17 -135 -3
-44 -12 -120 -20 -170 -8 -49 -23 -151 -34 -225 -11 -74 -29 -189 -40 -255
-34 -202 -60 -431 -71 -635 -6 -107 -18 -258 -25 -335 -8 -77 -16 -183 -18
-235 -3 -52 -12 -144 -21 -205 -9 -60 -30 -200 -47 -310 -42 -278 -47 -318
-54 -420 -7 -103 -50 -515 -65 -620 -15 -110 -38 -378 -55 -650 -9 -137 -17
-266 -20 -285 -2 -19 -7 -71 -10 -115 -3 -44 -8 -91 -10 -105 -10 -51 -36
-299 -45 -420 -5 -69 -12 -134 -14 -145 -3 -11 -12 -119 -21 -240 -9 -121 -22
-251 -31 -290 -8 -38 -16 -97 -19 -130 -3 -33 -19 -148 -35 -255 -16 -107 -34
-231 -40 -275 -5 -44 -14 -114 -19 -155 -6 -41 -15 -124 -21 -185 -6 -60 -15
-148 -20 -195 -17 -148 -20 -218 -25 -515 -6 -321 -27 -627 -55 -810 -27 -175
-49 -399 -55 -570 -2 -82 -9 -179 -14 -215 -16 -113 -41 -254 -51 -295 -41
-173 -51 -228 -56 -327 -7 -145 -17 -243 -48 -453 -28 -196 -42 -310 -56 -485
-34 -402 -45 -501 -70 -635 -15 -80 -24 -138 -44 -270 -9 -60 -26 -166 -37
-235 -11 -69 -22 -141 -24 -160 -3 -19 -9 -71 -15 -115 -47 -356 -49 -386 -55
-645 -4 -182 -17 -367 -30 -410 -8 -27 -28 -198 -40 -335 -3 -38 -8 -95 -10
-125 -3 -30 -9 -91 -15 -135 -5 -44 -11 -100 -14 -125 -2 -25 -11 -90 -20
-145 -36 -233 -56 -374 -61 -430 -14 -144 -26 -325 -35 -525 -6 -135 -15 -235
-25 -270 -9 -33 -17 -119 -21 -215 -7 -192 -22 -488 -28 -530 -2 -16 -7 -57
-10 -90 -4 -33 -13 -100 -21 -150 -8 -49 -16 -110 -19 -135 -3 -25 -10 -72
-17 -105 -6 -33 -15 -91 -19 -130 -14 -119 -61 -398 -75 -445 -8 -25 -19 -78
-26 -118 -7 -40 -18 -80 -24 -89 -11 -14 -13 -13 -18 8 -5 18 -19 29 -54 42
-70 24 -296 54 -463 62 -80 4 -199 15 -265 25 -66 10 -169 22 -230 26 -60 4
-112 8 -115 9 -3 1 -50 5 -105 9 -55 4 -116 12 -135 17 -19 4 -154 11 -300 13
-256 5 -533 21 -551 32 -5 3 -9 0 -9 -7 0 -8 -4 -8 -13 -1 -7 6 -33 9 -57 7
-26 -2 -48 2 -52 8 -5 8 -10 9 -17 2 -6 -6 -30 -9 -53 -6 -32 3 -38 6 -23 11
11 4 -27 8 -85 8 -58 1 -116 4 -130 7 -51 11 -107 16 -187 15 -46 0 -83 4 -83
9 0 5 -27 8 -60 7 -36 -1 -60 2 -60 9 0 5 -4 4 -9 -4 -7 -11 -9 -11 -14 0 -4
11 -6 11 -6 1 -1 -9 -6 -10 -20 -2 -11 5 -22 6 -25 2 -3 -5 -19 -7 -35 -4 -17
2 -28 8 -25 13 3 5 0 9 -5 9 -6 0 -11 -4 -11 -8 0 -5 -7 -9 -15 -9 -8 0 -12 4
-9 9 3 4 -10 8 -29 8 -37 0 -246 28 -256 34 -3 3 -54 9 -111 15 -58 7 -139 16
-180 21 -41 5 -115 14 -165 19 -49 6 -110 13 -135 16 -247 30 -303 36 -355 40
-93 7 -356 38 -425 49 -14 3 -50 8 -80 11 -30 3 -93 11 -140 16 -47 5 -141 13
-210 18 -69 5 -213 17 -320 25 -107 9 -242 18 -300 21 -58 3 -125 7 -150 10
-25 2 -139 7 -255 10 -258 6 -559 22 -725 37 -69 6 -153 11 -187 11 -38 0 -63
5 -63 11 0 6 -5 4 -10 -4 -5 -8 -10 -10 -10 -4 0 6 -18 9 -47 7 -30 -3 -49 1
-55 9 -6 11 -10 10 -17 -1 -7 -11 -15 -11 -44 -2 -19 7 -61 13 -93 15 -232 15
-280 19 -287 23 -4 2 -39 4 -77 4 -39 0 -70 3 -70 7 0 4 -30 7 -67 7 -87 0
-305 15 -316 22 -8 4 -212 17 -552 33 -148 7 -253 17 -345 34 -14 2 -43 7 -66
10 -22 3 -88 15 -145 26 -57 12 -131 26 -164 31 -102 15 -357 48 -417 55 -32
4 -58 10 -58 14 0 4 -11 5 -25 2 -27 -5 -305 24 -375 39 -25 6 -58 13 -75 16
-53 10 -559 12 -605 3 -25 -5 -91 -12 -148 -16 -83 -5 -102 -3 -100 8 2 8 -8
14 -26 16 -23 3 -28 0 -22 -13 4 -12 -3 -20 -29 -31 -58 -24 -68 -20 -61 23 4
21 9 83 11 138 3 55 13 132 22 170 8 39 17 81 19 95 2 14 6 36 9 50 2 14 15
120 29 235 45 383 54 450 60 465 6 16 34 220 42 305 24 255 36 369 45 420 5
33 12 78 14 100 3 22 12 78 20 125 8 47 19 119 25 160 5 41 14 104 20 140 11
77 27 216 35 315 3 39 8 81 10 95 2 14 9 70 15 125 6 55 13 120 16 145 4 25 8
59 9 75 2 17 4 30 5 30 1 0 4 16 6 35 14 144 49 398 70 510 34 186 51 287 69
414 8 59 18 119 21 131 3 13 7 43 8 67 2 23 6 50 9 58 3 8 8 31 10 50 5 37 13
79 22 120 6 31 34 203 40 250 6 41 16 94 45 240 11 58 23 116 26 130 8 45 43
213 59 285 9 39 20 95 25 125 5 30 16 94 25 142 19 105 27 238 30 493 2 166
14 292 40 410 29 131 56 255 60 275 2 14 11 57 20 95 8 39 26 124 39 190 32
156 63 301 76 345 5 19 12 49 15 65 2 17 9 53 14 80 5 28 15 86 21 130 6 44
18 107 25 140 18 74 26 118 32 170 2 22 7 47 10 55 3 8 7 26 9 40 2 14 8 52
14 85 6 33 12 83 15 110 2 28 9 70 15 95 6 24 10 58 9 75 -2 29 3 63 21 155
17 84 19 110 7 110 -9 0 -9 2 0 8 6 4 13 27 16 52 3 25 10 65 16 90 30 130 40
184 35 192 -3 5 -1 14 4 21 5 7 13 39 17 71 4 33 11 70 16 84 5 13 16 85 25
160 8 75 17 148 20 162 13 72 26 164 33 236 4 44 11 86 15 93 4 6 3 17 -2 24
-11 13 -18 152 -9 177 9 26 35 161 47 240 33 240 41 291 53 345 7 33 16 67 20
75 7 18 26 159 33 245 4 59 19 186 31 275 10 76 12 93 18 160 3 36 8 76 10 90
3 14 7 50 10 80 2 30 9 89 16 130 6 41 13 118 16 170 8 144 22 298 34 365 8
45 8 60 -1 63 -8 3 -9 7 -2 11 6 4 15 33 21 66 5 33 18 112 29 175 11 63 23
138 26 165 10 88 17 140 20 155 9 49 18 112 22 160 4 56 16 143 32 240 43 253
74 489 76 578 0 31 5 60 9 63 4 3 10 28 13 55 3 27 7 55 9 62 3 8 0 12 -7 10
-15 -5 -40 -124 -32 -151 3 -10 0 -24 -6 -32 -6 -8 -10 -22 -8 -32 1 -10 -1
-24 -5 -30 -5 -8 -3 -13 4 -13 7 0 5 -8 -6 -20 -15 -16 -16 -25 -7 -44 8 -19
8 -26 -1 -30 -9 -3 -8 -5 1 -5 11 -1 10 -4 -1 -16 -16 -16 -33 -147 -22 -165
4 -6 2 -16 -3 -23 -17 -21 -34 -121 -36 -205 -1 -23 -4 -42 -7 -42 -3 0 -13
-55 -22 -122 -9 -68 -26 -194 -38 -281 -11 -87 -18 -164 -16 -172 3 -7 3 -15
-1 -17 -14 -6 -58 -273 -77 -463 -3 -27 -7 -72 -10 -100 -3 -27 -10 -106 -15
-175 -13 -158 -19 -210 -24 -219 -3 -4 -8 -41 -11 -82 -3 -41 -8 -85 -11 -99
-2 -14 -9 -70 -14 -125 -5 -55 -12 -118 -14 -140 -7 -55 -23 -204 -41 -360 -7
-72 -26 -184 -40 -249 -15 -65 -25 -126 -22 -137 3 -10 1 -17 -4 -13 -5 3 -9
-1 -9 -9 0 -41 -34 -272 -50 -342 -16 -68 -21 -195 -11 -260 3 -14 -8 -108
-20 -183 -5 -34 -7 -68 -3 -74 4 -7 3 -8 -4 -4 -11 7 -17 -25 -14 -74 0 -8 -3
-37 -8 -65 -5 -27 -11 -78 -14 -112 -9 -98 -78 -483 -91 -503 -3 -4 -7 -37 -9
-73 -2 -36 -9 -73 -14 -84 -5 -10 -17 -79 -26 -153 -18 -142 -40 -295 -57
-395 -5 -33 -11 -73 -14 -90 -2 -16 -6 -43 -10 -60 -3 -16 -10 -55 -16 -85 -6
-30 -20 -98 -30 -150 -11 -52 -24 -126 -30 -165 -14 -99 -35 -199 -73 -360
-19 -77 -39 -165 -45 -195 -6 -30 -14 -66 -16 -80 -3 -14 -8 -45 -11 -70 -7
-60 -32 -199 -50 -285 -20 -88 -33 -167 -40 -225 -3 -25 -7 -52 -10 -60 -9
-25 -13 -73 -29 -360 -16 -274 -44 -544 -60 -570 -2 -4 -7 -25 -9 -46 -3 -21
-17 -93 -32 -159 -14 -66 -29 -142 -34 -170 -4 -27 -26 -142 -49 -255 -23
-113 -48 -245 -56 -295 -15 -93 -21 -124 -29 -153 -3 -9 -8 -42 -11 -72 -3
-30 -10 -80 -16 -111 -5 -31 -11 -78 -13 -105 -2 -27 -13 -101 -24 -164 -10
-63 -20 -126 -21 -140 0 -14 -8 -61 -16 -105 -9 -44 -20 -105 -25 -135 -5 -30
-14 -82 -20 -115 -6 -33 -15 -96 -20 -140 -10 -102 -17 -156 -35 -280 -15
-105 -32 -250 -65 -550 -18 -160 -51 -418 -65 -500 -2 -16 -12 -70 -20 -120
-15 -91 -30 -224 -50 -445 -9 -104 -22 -206 -43 -335 -11 -66 -23 -149 -27
-185 -4 -36 -9 -74 -11 -85 -2 -11 -6 -45 -9 -75 -21 -197 -47 -386 -65 -467
-17 -72 -27 -164 -36 -312 -5 -88 -4 -112 6 -106 6 4 -1 -11 -18 -33 -16 -23
-35 -63 -42 -89 -7 -26 -16 -52 -20 -58 -12 -15 -48 -180 -55 -243 -2 -18 -6
-50 -10 -70 -4 -20 -8 -78 -10 -129 -3 -74 1 -111 21 -183 13 -50 31 -104 39
-120 9 -17 13 -30 10 -30 -7 0 76 -152 91 -168 7 -6 16 -12 20 -12 4 0 15 -7
25 -16 12 -10 48 -19 106 -24 90 -8 127 -18 198 -51 64 -29 254 -81 320 -86
33 -2 77 -11 98 -19 20 -8 52 -14 70 -14 17 0 44 -6 58 -14 14 -7 58 -16 98
-20 39 -4 97 -16 129 -27 35 -13 93 -22 152 -25 52 -3 111 -9 130 -15 19 -5
152 -12 295 -15 143 -3 316 -9 385 -15 346 -27 505 -38 610 -43 63 -4 142 -8
175 -11 33 -3 116 -10 185 -16 69 -5 199 -19 290 -29 91 -11 233 -24 315 -30
83 -6 168 -12 190 -15 250 -25 320 -34 435 -55 123 -24 386 -57 545 -71 61 -5
124 -11 142 -13 79 -10 132 -16 183 -21 30 -3 62 -8 70 -10 8 -2 75 -11 148
-20 73 -8 165 -22 205 -30 131 -28 314 -63 363 -69 27 -4 64 -8 82 -11 18 -2
45 -6 60 -9 15 -3 83 -10 152 -16 69 -5 136 -12 150 -14 13 -3 56 -6 95 -7 38
-1 136 -11 216 -24 80 -12 180 -23 222 -24 42 -1 88 -6 104 -10 15 -4 98 -9
183 -10 85 -1 184 -6 220 -11 86 -11 72 -10 260 -14 91 -2 179 -6 195 -9 50
-10 120 -17 207 -22 46 -2 180 -9 298 -15 118 -6 276 -17 350 -25 74 -7 176
-14 225 -15 109 -1 378 -10 420 -14 17 -1 78 -6 136 -10 59 -5 119 -9 135 -10
16 -2 45 -5 64 -9 31 -6 163 -17 215 -19 11 0 76 -7 145 -15 69 -7 181 -18
250 -23 69 -5 168 -19 220 -30 52 -12 104 -22 115 -24 11 -2 47 -10 80 -19 97
-25 128 -28 262 -28 71 0 160 -7 198 -14 85 -17 350 -35 489 -34 114 1 182 16
178 41 -1 10 8 17 28 21 16 4 30 12 30 20 0 7 9 31 20 52 11 22 25 63 30 90
23 128 32 164 50 225 23 76 54 217 69 310 20 125 43 295 46 340 2 25 8 83 13
130 6 47 13 144 17 215 3 72 10 166 15 210 19 165 35 366 45 560 6 121 11 190
25 340 5 55 12 147 14 205 3 58 19 197 36 310 37 248 76 525 86 600 10 79 9
77 44 275 18 99 40 230 50 290 9 61 22 128 29 150 13 48 87 586 96 700 3 44 8
109 10 145 3 36 9 94 14 130 6 36 13 106 16 155 3 50 8 104 10 120 2 17 5 68
6 115 1 47 5 126 10 175 20 213 32 326 45 415 8 52 16 149 19 215 3 66 12 194
20 285 8 91 17 228 19 305 2 77 9 185 15 240 6 55 15 161 21 235 10 136 16
196 26 260 21 142 34 247 39 320 3 47 8 105 11 129 3 24 7 80 9 125 11 193 25
350 50 536 9 63 18 133 20 155 7 69 15 157 21 230 9 114 13 156 24 230 5 39
12 99 15 135 3 36 14 142 25 235 11 94 25 258 30 365 11 233 27 470 41 600 5
52 14 145 19 205 5 61 11 128 14 150 4 22 11 119 16 215 6 96 15 204 21 240
12 73 13 91 28 280 10 134 16 206 26 330 3 36 10 128 15 205 5 77 11 150 14
161 2 12 7 80 11 150 3 71 11 176 16 234 6 58 14 155 19 215 12 144 36 356 54
475 9 52 20 145 26 205 15 164 55 447 84 610 9 44 22 137 31 205 8 69 20 150
26 180 11 59 16 95 24 175 3 28 10 95 16 150 5 55 14 141 19 190 5 50 16 124
25 165 19 90 24 118 30 190 3 30 10 80 15 110 5 30 14 98 20 150 6 52 15 120
20 150 21 122 39 259 45 335 3 44 10 118 15 165 20 177 40 409 45 520 2 63 7
135 10 160 3 25 10 119 15 210 6 91 14 226 20 300 5 74 12 185 15 245 13 275
26 476 35 540 16 123 23 237 22 344 -2 104 -9 129 -49 169 -7 7 -18 21 -25 30
-25 33 -47 43 -100 48 -29 3 -65 7 -79 9 -18 3 -33 -3 -44 -15 -10 -11 -21
-20 -24 -20 -3 0 -6 29 -6 65 0 41 4 65 11 65 6 0 16 11 22 25 31 67 -3 153
-72 183 -56 25 -98 32 -221 36 -384 13 -456 18 -555 36 -30 5 -171 10 -314 10
-142 1 -282 5 -310 10 -28 5 -141 12 -251 15 -595 18 -800 24 -890 29 -158 9
-713 12 -790 4 -38 -4 -146 -10 -240 -13 -222 -8 -1480 -8 -1570 -1 -162 13
-251 16 -880 21 -738 6 -994 11 -1170 25 -66 5 -178 11 -250 15 -71 3 -150 8
-175 10 -25 3 -74 7 -110 10 -36 2 -119 9 -185 16 -66 6 -230 13 -365 14 -135
1 -293 5 -350 9 -170 11 -270 16 -350 21 -41 2 -172 15 -290 29 -118 14 -278
28 -355 31 -77 2 -176 9 -220 15 -44 6 -141 17 -215 25 -74 8 -148 17 -165 20
-65 10 -443 16 -502 8 -34 -6 -64 -7 -65 -4 -2 3 -25 3 -53 -1z m11099 -784
c56 -63 66 -99 61 -219 -5 -125 -13 -246 -20 -290 -4 -28 -11 -128 -35 -510
-5 -88 -14 -225 -19 -305 -6 -80 -13 -188 -16 -240 -3 -52 -11 -147 -16 -210
-6 -63 -12 -167 -15 -230 -2 -63 -9 -158 -14 -210 -6 -52 -12 -115 -15 -140
-2 -25 -6 -65 -9 -90 -3 -25 -10 -99 -16 -165 -10 -112 -15 -155 -40 -317 -12
-75 -17 -115 -25 -188 -4 -30 -13 -98 -20 -150 -8 -52 -17 -122 -20 -155 -4
-33 -13 -91 -20 -130 -8 -38 -16 -92 -19 -120 -56 -532 -64 -605 -81 -695 -7
-41 -16 -102 -20 -135 -3 -33 -15 -103 -25 -155 -10 -52 -22 -120 -25 -150 -3
-30 -10 -77 -15 -105 -5 -27 -11 -70 -14 -95 -9 -78 -25 -198 -30 -222 -3 -13
-7 -63 -10 -113 -3 -49 -10 -104 -15 -121 -5 -17 -14 -80 -20 -140 -7 -60 -16
-145 -21 -189 -12 -102 -38 -402 -45 -525 -3 -52 -10 -138 -16 -190 -5 -52
-14 -162 -19 -245 -11 -168 -18 -254 -27 -335 -4 -30 -7 -86 -8 -125 -1 -38
-4 -86 -8 -105 -3 -19 -8 -64 -11 -100 -8 -101 -17 -189 -26 -265 -4 -38 -8
-101 -9 -140 -1 -69 -9 -149 -37 -400 -16 -140 -29 -348 -39 -620 -3 -93 -13
-233 -21 -310 -8 -76 -19 -189 -24 -250 -13 -149 -29 -284 -44 -385 -2 -14 -7
-65 -11 -115 -12 -162 -31 -331 -50 -445 -18 -108 -31 -248 -45 -470 -12 -206
-26 -349 -46 -480 -7 -52 -16 -118 -18 -147 -3 -28 -7 -67 -11 -85 -7 -44 -13
-110 -20 -243 -3 -60 -10 -144 -15 -185 -5 -41 -12 -149 -15 -240 -5 -159 -12
-296 -20 -370 -2 -19 -7 -102 -10 -185 -4 -82 -11 -166 -16 -185 -10 -38 -45
-364 -53 -500 -9 -142 -35 -450 -45 -530 -5 -41 -12 -124 -16 -185 -3 -60 -10
-137 -15 -170 -5 -33 -14 -103 -20 -155 -13 -111 -19 -157 -25 -185 -2 -11 -9
-58 -15 -105 -10 -81 -47 -301 -90 -530 -11 -58 -26 -153 -34 -211 -9 -58 -22
-137 -30 -175 -16 -69 -61 -362 -76 -484 -5 -36 -16 -114 -25 -175 -9 -60 -18
-164 -20 -230 -2 -66 -9 -154 -15 -195 -5 -41 -14 -162 -20 -268 -5 -107 -12
-219 -14 -250 -3 -32 -8 -97 -12 -147 -8 -117 -10 -142 -23 -255 -6 -52 -13
-138 -15 -190 -11 -223 -78 -709 -106 -775 -5 -11 -11 -38 -15 -60 -6 -41 -31
-134 -45 -170 -5 -11 -14 -53 -20 -94 -7 -41 -18 -86 -24 -100 -26 -59 -48
-93 -55 -84 -3 5 -28 22 -55 38 -37 22 -65 29 -123 33 l-74 5 4 58 c2 33 7 62
10 66 4 3 7 21 7 38 0 17 3 35 7 38 3 4 8 17 9 30 6 48 31 153 42 174 11 20
38 124 48 183 2 14 9 47 16 75 6 27 12 63 14 80 1 16 10 62 18 100 9 39 20
104 26 145 15 114 20 139 42 220 11 41 22 94 23 117 2 23 5 53 8 65 4 13 9 50
12 83 4 33 8 71 11 85 8 48 34 215 39 250 7 61 33 224 39 250 6 28 13 71 22
145 3 28 12 84 21 125 8 41 17 95 19 120 5 47 16 113 33 190 5 25 15 111 21
190 6 80 15 179 20 220 5 41 12 120 15 175 4 55 8 123 10 150 2 28 6 147 9
265 3 118 8 253 11 300 5 97 13 251 20 425 3 66 10 156 15 200 22 178 51 404
60 465 5 36 12 99 15 140 6 70 9 103 20 188 2 18 7 37 10 42 5 8 12 47 46 260
9 56 44 342 59 485 5 44 14 159 19 255 13 201 19 289 27 344 4 35 18 197 30
351 2 33 7 67 10 75 8 22 31 201 39 305 12 162 23 268 39 370 8 55 17 129 20
165 7 94 23 244 46 415 12 83 23 175 26 205 3 30 10 91 15 135 23 210 49 482
54 590 4 66 8 122 10 125 2 3 5 41 6 85 1 43 8 106 15 139 13 65 26 176 49
426 13 132 24 231 40 340 5 36 16 200 20 305 3 83 21 283 29 330 2 11 9 47 15
81 6 34 13 81 16 105 2 24 9 82 15 129 6 47 13 119 15 160 3 41 8 89 11 105 3
17 8 48 10 70 9 84 25 212 34 260 5 28 10 77 11 110 1 33 10 123 20 200 10 77
23 210 29 295 6 85 17 205 25 265 7 61 17 142 20 180 3 39 13 129 21 200 8 72
19 168 24 215 6 47 19 164 31 260 12 96 25 211 29 255 5 44 11 96 15 115 3 19
14 109 25 200 32 272 49 401 54 418 2 10 7 44 11 77 3 33 15 132 25 220 16
133 31 288 35 355 1 16 9 103 25 285 6 61 15 139 20 175 6 36 17 126 26 200 8
74 22 184 30 243 8 59 14 142 14 185 1 42 5 109 10 147 5 39 14 108 20 155 6
47 12 101 15 120 3 19 7 71 11 115 3 44 9 94 14 110 5 17 11 71 15 120 7 113
23 274 37 385 6 47 12 99 13 115 6 77 19 180 30 235 3 14 7 41 10 60 5 45 22
150 41 265 8 50 19 141 23 203 10 152 0 183 -81 237 l-58 40 3 150 2 149 30
21 c24 15 46 20 97 19 60 0 68 -3 92 -30z m-154 -439 c0 -7 7 -15 15 -19 11
-4 14 -16 11 -43 -3 -21 -8 -76 -10 -123 -3 -47 -12 -121 -21 -165 -15 -81
-34 -204 -40 -261 -2 -17 -8 -65 -14 -105 -6 -41 -18 -141 -27 -224 -8 -82
-20 -184 -25 -225 -5 -41 -12 -113 -15 -160 -3 -47 -9 -121 -14 -165 -5 -44
-12 -109 -15 -145 -4 -36 -15 -135 -26 -220 -10 -85 -26 -238 -34 -340 -9
-102 -24 -257 -35 -345 -10 -88 -21 -182 -24 -210 -2 -27 -11 -102 -19 -165
-9 -63 -18 -160 -22 -215 -10 -145 -25 -318 -40 -435 -2 -19 -13 -114 -25
-210 -11 -96 -29 -240 -40 -320 -11 -80 -29 -215 -41 -300 -11 -85 -27 -202
-35 -260 -8 -58 -19 -150 -24 -205 -5 -55 -16 -152 -25 -215 -8 -63 -24 -207
-35 -320 -11 -113 -25 -241 -31 -285 -17 -132 -17 -136 -24 -235 -4 -52 -16
-176 -27 -275 -11 -99 -24 -225 -29 -280 -5 -55 -15 -149 -23 -210 -23 -174
-35 -278 -52 -450 -22 -220 -30 -287 -48 -380 -9 -44 -18 -109 -21 -145 -2
-36 -7 -87 -10 -115 -2 -27 -7 -116 -10 -196 -5 -136 -8 -164 -20 -229 -3 -14
-7 -47 -10 -75 -3 -27 -10 -88 -15 -135 -5 -47 -12 -121 -15 -165 -3 -44 -14
-143 -25 -220 -33 -229 -38 -273 -45 -430 -9 -212 -58 -729 -86 -905 -14 -84
-14 -86 -28 -215 -6 -60 -16 -139 -21 -175 -5 -36 -12 -99 -16 -140 -8 -98
-11 -122 -24 -200 -6 -36 -12 -87 -14 -115 -3 -27 -9 -113 -15 -190 -6 -77
-15 -167 -20 -200 -22 -143 -32 -221 -46 -390 -9 -99 -18 -200 -21 -225 -12
-124 -14 -155 -19 -280 -6 -139 -22 -333 -30 -360 -2 -8 -11 -69 -20 -135 -8
-66 -17 -136 -20 -155 -2 -19 -7 -55 -10 -80 -3 -25 -16 -103 -29 -175 -28
-149 -43 -260 -51 -360 -3 -38 -10 -99 -15 -135 -6 -36 -17 -121 -25 -190 -8
-69 -20 -159 -25 -200 -5 -41 -14 -160 -20 -265 -5 -104 -12 -226 -15 -270 -3
-44 -7 -179 -10 -300 -5 -250 -22 -557 -36 -658 -5 -38 -12 -115 -14 -170 -8
-152 -14 -202 -35 -307 -20 -102 -43 -238 -65 -388 -8 -51 -16 -105 -20 -120
-10 -49 -14 -75 -25 -152 -6 -42 -13 -87 -15 -101 -3 -13 -10 -55 -15 -94 -27
-189 -50 -346 -60 -400 -6 -33 -13 -78 -16 -100 -3 -22 -14 -76 -24 -120 -10
-44 -24 -118 -30 -165 -6 -46 -14 -88 -16 -91 -2 -4 -7 -29 -10 -55 -3 -27
-10 -56 -15 -65 -5 -10 -9 -31 -9 -48 0 -40 -14 -100 -57 -239 -19 -63 -39
-143 -44 -178 -5 -35 -14 -83 -20 -107 -5 -23 -12 -54 -14 -68 -2 -14 -9 -38
-15 -53 -5 -15 -8 -32 -4 -37 3 -5 0 -9 -5 -9 -17 0 -13 -21 7 -36 14 -11 11
-11 -23 -4 -22 5 -53 10 -70 10 -16 0 -43 7 -60 16 -16 8 -65 20 -109 25 -80
10 -102 18 -78 26 19 7 15 51 -7 58 -10 3 -23 5 -27 3 -8 -2 -136 9 -214 17
-135 16 -247 26 -320 30 -47 3 -96 7 -110 10 -13 2 -40 7 -60 10 -20 3 -47 8
-60 10 -14 3 -70 6 -125 6 -55 -1 -116 4 -135 9 -19 5 -96 14 -170 19 -74 6
-178 16 -230 22 -52 5 -214 12 -360 14 -275 4 -315 7 -440 30 -274 52 -517 84
-644 85 -43 0 -106 5 -140 10 -33 6 -104 17 -156 26 -204 35 -270 42 -409 43
-79 1 -148 4 -152 7 -5 3 -70 5 -146 5 -130 0 -235 9 -363 30 -30 5 -170 13
-310 19 -140 5 -273 12 -295 14 -40 5 -237 20 -395 31 -47 4 -94 8 -105 10
-11 3 -45 7 -75 10 -30 3 -75 7 -100 10 -25 2 -112 7 -195 10 -82 3 -161 7
-175 9 -14 2 -63 7 -110 11 -47 4 -105 8 -130 10 -25 2 -83 7 -130 11 -47 3
-94 8 -105 10 -11 2 -81 8 -155 14 -74 6 -166 17 -205 25 -66 13 -96 17 -240
30 -33 3 -76 10 -95 15 -19 5 -66 12 -105 15 -94 8 -322 41 -443 64 -70 14
-161 21 -329 25 -128 2 -236 7 -241 10 -10 6 -101 15 -217 21 -177 10 -223 13
-251 19 -146 29 -284 53 -414 70 -69 9 -143 16 -165 16 -22 0 -83 11 -135 24
-191 48 -321 56 -815 51 -231 -2 -424 -5 -430 -6 -11 -1 -109 8 -170 17 -94
15 -209 112 -229 194 -1 3 -7 14 -13 25 -17 32 -41 125 -48 190 -7 65 -11 92
-17 115 -3 14 19 21 37 11 6 -3 19 -6 30 -7 100 -5 241 -17 249 -21 5 -3 23
-5 40 -5 17 1 128 -9 246 -23 118 -13 249 -26 290 -30 41 -3 107 -10 145 -15
39 -6 102 -13 140 -16 80 -6 120 -10 190 -19 187 -23 317 -37 505 -55 119 -11
276 -27 350 -35 74 -8 158 -17 185 -20 28 -3 70 -7 95 -10 25 -3 79 -7 120
-11 41 -3 77 -7 80 -9 3 -2 34 -6 70 -9 36 -4 106 -11 155 -16 50 -5 126 -12
170 -15 44 -3 123 -10 175 -16 146 -14 167 -16 445 -43 143 -14 298 -30 345
-35 47 -6 135 -15 195 -21 61 -6 234 -24 385 -40 303 -32 300 -32 585 -60 110
-11 232 -25 270 -30 39 -5 147 -17 240 -25 239 -22 681 -66 810 -80 28 -3 91
-10 140 -15 50 -6 106 -12 125 -15 74 -9 129 -15 230 -25 58 -5 236 -23 395
-39 160 -17 315 -33 345 -36 30 -3 100 -10 155 -15 55 -6 190 -19 300 -30 110
-11 216 -22 235 -25 59 -7 132 -15 190 -20 30 -3 71 -7 90 -10 19 -3 58 -8 85
-10 28 -3 66 -7 85 -9 19 -3 87 -10 150 -16 63 -6 133 -13 155 -15 22 -3 92
-9 155 -15 106 -10 134 -12 245 -25 22 -2 83 -7 135 -10 52 -3 109 -8 125 -10
17 -3 61 -7 99 -10 38 -3 74 -8 78 -11 10 -6 154 -24 236 -29 29 -1 67 -5 85
-9 35 -6 176 -22 277 -31 36 -3 81 -8 100 -12 19 -3 51 -7 70 -8 19 -1 41 -4
48 -6 8 -2 19 4 25 14 16 24 -1 33 -61 35 -26 1 -87 6 -137 11 -49 6 -136 13
-192 16 -57 4 -116 10 -133 15 -17 5 -33 9 -35 8 -34 -2 -324 19 -450 32 -55
6 -122 13 -150 16 -27 2 -84 9 -125 14 -73 9 -247 27 -360 36 -30 2 -86 8
-125 14 -38 5 -122 14 -185 20 -63 6 -128 13 -145 15 -28 4 -69 8 -190 20 -27
3 -90 9 -140 15 -49 5 -121 12 -160 15 -38 3 -110 10 -160 15 -49 5 -121 12
-160 15 -38 4 -79 8 -90 11 -21 4 -395 43 -715 74 -107 10 -235 24 -285 29
-49 6 -110 13 -135 16 -25 2 -94 9 -155 15 -60 6 -146 15 -190 20 -81 10 -109
13 -290 30 -232 23 -301 30 -325 34 -14 3 -59 8 -100 11 -74 6 -437 43 -700
71 -74 8 -182 19 -239 24 -57 6 -107 12 -110 14 -3 2 -51 7 -106 11 -55 4
-102 8 -105 10 -3 2 -36 6 -75 9 -38 4 -110 11 -160 17 -49 5 -119 12 -155 15
-36 2 -94 9 -130 14 -36 5 -123 14 -195 20 -71 6 -164 15 -205 20 -41 5 -131
14 -200 20 -130 12 -265 25 -410 40 -47 5 -116 12 -155 15 -38 3 -81 7 -95 9
-14 3 -61 8 -105 11 -44 4 -82 8 -85 10 -3 2 -41 6 -85 10 -44 4 -93 8 -110
10 -16 2 -82 8 -145 15 -63 6 -149 15 -190 20 -41 5 -104 12 -140 15 -36 4
-81 8 -100 10 -37 5 -79 9 -249 26 -57 5 -107 12 -111 14 -7 4 -527 58 -670
70 -30 2 -77 7 -103 11 -71 9 -93 12 -192 23 -49 6 -128 15 -175 20 -47 6
-113 11 -148 13 -70 2 -66 -3 -63 98 2 30 7 69 13 86 10 30 13 31 47 23 20 -4
104 -13 186 -19 199 -14 231 -17 430 -35 94 -9 199 -18 235 -21 36 -3 169 -16
295 -29 127 -14 304 -31 395 -40 221 -20 269 -24 310 -30 19 -3 73 -7 120 -10
47 -3 94 -7 106 -9 11 -2 54 -7 95 -11 77 -6 205 -18 394 -35 61 -6 126 -12
145 -15 19 -2 73 -7 120 -10 47 -3 105 -7 130 -10 25 -3 131 -12 235 -20 163
-12 409 -34 565 -49 246 -25 623 -61 850 -81 96 -8 216 -20 265 -25 50 -5 216
-21 370 -35 267 -24 465 -43 695 -65 58 -6 157 -15 220 -20 63 -6 158 -15 210
-20 106 -11 116 -12 420 -40 118 -11 244 -22 280 -25 65 -5 185 -16 380 -35
58 -5 155 -14 215 -20 61 -5 202 -19 315 -30 113 -11 304 -29 425 -40 121 -11
240 -22 265 -25 106 -13 129 -15 205 -20 44 -4 150 -12 235 -20 85 -8 184 -17
220 -20 145 -12 288 -26 615 -60 284 -30 549 -53 556 -50 4 3 10 1 14 -5 4 -6
10 -8 14 -6 4 3 40 0 81 -5 40 -5 109 -12 152 -15 66 -5 78 -4 78 9 0 22 -14
29 -68 33 -178 12 -633 52 -687 59 -27 4 -259 23 -353 30 -20 1 -68 5 -107 9
-75 7 -222 19 -430 36 -71 6 -168 15 -215 20 -145 16 -289 29 -490 45 -41 3
-93 8 -115 10 -118 13 -248 26 -305 30 -62 5 -113 10 -210 20 -25 2 -74 7
-110 10 -36 3 -78 8 -95 10 -16 2 -61 7 -100 10 -205 16 -314 26 -350 30 -22
3 -96 9 -165 15 -69 6 -145 13 -170 15 -25 3 -214 21 -420 40 -325 30 -680 65
-830 81 -25 2 -99 9 -165 14 -66 5 -138 12 -160 15 -37 5 -311 29 -465 41 -36
2 -83 7 -105 9 -22 3 -87 10 -145 15 -58 5 -175 17 -260 25 -85 9 -220 22
-300 30 -80 8 -165 16 -190 19 -25 3 -79 8 -120 11 -41 3 -91 8 -110 10 -19 2
-87 9 -150 14 -110 10 -146 13 -325 26 -44 3 -125 10 -180 15 -55 5 -154 14
-220 20 -162 15 -213 19 -260 25 -22 3 -67 7 -100 10 -33 3 -82 7 -110 10 -27
3 -75 7 -105 10 -69 6 -143 13 -195 19 -22 3 -80 8 -130 12 -49 3 -103 8 -120
11 -16 2 -122 13 -235 23 -256 24 -296 28 -395 40 -44 6 -161 17 -260 26 -99
8 -197 17 -217 19 -20 2 -65 5 -100 6 -35 1 -70 5 -78 9 -8 4 -53 10 -100 13
-47 3 -136 13 -198 21 -78 11 -120 13 -132 6 -26 -14 -28 -13 -23 18 6 37 55
152 65 152 5 0 8 7 8 15 0 8 7 15 15 15 9 0 30 8 48 17 18 9 39 18 47 19 8 1
42 10 75 19 44 12 80 15 135 11 41 -3 109 -9 150 -12 82 -6 89 -7 200 -24 41
-6 163 -12 270 -14 107 -2 209 -7 225 -10 17 -4 44 -9 60 -13 17 -4 46 -8 65
-9 137 -10 171 -14 217 -23 28 -6 116 -11 195 -11 145 -2 200 -6 431 -37 87
-11 126 -20 123 -28 -5 -14 36 -14 46 1 4 6 21 9 39 6 18 -3 26 -8 19 -12 -8
-5 -4 -9 10 -13 16 -4 20 -2 16 9 -7 18 2 18 20 -1 9 -8 20 -15 27 -15 6 0 2
7 -9 15 -10 8 -14 15 -7 15 6 0 18 -7 27 -15 17 -17 30 -20 21 -5 -8 13 179
13 311 0 55 -5 126 -11 159 -14 68 -5 192 -24 215 -33 8 -4 20 -5 27 -4 6 1
14 -3 18 -9 4 -6 -6 -10 -25 -10 -18 0 -29 4 -25 10 3 5 -3 10 -13 10 -11 0
-23 -7 -26 -16 -5 -14 -4 -15 9 -4 9 7 15 8 15 2 0 -5 23 -12 50 -14 47 -3 65
4 38 15 -7 3 -1 6 15 6 19 1 27 -4 28 -16 1 -17 2 -17 6 0 5 20 23 23 23 3 0
-7 9 -16 20 -19 11 -3 20 -1 20 3 0 5 -8 10 -17 13 -10 2 -3 4 15 4 23 0 31
-4 28 -14 -4 -9 3 -13 19 -13 14 0 25 6 25 13 0 8 4 7 10 -3 5 -8 10 -11 10
-6 0 5 7 3 15 -4 12 -10 15 -10 15 1 0 10 3 10 12 1 7 -7 21 -12 32 -11 18 1
17 2 -4 9 -21 7 -22 8 -5 9 11 1 35 -3 53 -8 19 -6 32 -6 32 -1 0 5 12 8 28 5
15 -2 44 -7 65 -10 26 -4 35 -10 30 -18 -4 -7 0 -7 10 2 20 16 107 7 119 -12
6 -9 8 -9 8 0 0 8 9 9 30 3 17 -5 30 -6 30 -2 0 3 5 1 10 -4 6 -6 31 -9 56 -7
28 3 44 1 40 -5 -3 -6 22 -10 66 -11 39 0 77 -6 84 -12 11 -9 18 -8 29 1 11 9
15 10 15 1 0 -8 6 -6 16 4 18 18 60 16 57 -3 -2 -7 7 -12 20 -12 15 0 18 3 9
9 -8 4 18 8 62 8 67 1 77 -2 95 -24 21 -23 41 -24 41 0 0 9 -2 9 -8 1 -5 -9
-11 -8 -20 2 -15 16 -14 16 57 14 30 -1 64 -8 75 -15 12 -7 32 -16 46 -19 21
-5 20 -4 -5 9 -16 8 -23 14 -15 14 8 1 28 -6 43 -14 16 -8 25 -9 21 -3 -5 8
-1 9 10 5 10 -4 24 -7 32 -7 9 0 12 -4 9 -10 -3 -5 1 -10 10 -10 9 0 13 4 10
10 -3 5 1 10 10 10 8 0 18 -7 21 -15 4 -10 11 -12 18 -7 6 5 27 9 45 11 40 2
38 -8 -2 -11 -32 -3 -27 -10 10 -14 16 -2 32 4 41 14 13 16 13 16 8 -1 -5 -17
8 -24 18 -9 8 13 96 14 112 1 7 -6 12 -15 9 -19 -2 -4 28 -8 67 -9 40 -1 75
-4 80 -7 4 -3 11 2 14 10 3 9 11 16 16 16 6 0 7 -7 4 -16 -3 -8 -2 -13 3 -9 5
3 11 2 14 -2 2 -5 2 -2 1 5 -5 17 21 15 40 -3 10 -10 17 -12 21 -5 4 7 11 7
18 2 17 -14 76 -20 80 -9 2 6 12 5 25 -2 17 -9 22 -9 22 1 0 9 3 9 12 0 14
-14 52 -16 43 -2 -8 13 1 13 28 -1 11 -7 46 -14 77 -16 30 -2 61 -6 68 -8 7
-3 10 0 7 5 -9 14 29 12 43 -2 7 -7 12 -8 12 -2 0 6 13 9 30 6 17 -2 30 -8 30
-12 0 -4 21 -8 48 -8 26 0 65 -2 87 -5 22 -3 130 -17 240 -31 110 -14 232 -30
270 -36 39 -5 167 -17 285 -25 310 -22 350 -25 395 -31 22 -3 58 -7 80 -8 22
-2 72 -8 110 -14 39 -6 117 -16 175 -22 58 -7 119 -13 135 -15 30 -4 144 -13
239 -20 27 -2 81 -9 120 -14 39 -6 112 -13 161 -16 50 -4 113 -8 140 -10 28
-2 104 -7 170 -10 127 -7 347 -22 430 -29 65 -6 235 -16 354 -21 51 -2 110 -6
130 -9 20 -3 94 -8 166 -12 71 -3 132 -7 135 -9 3 -1 43 -6 90 -10 47 -4 99
-9 115 -11 17 -2 68 -6 115 -8 86 -5 190 -14 245 -21 17 -2 64 -7 105 -10 41
-4 111 -13 155 -21 44 -8 127 -16 185 -18 58 -3 120 -9 138 -15 19 -6 81 -10
138 -10 58 0 109 -3 113 -6 5 -3 64 -7 130 -9 l121 -4 0 24 c0 23 -2 24 -87
25 -92 0 -125 3 -233 18 -36 5 -103 10 -149 10 -45 1 -90 5 -100 10 -9 4 -72
9 -141 10 -68 1 -129 6 -135 11 -9 7 -112 20 -285 35 -30 2 -131 9 -225 15
-93 5 -228 17 -300 25 -71 8 -177 17 -235 20 -113 6 -394 24 -475 31 -270 22
-535 41 -559 40 -15 -1 -30 3 -32 9 -3 6 -23 12 -46 14 -22 1 -44 2 -47 3 -3
1 -14 -2 -24 -7 -11 -4 -23 -3 -30 4 -6 6 -20 11 -31 11 -17 0 -18 -2 -6 -10
13 -8 12 -10 -2 -10 -10 0 -18 4 -18 9 0 5 -9 11 -20 14 -12 3 -20 0 -20 -7 0
-16 -33 -14 -54 3 -9 8 -26 10 -46 6 -16 -4 -30 -3 -30 2 0 5 -32 7 -72 6 -39
-2 -76 1 -82 6 -6 5 -32 8 -57 8 -26 0 -50 3 -56 6 -5 3 -15 2 -22 -3 -8 -4
-28 -4 -45 1 -17 5 -76 12 -131 15 -96 6 -150 11 -150 14 0 1 -16 3 -35 5 -19
3 -71 9 -115 14 -75 10 -122 14 -255 26 -30 3 -90 6 -132 8 -43 1 -78 6 -78
10 0 5 -4 6 -9 3 -8 -6 -243 8 -316 18 -84 12 -134 18 -175 21 -25 2 -58 6
-75 9 -16 3 -50 8 -75 11 -25 4 -74 11 -110 16 -36 6 -101 14 -145 19 -44 5
-120 16 -170 24 -49 8 -151 21 -225 27 -140 12 -158 14 -250 24 -30 3 -112 9
-182 15 -182 13 -325 29 -388 41 -30 6 -147 15 -260 19 -296 12 -408 20 -436
31 -14 5 -44 9 -67 9 -23 0 -58 5 -78 10 -20 6 -69 12 -110 14 -180 9 -419 40
-419 54 0 3 37 1 82 -3 46 -4 121 -8 168 -10 47 -2 108 -5 135 -8 28 -4 79 -9
115 -12 36 -3 97 -10 135 -15 117 -15 165 -19 295 -25 409 -18 482 -21 605
-31 44 -4 130 -8 192 -9 79 -1 117 -6 129 -16 12 -9 15 -10 10 -1 -6 9 5 12
43 11 28 -1 51 -7 51 -12 0 -6 29 -7 75 -4 45 4 74 3 70 -3 -3 -5 7 -5 25 0
17 5 28 5 25 1 -7 -13 42 -20 54 -8 7 7 15 6 26 -3 10 -8 15 -9 15 -1 0 6 7
11 15 11 10 0 12 -6 8 -17 -6 -16 -5 -16 10 -4 9 7 17 10 17 7 0 -4 9 -2 20 4
24 13 183 -4 188 -20 2 -6 22 -9 45 -9 l42 2 -35 8 c-46 10 172 1 282 -12 45
-5 119 -12 163 -15 44 -3 91 -7 105 -9 14 -2 31 -4 38 -4 7 -1 11 -5 8 -9 -3
-5 -20 -7 -38 -4 -18 2 -30 2 -27 -2 3 -4 35 -9 70 -11 35 -3 77 -8 93 -11 22
-5 27 -3 20 7 -6 11 -5 12 7 2 8 -7 26 -9 39 -6 13 3 21 2 18 -3 -4 -5 5 -10
18 -10 14 -1 21 2 18 8 -4 6 3 5 15 -1 12 -7 49 -14 84 -16 34 -3 96 -8 137
-11 41 -3 91 -7 110 -9 225 -20 429 -42 465 -50 11 -2 43 -7 70 -9 345 -33
686 -80 745 -102 8 -3 89 -8 180 -10 214 -6 386 -19 635 -48 59 -7 227 -18
335 -21 52 -2 151 -7 220 -11 69 -4 149 -7 177 -7 34 1 51 -3 47 -9 -5 -7 0
-7 12 0 12 7 25 7 37 0 10 -5 32 -6 48 -3 16 4 35 2 42 -3 14 -12 67 -13 67
-2 0 5 9 6 20 3 11 -3 18 -9 15 -13 -3 -5 36 -9 86 -9 50 -1 94 -3 98 -5 3 -2
46 -7 96 -11 49 -4 93 -9 97 -11 3 -2 9 -1 12 4 7 11 76 2 76 -10 0 -5 4 -7 8
-4 4 2 50 -2 101 -9 112 -17 214 -27 301 -29 141 -4 315 -29 326 -47 2 -5 11
-6 19 -2 8 3 15 0 15 -6 0 -6 9 -11 20 -11 18 0 26 -18 20 -45 -1 -5 -3 -15
-4 -22 -3 -17 -46 -53 -63 -53 -7 0 -13 -4 -13 -10 0 -5 -11 -10 -24 -10 -12
0 -37 -5 -54 -11 -25 -8 -37 -7 -71 10 -34 18 -44 19 -60 9 -16 -9 -35 -9 -93
0 -40 7 -113 14 -163 17 -49 3 -108 7 -130 10 -22 3 -76 7 -120 10 -114 7
-200 15 -280 26 -38 5 -88 11 -110 14 -22 2 -80 9 -130 14 -49 6 -144 15 -210
21 -66 5 -149 12 -185 16 -36 3 -90 7 -120 9 -30 2 -80 7 -110 10 -30 3 -113
8 -185 10 -71 3 -164 10 -205 15 -41 5 -109 12 -150 15 -41 3 -93 7 -115 10
-39 4 -159 12 -300 19 -38 2 -77 6 -85 9 -27 10 -301 30 -402 30 -21 0 -38 3
-38 6 0 7 -100 15 -202 15 -36 1 -62 4 -56 7 5 3 -42 9 -104 13 -130 8 -167
11 -373 31 -82 8 -195 15 -250 16 -55 1 -120 6 -145 10 -95 17 -254 24 -765
33 -99 2 -198 6 -220 10 -22 3 -56 9 -75 11 -19 3 -64 10 -100 16 -151 22
-233 30 -365 35 -77 3 -151 7 -165 10 -40 9 -113 13 -290 18 -202 5 -213 8
-207 50 5 38 -10 74 -34 81 -29 10 -40 -2 -28 -32 5 -14 6 -29 2 -32 -7 -5 -9
-27 -3 -41 1 -3 3 -16 4 -28 4 -33 22 -41 91 -43 98 -3 240 -10 610 -29 161
-9 208 -13 295 -25 220 -32 384 -43 680 -46 69 -1 170 -5 225 -9 130 -11 307
-21 420 -25 158 -6 287 -16 385 -32 52 -8 106 -15 120 -14 27 0 215 -16 265
-24 17 -3 86 -9 155 -15 120 -9 192 -15 310 -25 30 -3 102 -7 160 -10 58 -3
121 -8 140 -11 36 -6 67 -8 255 -18 61 -4 128 -8 150 -11 176 -19 257 -26 368
-30 70 -3 129 -6 130 -6 6 -4 60 -9 132 -14 44 -3 100 -7 125 -10 25 -3 83 -7
130 -10 47 -3 105 -7 130 -11 25 -3 79 -8 120 -10 41 -3 104 -10 140 -16 36
-6 80 -11 98 -13 18 -1 35 -5 39 -9 3 -3 22 -6 41 -6 19 0 92 -6 161 -14 178
-21 484 -49 539 -50 17 -1 32 -1 32 -1 0 0 -14 -27 -31 -60 -36 -69 -58 -147
-60 -208 -1 -23 -4 -55 -8 -72 -7 -33 10 -149 32 -210 8 -22 17 -66 21 -98 8
-72 46 -186 77 -232 39 -57 144 -94 189 -65 23 14 -13 46 -63 54 -55 9 -78 25
-101 72 -10 22 -23 48 -29 59 -6 11 -12 31 -13 45 -7 61 -27 160 -45 221 -15
50 -19 82 -15 139 8 99 33 217 54 249 9 14 22 35 28 46 6 10 24 25 41 31 24
11 35 10 58 -2 20 -10 31 -11 35 -4 4 6 18 12 31 14 39 4 119 30 119 38 0 4 5
8 12 8 16 0 78 60 78 76 0 6 13 28 30 49 16 21 30 50 30 64 0 29 23 137 40
191 12 39 14 47 30 205 6 61 18 137 25 170 7 33 16 93 19 133 4 40 10 91 16
115 15 67 50 306 55 377 2 36 9 110 15 165 6 55 13 186 15 290 4 155 12 296
20 325 2 8 16 92 20 120 2 14 6 102 10 195 3 94 8 197 10 230 10 118 17 188
30 320 11 113 53 442 60 465 6 21 32 242 45 380 17 180 18 189 34 300 8 58 18
139 21 180 4 41 8 82 10 90 3 8 7 101 10 205 8 297 17 404 66 765 10 80 22
165 24 190 3 25 10 68 15 95 5 28 14 86 20 130 6 44 22 139 35 210 29 156 64
411 75 555 16 192 29 334 40 415 6 44 13 107 16 140 3 33 15 112 25 175 11 63
25 192 30 285 6 102 17 198 28 240 30 115 40 165 56 270 8 55 20 125 25 155 5
30 12 78 15 105 3 28 7 64 10 80 4 26 6 160 4 205 -1 17 16 206 30 328 5 45
16 115 25 155 26 124 34 259 41 707 2 157 6 296 9 310 2 14 7 70 11 125 8 127
58 618 69 685 4 25 18 117 32 215 4 28 9 57 11 65 4 14 17 91 42 250 6 36 13
92 17 125 3 33 8 63 10 67 3 4 7 78 10 165 3 87 10 173 14 192 5 19 7 37 5 41
-4 6 1 60 36 375 15 143 18 171 30 255 5 41 14 147 20 235 6 88 12 183 14 210
2 28 6 106 10 175 6 111 14 219 30 360 2 25 9 90 15 146 6 56 13 112 15 125 2
13 9 69 15 124 6 55 16 138 21 185 5 47 12 126 15 175 3 50 9 115 14 145 5 30
17 109 25 175 9 66 22 158 30 205 22 126 55 385 60 465 10 157 16 242 20 270
2 17 7 77 9 135 3 58 8 137 11 175 3 39 7 111 10 160 2 50 9 117 15 150 5 33
17 110 25 170 9 61 22 146 29 190 8 44 19 114 25 155 6 41 22 150 36 242 14
91 25 181 25 200 0 19 7 61 16 93 8 33 17 80 19 105 2 25 7 66 10 92 l7 48 34
-26 c19 -15 34 -32 34 -39z m-12918 -16410 c5 -6 8 -6 8 2 0 9 30 11 112 7 62
-2 114 -7 117 -12 4 -4 17 -7 31 -6 14 0 54 -5 90 -12 67 -12 270 -34 356 -38
50 -3 188 -21 234 -32 14 -3 51 -7 82 -9 31 -2 74 -8 95 -14 21 -5 63 -12 93
-16 30 -3 62 -10 70 -16 18 -11 -236 -10 -260 2 -9 4 -78 12 -155 19 -77 6
-156 15 -175 20 -19 5 -64 12 -100 16 -36 3 -69 8 -73 11 -4 3 -82 4 -174 4
-91 0 -171 2 -176 6 -6 4 -20 8 -31 9 -159 16 -253 24 -357 30 -68 3 -126 7
-129 7 -3 0 -16 -4 -30 -10 -49 -20 -112 -26 -122 -12 -6 10 -7 7 -3 -8 4 -15
2 -23 -5 -23 -32 0 -120 -57 -120 -78 0 -4 -9 -24 -20 -45 -11 -20 -17 -37
-14 -37 4 0 2 -6 -4 -12 -6 -7 -15 -38 -21 -68 -6 -30 -16 -77 -21 -105 -6
-27 -10 -68 -10 -90 0 -22 0 -56 0 -75 0 -19 5 -48 10 -65 5 -16 10 -59 12
-95 2 -36 6 -67 9 -70 3 -3 13 -34 23 -70 10 -36 24 -75 32 -87 8 -12 14 -27
14 -33 0 -12 30 -49 88 -109 23 -24 41 -46 39 -48 -2 -2 -32 11 -66 29 -44 23
-77 32 -119 34 -31 1 -59 3 -62 3 -7 1 -72 141 -90 191 -46 134 -59 252 -41
363 34 208 55 304 72 334 10 18 18 34 17 36 -9 9 39 100 60 116 36 25 51 28
311 55 30 3 56 7 57 9 9 8 340 1 346 -8z m2701 -282 c-7 -2 -19 -2 -25 0 -7 3
-2 5 12 5 14 0 19 -2 13 -5z m3271 -221 c3 -5 -8 -6 -25 -4 -16 2 -29 6 -29 8
0 8 49 4 54 -4z m-1354 -19 c3 -3 -16 -3 -42 -1 -26 2 -51 8 -55 12 -8 8 88
-3 97 -11z m457 -39 c-3 -3 -12 -4 -19 -1 -8 3 -5 6 6 6 11 1 17 -2 13 -5z
m-5503 -613 c3 -4 -6 -6 -19 -3 -14 2 -25 6 -25 8 0 8 39 4 44 -5z m128 -38
c35 -4 79 -6 98 -5 172 7 977 9 1020 1 30 -5 73 -11 95 -14 22 -2 60 -9 85
-15 104 -23 146 -29 250 -34 87 -4 173 -15 319 -42 47 -9 96 -18 110 -20 14
-3 42 -9 62 -14 41 -11 254 -28 349 -28 36 0 134 -7 218 -16 84 -9 216 -16
293 -17 77 0 162 -4 187 -9 26 -4 108 -17 182 -29 74 -12 173 -28 220 -36 47
-8 108 -17 135 -19 28 -3 61 -8 75 -11 40 -10 150 -26 205 -30 77 -6 118 -13
146 -23 25 -10 127 -25 161 -24 17 1 36 -16 37 -33 3 -23 13 -45 22 -45 6 0 7
-4 4 -10 -3 -6 17 -9 52 -7 32 1 83 -2 113 -6 72 -11 108 -15 210 -22 105 -9
167 -15 200 -20 25 -5 132 -15 350 -35 63 -6 158 -13 210 -15 52 -3 115 -9
140 -14 25 -5 92 -9 150 -10 58 -2 141 -7 185 -12 44 -5 114 -9 155 -9 41 0
120 -7 175 -16 55 -8 199 -17 319 -19 237 -5 341 -15 481 -47 98 -22 168 -28
315 -27 314 2 615 -7 715 -21 39 -6 131 -13 205 -15 160 -5 187 -9 393 -50
165 -33 206 -37 382 -39 83 -1 159 -5 170 -8 46 -13 109 -18 270 -23 94 -2
205 -9 247 -15 42 -6 96 -12 120 -14 24 -2 53 -6 64 -9 21 -6 154 -17 289 -22
50 -3 180 -17 290 -33 110 -16 223 -30 250 -31 68 -3 102 -9 135 -26 15 -8 30
-12 33 -8 4 3 14 2 24 -2 10 -5 27 -10 38 -12 10 -2 22 -7 25 -11 3 -4 66 -8
140 -9 74 -1 147 -4 161 -6 28 -4 89 -43 89 -57 0 -10 -5 -10 -100 -14 -36 -2
-85 -4 -110 -5 -25 -1 -74 0 -110 3 -36 3 -103 8 -150 11 -47 3 -132 12 -190
20 -58 8 -159 17 -225 19 -85 3 -161 13 -260 35 -182 41 -283 58 -375 66 -136
11 -172 15 -179 19 -8 5 -127 14 -286 21 -66 3 -136 7 -155 10 -19 2 -66 7
-105 10 -38 3 -126 9 -195 15 -196 15 -292 21 -474 25 -125 3 -171 7 -177 17
-7 10 -9 10 -9 -1 0 -10 -9 -12 -37 -7 -72 14 -89 15 -238 21 -82 4 -220 13
-305 20 -191 18 -306 25 -480 30 -134 4 -216 10 -340 24 -36 5 -94 7 -130 6
-36 -1 -96 1 -135 6 -38 5 -110 11 -160 14 -103 6 -146 11 -265 31 -47 8 -123
17 -170 19 -125 7 -309 25 -359 36 -24 5 -89 14 -145 19 -56 5 -128 14 -161
20 -109 19 -219 41 -285 56 -66 15 -80 18 -160 28 -25 3 -61 8 -80 11 -19 3
-69 7 -110 9 -41 2 -82 7 -90 10 -27 9 -83 16 -215 26 -332 25 -386 31 -600
70 -140 26 -328 48 -480 55 -174 8 -243 15 -465 44 -41 6 -149 17 -240 26 -91
8 -203 20 -250 25 -47 5 -157 10 -245 10 -88 1 -196 5 -240 10 -135 16 -239
21 -545 29 -162 4 -302 10 -310 14 -17 7 -69 14 -195 23 -49 4 -98 11 -108 16
-26 14 -143 39 -207 44 -30 3 -60 9 -66 15 -17 14 -116 40 -209 54 -96 15
-324 79 -339 96 -8 9 -6 9 11 0 12 -6 50 -14 85 -18z m4453 -398 c114 -7 216
-16 285 -26 36 -5 133 -12 215 -15 157 -5 223 -9 340 -18 39 -3 102 -8 140
-11 69 -5 110 -11 152 -20 11 -3 79 -7 150 -11 70 -3 146 -7 168 -9 57 -6 225
-14 397 -20 80 -3 152 -7 160 -9 7 -3 40 -7 73 -10 33 -4 71 -8 85 -10 14 -2
88 -6 165 -10 77 -3 167 -9 200 -12 33 -4 123 -8 200 -9 146 -3 236 -10 295
-25 41 -11 262 -41 335 -46 28 -2 91 -6 140 -8 69 -4 425 -53 590 -81 125 -21
204 -27 400 -30 207 -4 298 -8 420 -21 22 -2 72 -6 112 -9 85 -7 105 -9 198
-26 39 -6 108 -11 155 -10 48 1 135 -7 200 -19 63 -11 142 -20 175 -20 33 0
92 -5 130 -11 39 -5 125 -14 193 -18 68 -5 129 -14 135 -20 6 -6 21 -11 33
-11 13 0 26 -4 29 -10 8 -12 -74 -13 -130 -1 -22 5 -74 12 -115 15 -42 3 -91
11 -110 16 -19 6 -111 15 -205 21 -93 5 -181 12 -195 15 -14 3 -47 7 -75 9
-43 3 -104 11 -155 21 -37 7 -199 16 -360 19 -96 2 -191 6 -210 9 -75 13 -226
23 -235 15 -5 -4 -23 -5 -40 -4 -124 15 -233 33 -430 69 -44 8 -134 17 -200
21 -66 3 -147 11 -180 17 -33 6 -141 12 -240 14 -574 9 -731 15 -820 34 -239
50 -250 51 -356 45 -105 -6 -345 8 -474 26 -71 10 -277 24 -524 34 -74 3 -137
8 -140 10 -11 6 -149 20 -311 29 -41 3 -100 8 -130 11 -54 6 -80 8 -255 20
-99 7 -140 11 -200 19 -22 3 -58 8 -80 10 -22 3 -76 12 -120 22 -44 9 -90 16
-101 15 -14 0 -24 7 -27 20 -5 18 -2 20 36 14 23 -3 74 -7 112 -10z"/>
<path d="M2590 2410 c0 -5 5 -10 11 -10 5 0 7 5 4 10 -3 6 -8 10 -11 10 -2 0
-4 -4 -4 -10z"/>
<path d="M2685 2400 c3 -5 13 -10 21 -10 8 0 12 5 9 10 -3 6 -13 10 -21 10 -8
0 -12 -4 -9 -10z"/>
<path d="M3000 2370 c18 -12 30 -13 30 -2 0 4 -10 9 -22 9 -18 2 -20 0 -8 -7z"/>
<path d="M3040 2372 c0 -4 14 -9 32 -10 18 -2 29 1 25 5 -11 10 -57 15 -57 5z"/>
<path d="M3110 2369 c0 -5 10 -9 22 -9 12 0 18 3 14 7 -10 11 -36 12 -36 2z"/>
<path d="M3165 2360 c3 -5 10 -10 16 -10 5 0 9 5 9 10 0 6 -7 10 -16 10 -8 0
-12 -4 -9 -10z"/>
<path d="M3250 2353 c0 -5 28 -9 62 -11 34 -2 59 0 56 4 -10 9 -118 16 -118 7z"/>
<path d="M3400 2341 c0 -13 53 -20 70 -10 11 7 9 8 -7 4 -13 -4 -23 -3 -23 2
0 5 -9 9 -20 10 -11 1 -20 -2 -20 -6z"/>
<path d="M3515 2330 c-7 -11 -8 -11 25 -15 14 -1 32 2 40 7 11 7 10 8 -7 5
-13 -3 -26 -1 -29 4 -7 12 -21 11 -29 -1z"/>
<path d="M6170 2212 c0 -4 9 -8 20 -8 11 0 20 4 20 8 0 4 -9 8 -20 8 -11 0
-20 -4 -20 -8z"/>
<path d="M4830 2200 c-9 -6 -10 -10 -3 -10 6 0 15 5 18 10 8 12 4 12 -15 0z"/>
<path d="M4873 2193 c9 -2 25 -2 35 0 9 3 1 5 -18 5 -19 0 -27 -2 -17 -5z"/>
<path d="M6410 2195 c0 -7 39 -12 49 -5 7 4 -1 7 -18 8 -17 0 -31 -1 -31 -3z"/>
<path d="M6488 2183 c7 -3 16 -2 19 1 4 3 -2 6 -13 5 -11 0 -14 -3 -6 -6z"/>
<path d="M6543 2183 c9 -2 23 -2 30 0 6 3 -1 5 -18 5 -16 0 -22 -2 -12 -5z"/>
<path d="M6600 2186 c0 -2 7 -7 16 -10 8 -3 12 -2 9 4 -6 10 -25 14 -25 6z"/>
<path d="M6725 2171 c-2 -4 19 -9 47 -10 29 -1 50 0 47 2 -9 9 -89 15 -94 8z"/>
<path d="M475 2160 c-17 -28 21 -37 180 -45 55 -3 118 -8 140 -11 22 -4 54 -8
70 -9 157 -11 214 -16 240 -20 17 -2 64 -7 105 -10 66 -5 187 -15 360 -30 30
-3 73 -7 95 -10 22 -3 74 -7 115 -10 90 -7 263 -23 305 -29 17 -2 68 -7 115
-11 47 -4 103 -9 125 -11 22 -3 61 -7 87 -9 119 -11 265 -26 288 -30 14 -3 61
-7 105 -10 72 -5 216 -17 335 -29 113 -12 282 -26 350 -31 138 -8 234 -16 455
-35 121 -10 227 -19 235 -19 8 0 31 -2 50 -5 19 -3 96 -10 170 -16 74 -6 146
-13 159 -15 13 -2 58 -7 100 -10 42 -3 87 -8 101 -10 14 -3 104 -12 200 -20
96 -9 195 -18 220 -20 70 -8 366 -33 455 -40 44 -3 94 -8 110 -10 37 -6 178
-19 480 -45 127 -10 300 -26 385 -34 85 -8 180 -17 210 -20 30 -3 118 -12 195
-20 77 -8 172 -18 210 -21 39 -3 86 -8 105 -10 19 -2 69 -7 110 -10 41 -3 95
-7 120 -10 25 -2 72 -7 105 -9 33 -3 110 -10 170 -15 61 -6 191 -17 290 -26
99 -8 227 -20 285 -25 58 -5 130 -12 160 -15 117 -10 287 -26 330 -30 25 -3
90 -10 145 -16 55 -5 154 -16 220 -23 84 -8 122 -9 127 -2 5 8 8 8 8 0 0 -7
77 -17 213 -28 116 -9 286 -24 377 -32 91 -8 192 -17 225 -20 86 -7 145 -14
180 -19 33 -5 106 -12 205 -20 36 -3 106 -10 155 -15 50 -5 142 -14 205 -20
157 -16 179 -18 189 -24 4 -3 16 1 27 8 15 11 16 17 6 29 -9 11 -46 16 -150
20 -75 3 -155 8 -177 11 -22 3 -114 10 -205 17 -91 6 -172 13 -180 14 -8 2
-51 6 -95 9 -44 4 -129 11 -190 16 -60 5 -166 14 -235 20 -69 6 -163 15 -210
20 -79 9 -235 23 -390 35 -36 3 -119 12 -185 19 -66 8 -158 17 -205 20 -47 4
-132 11 -190 16 -58 6 -157 14 -221 20 -64 5 -134 12 -155 14 -21 3 -78 8
-125 10 -47 3 -128 10 -180 16 -52 6 -119 13 -149 15 -30 3 -73 8 -95 10 -22
2 -78 7 -125 10 -84 5 -205 16 -390 35 -52 5 -171 17 -265 25 -93 8 -183 17
-200 20 -32 4 -117 13 -200 20 -158 13 -203 17 -335 30 -80 8 -174 17 -210 19
-36 2 -87 7 -115 10 -27 3 -102 10 -165 16 -63 6 -207 19 -320 30 -113 11
-263 24 -335 30 -139 12 -152 13 -290 29 -49 6 -124 13 -165 16 -41 4 -93 8
-115 10 -191 17 -295 27 -325 30 -19 2 -96 9 -170 15 -74 6 -178 15 -230 20
-128 12 -201 19 -290 25 -73 5 -146 10 -280 20 -84 6 -246 23 -335 35 -38 5
-106 12 -150 15 -118 8 -182 14 -255 25 -36 5 -99 12 -140 15 -41 3 -93 8
-115 10 -22 2 -71 7 -110 10 -38 3 -92 8 -120 11 -27 3 -72 7 -100 9 -98 7
-201 16 -245 21 -25 4 -63 8 -85 9 -22 2 -137 13 -255 25 -118 11 -264 25
-325 31 -60 5 -130 12 -155 15 -25 2 -90 9 -145 14 -55 4 -120 11 -145 14
-115 14 -159 15 -165 6z"/>
<path d="M5466 2138 c7 -11 74 -10 74 0 0 5 -18 8 -39 8 -22 0 -37 -4 -35 -8z"/>
<path d="M475 1943 c-15 -12 -33 -56 -28 -70 3 -9 26 -13 68 -13 68 0 95 -6
95 -22 0 -6 -14 -8 -34 -5 -21 3 -41 0 -53 -8 -28 -21 -5 -35 68 -40 93 -5
205 -15 274 -25 33 -4 67 -8 75 -9 32 -2 239 -21 325 -31 50 -5 115 -12 145
-15 30 -3 98 -9 150 -15 52 -5 131 -12 175 -15 44 -3 91 -7 105 -10 49 -8 277
-34 440 -50 91 -8 188 -18 215 -20 94 -10 330 -36 490 -55 88 -10 187 -21 220
-24 33 -3 110 -10 170 -16 61 -6 130 -13 155 -15 25 -2 81 -7 125 -10 44 -3
91 -7 105 -10 14 -2 66 -7 115 -10 50 -3 101 -8 115 -10 14 -2 57 -7 95 -10
39 -3 81 -8 95 -10 14 -2 56 -7 93 -10 37 -4 76 -8 85 -9 9 -2 53 -7 97 -11
44 -3 94 -8 110 -10 17 -2 80 -9 140 -15 61 -6 144 -15 185 -20 41 -6 145 -17
230 -25 85 -9 171 -17 190 -20 19 -2 82 -8 140 -14 58 -6 191 -20 295 -31 105
-11 240 -24 300 -30 149 -14 454 -46 720 -75 121 -13 335 -36 475 -50 140 -14
275 -27 300 -30 25 -2 117 -11 205 -20 88 -8 221 -22 295 -30 126 -14 347 -36
500 -50 36 -3 79 -8 95 -10 17 -2 55 -7 85 -10 30 -3 69 -7 85 -10 17 -2 59
-7 95 -10 36 -3 124 -12 195 -20 72 -8 159 -17 195 -20 36 -3 130 -12 210 -20
80 -8 195 -20 255 -26 61 -5 127 -12 148 -14 20 -3 65 -7 100 -10 34 -3 123
-13 197 -22 74 -8 146 -16 160 -18 14 -2 45 -6 70 -9 25 -3 74 -8 110 -10 36
-2 76 -7 90 -10 28 -7 102 -16 170 -21 103 -7 299 -27 360 -36 100 -15 173
-16 177 -2 7 21 -38 31 -153 37 -104 5 -220 18 -274 31 -14 3 -67 7 -118 10
-51 2 -97 7 -102 10 -11 6 -184 25 -280 30 -215 10 -303 16 -380 25 -47 6
-105 12 -130 15 -25 3 -67 7 -95 10 -94 11 -230 24 -295 30 -90 8 -240 23
-335 35 -102 12 -265 29 -330 35 -27 2 -72 6 -100 9 -118 13 -346 35 -415 41
-41 3 -106 10 -145 15 -38 5 -95 12 -125 15 -30 3 -73 8 -95 10 -22 3 -71 7
-110 10 -38 3 -158 15 -265 26 -107 11 -238 24 -290 29 -52 5 -111 11 -130 14
-19 3 -84 10 -145 16 -60 7 -121 13 -135 15 -14 1 -50 5 -80 9 -30 3 -80 8
-110 11 -30 3 -100 10 -155 15 -55 5 -129 12 -165 15 -36 3 -74 8 -85 10 -11
2 -53 7 -93 10 -40 3 -82 8 -93 10 -11 2 -57 7 -102 10 -45 3 -93 8 -107 10
-14 3 -52 7 -85 10 -103 9 -257 25 -340 35 -75 9 -715 79 -925 100 -52 6 -189
19 -305 30 -220 21 -359 35 -485 50 -41 5 -82 9 -90 9 -28 -2 -384 31 -505 46
-66 8 -165 19 -220 25 -55 6 -113 13 -130 15 -16 2 -77 9 -135 15 -58 6 -123
13 -145 15 -22 3 -148 16 -280 30 -132 14 -258 28 -280 30 -167 19 -235 26
-340 35 -208 19 -420 43 -548 60 -37 6 -70 9 -75 8 -4 -1 -20 1 -37 5 -16 4
-70 12 -120 17 -109 11 -168 19 -173 25 -2 2 -1 8 2 14 6 9 87 8 186 -4 25 -2
86 -7 136 -10 50 -3 102 -8 115 -10 13 -2 49 -7 79 -10 30 -3 69 -7 85 -9 17
-2 89 -9 160 -15 72 -6 146 -14 165 -16 19 -3 98 -11 175 -20 77 -8 156 -17
175 -19 19 -3 62 -7 95 -10 33 -3 125 -13 205 -21 80 -8 174 -17 210 -20 36
-3 103 -10 150 -15 108 -12 161 -18 230 -24 30 -3 120 -12 200 -20 80 -9 249
-24 375 -36 127 -11 255 -22 285 -25 30 -3 82 -7 115 -10 33 -3 94 -10 135
-15 41 -5 131 -14 200 -20 69 -6 184 -17 255 -25 72 -8 342 -35 600 -60 259
-25 569 -57 690 -70 121 -13 256 -27 300 -30 44 -4 91 -8 105 -10 20 -4 375
-40 585 -60 28 -3 95 -9 150 -15 55 -6 145 -15 200 -20 55 -5 145 -14 200 -20
55 -5 123 -12 150 -15 28 -3 93 -10 145 -15 52 -6 163 -17 245 -25 83 -8 173
-17 200 -20 179 -18 248 -25 305 -30 36 -3 81 -7 100 -9 19 -2 64 -7 100 -11
36 -3 79 -8 95 -10 17 -3 111 -12 210 -20 99 -9 196 -18 215 -20 40 -6 288
-31 435 -45 55 -5 143 -14 195 -19 52 -6 167 -17 255 -25 88 -9 205 -20 260
-26 55 -6 240 -24 410 -40 171 -17 333 -32 360 -35 28 -3 79 -8 115 -11 36 -3
98 -9 138 -15 90 -11 122 -11 122 -1 0 7 -127 24 -270 37 -25 2 -92 9 -150 15
-58 6 -154 15 -215 21 -151 13 -198 18 -285 29 -92 11 -259 28 -360 35 -41 3
-82 8 -90 10 -8 2 -89 11 -180 20 -181 16 -552 53 -615 60 -22 2 -139 14 -260
25 -450 42 -632 60 -715 70 -141 16 -469 50 -735 75 -199 19 -361 35 -400 40
-16 2 -104 11 -195 20 -91 9 -228 23 -305 31 -147 16 -263 27 -430 43 -55 5
-161 16 -235 25 -74 8 -157 17 -185 19 -81 8 -560 55 -825 83 -135 14 -270 27
-300 30 -30 3 -93 9 -140 14 -47 5 -134 14 -195 20 -60 6 -153 15 -205 21 -52
5 -115 12 -140 14 -25 2 -85 8 -135 14 -49 6 -155 15 -235 21 -159 12 -232 18
-300 25 -120 13 -238 26 -270 30 -19 2 -89 9 -155 15 -138 12 -153 14 -335 34
-74 8 -187 20 -250 26 -63 6 -203 22 -310 35 -107 13 -229 26 -270 29 -41 4
-95 9 -120 11 -25 3 -92 9 -150 15 -58 6 -121 12 -140 14 -19 3 -80 10 -135
16 -55 6 -149 17 -208 25 -59 8 -112 15 -117 15 -6 0 -10 7 -10 16 0 13 -6 15
-27 9 -31 -8 -103 -11 -145 -5 -18 3 -27 10 -25 20 2 16 -40 26 -58 13z"/>
<path d="M2393 17246 c3 -7 1 -18 -4 -23 -5 -5 -11 -36 -13 -69 -3 -32 -7 -66
-10 -74 -3 -8 -8 -33 -11 -55 -4 -22 -9 -55 -12 -74 -4 -26 -2 -32 8 -29 8 3
14 14 15 24 1 11 6 42 12 70 12 52 32 193 32 225 0 10 -5 19 -11 19 -6 0 -9
-6 -6 -14z"/>
<path d="M4518 2373 c7 -3 16 -2 19 1 4 3 -2 6 -13 5 -11 0 -14 -3 -6 -6z"/>
</g>
</svg>
