<?xml version="1.0" standalone="no"?>
<!DOCTYPE svg PUBLIC "-//W3C//DTD SVG 20010904//EN"
 "http://www.w3.org/TR/2001/REC-SVG-20010904/DTD/svg10.dtd">
<svg version="1.0" xmlns="http://www.w3.org/2000/svg"
 width="1285.000000pt" height="1762.000000pt" viewBox="0 0 1285.000000 1762.000000"
 preserveAspectRatio="xMidYMid meet">

<g transform="translate(0.000000,1762.000000) scale(0.100000,-0.100000)"
fill="#000000" stroke="none">
<path d="M11147 17414 c-1 -1 -25 -5 -54 -8 -28 -3 -73 -11 -100 -17 -26 -6
-70 -12 -98 -13 -27 -2 -86 -8 -129 -15 -44 -6 -112 -11 -150 -11 -39 1 -82
-2 -96 -5 -24 -5 -55 -8 -225 -20 -38 -3 -146 -8 -239 -11 -93 -3 -172 -6
-175 -8 -6 -4 -187 -8 -351 -8 -47 0 -119 3 -160 6 -41 4 -217 9 -392 10 -174
2 -321 7 -326 10 -25 15 -2111 -2 -2252 -19 -59 -7 -169 -14 -320 -20 -306
-11 -478 -23 -610 -42 -25 -4 -49 -6 -53 -4 -5 1 -66 -4 -135 -10 -73 -6 -407
-13 -782 -15 -360 -2 -677 -6 -705 -8 -27 -3 -187 -7 -355 -11 -339 -6 -438
-11 -490 -25 -19 -5 -321 -12 -670 -15 -349 -3 -657 -7 -685 -10 -27 -2 -102
-7 -165 -11 -63 -3 -141 -10 -173 -14 -32 -5 -95 -6 -141 -3 -73 5 -86 3 -102
-13 -14 -14 -33 -19 -69 -19 -37 0 -60 -7 -90 -27 -22 -15 -49 -28 -60 -30
-21 -3 -63 -48 -85 -91 -14 -29 -16 -108 -10 -462 1 -100 -2 -193 -9 -225 -7
-34 -12 -213 -15 -465 -3 -381 -10 -598 -21 -653 -7 -37 -14 -155 -20 -317 -3
-82 -7 -206 -10 -275 -6 -132 -11 -345 -19 -800 -3 -151 -7 -286 -9 -300 -3
-14 -8 -74 -11 -135 -4 -60 -13 -193 -21 -295 -8 -102 -17 -318 -20 -480 -5
-302 -11 -466 -20 -625 -10 -180 -15 -355 -15 -575 1 -124 1 -322 1 -440 0
-118 -2 -312 -5 -430 -4 -118 -9 -390 -11 -604 -3 -213 -7 -391 -9 -395 -2 -3
-7 -121 -10 -261 -8 -333 -19 -706 -22 -750 -1 -19 -5 -134 -8 -255 -4 -121
-9 -247 -11 -279 -2 -33 -7 -141 -10 -240 -12 -403 -16 -525 -20 -616 -8 -194
-16 -441 -21 -650 -3 -118 -7 -228 -9 -245 -6 -41 -14 -200 -20 -390 -3 -88
-7 -200 -10 -250 -3 -49 -7 -146 -10 -215 -3 -69 -14 -244 -25 -390 -11 -146
-22 -310 -24 -365 -3 -55 -8 -165 -12 -245 -3 -80 -8 -148 -11 -152 -2 -4 1
-17 7 -28 8 -14 8 -25 2 -33 -6 -7 -10 -34 -10 -62 0 -27 -2 -88 -5 -135 -3
-47 -9 -175 -12 -285 -3 -110 -8 -227 -10 -260 -5 -52 -15 -269 -31 -665 -3
-63 -7 -142 -9 -175 -9 -114 -15 -342 -19 -785 -3 -245 -8 -470 -12 -502 -4
-34 -2 -69 4 -88 9 -23 8 -36 -1 -51 -9 -15 -9 -23 1 -39 6 -11 12 -29 12 -39
0 -28 21 -71 34 -71 6 0 12 -23 13 -55 2 -64 24 -98 88 -136 22 -13 42 -24 45
-25 3 0 18 -6 33 -12 16 -7 33 -12 38 -12 5 0 9 -4 9 -10 0 -17 46 -41 89 -46
23 -3 54 -10 69 -15 15 -6 47 -13 72 -15 25 -3 63 -8 85 -11 50 -8 116 -10
527 -16 180 -3 332 -8 338 -12 5 -3 81 -8 167 -10 248 -7 483 -15 543 -20 395
-30 964 -34 1190 -9 100 11 230 22 290 25 25 0 88 -5 140 -12 90 -13 594 -19
910 -11 63 2 171 0 240 -4 183 -11 445 -10 610 1 196 13 289 12 665 -11 146
-8 328 -13 559 -14 153 -1 257 -5 269 -12 11 -5 48 -10 82 -9 35 0 98 -4 141
-9 64 -8 190 -11 439 -8 11 0 83 -3 160 -6 77 -3 203 -7 280 -10 411 -15 469
-17 474 -20 13 -8 395 -22 841 -31 162 -4 369 -11 460 -15 91 -5 224 -11 295
-14 226 -10 377 -16 465 -21 47 -3 128 -7 180 -9 52 -2 117 -7 143 -11 69 -10
482 -12 547 -2 30 4 78 10 105 12 99 10 149 44 170 115 4 14 12 28 18 32 7 4
7 11 -2 21 -8 10 -10 31 -5 66 4 31 2 56 -4 64 -15 18 -24 224 -21 472 2 116
2 383 2 595 -1 212 2 410 7 441 4 31 11 119 14 195 8 169 17 307 22 315 1 3 5
41 9 85 7 105 15 176 25 249 5 33 12 125 15 205 9 229 14 322 19 370 3 25 8
71 10 102 3 31 6 60 8 65 1 4 -2 49 -6 98 -8 89 -10 898 -2 965 3 19 7 116 10
215 4 99 8 203 11 230 2 28 7 104 10 170 8 165 14 255 25 360 5 50 12 135 15
190 3 55 8 127 10 160 2 33 7 114 10 180 6 111 19 311 45 675 6 80 15 179 20
220 10 79 26 323 35 525 3 66 8 145 10 175 2 30 7 125 10 210 7 156 21 359 29
415 2 17 7 111 10 210 3 99 8 223 11 275 3 52 7 136 10 185 2 50 7 142 11 205
3 63 7 154 9 202 4 120 29 494 40 608 8 82 16 272 20 505 4 228 8 286 26 440
5 44 9 125 9 180 0 55 5 168 10 250 5 83 12 191 15 240 3 50 8 110 10 135 3
25 7 97 10 160 3 63 7 131 10 150 3 20 8 204 11 410 4 397 9 556 17 611 3 19
9 57 12 84 4 28 9 61 11 75 2 14 9 54 14 90 6 36 13 76 16 90 3 14 11 86 19
160 8 74 17 151 21 170 8 42 13 241 19 656 2 170 5 314 6 320 1 5 -1 61 -5
124 -5 70 -4 168 3 250 6 74 12 205 13 290 1 85 7 191 14 235 21 133 26 322 8
356 -8 16 -13 41 -12 56 3 45 -11 73 -35 73 -12 0 -42 1 -67 2 -25 0 -117 0
-205 -1 -88 -2 -162 -2 -165 -1 -3 0 -36 3 -75 6 -38 2 -83 6 -100 9 -55 9
-309 6 -369 -4 -33 -6 -62 -8 -64 -6 -3 3 -11 0 -19 -7 -7 -6 -16 -8 -20 -4
-4 3 -1 126 6 272 20 400 20 475 0 499 -12 14 -19 42 -21 88 -1 38 -6 71 -10
73 -5 3 -8 12 -8 20 0 24 -69 92 -116 115 -24 11 -63 23 -86 26 -43 5 -197 10
-201 7z m227 -82 c40 -13 68 -30 88 -53 39 -44 49 -72 54 -143 1 -35 8 -62 16
-67 10 -7 13 -65 11 -276 -2 -147 -3 -310 -3 -361 -1 -91 -1 -93 -23 -86 -12
3 -26 10 -31 15 -13 11 -46 12 -46 1 0 -14 32 -40 64 -51 23 -9 26 -14 16 -26
-10 -12 -9 -16 3 -21 12 -4 14 -18 11 -67 -3 -34 -6 -134 -9 -222 -2 -88 -6
-182 -9 -210 -8 -75 -16 -146 -21 -182 -4 -31 -15 -238 -20 -373 -8 -225 -18
-364 -30 -430 -21 -109 -25 -178 -30 -445 -3 -219 -14 -361 -34 -440 -4 -17
-3 -44 2 -60 11 -32 -1 -196 -28 -375 -8 -52 -16 -113 -19 -135 -3 -22 -10
-71 -15 -110 -6 -38 -17 -160 -25 -270 -15 -182 -19 -237 -31 -360 -9 -98 -35
-403 -46 -540 -7 -82 -13 -166 -15 -185 -2 -19 -6 -141 -9 -270 -6 -227 -10
-315 -19 -410 -7 -69 -26 -408 -31 -560 -7 -200 -14 -325 -25 -415 -5 -44 -12
-143 -15 -220 -4 -128 -7 -173 -20 -305 -12 -115 -15 -176 -20 -323 -2 -87 -6
-161 -9 -165 -2 -4 -7 -50 -11 -102 -3 -52 -11 -153 -17 -225 -16 -206 -16
-210 -23 -410 -5 -168 -12 -282 -31 -490 -12 -132 -15 -161 -22 -190 -5 -16
-7 -228 -6 -470 1 -307 -3 -466 -11 -525 -8 -51 -13 -189 -13 -341 0 -140 -3
-278 -7 -306 -3 -28 -2 -93 5 -145 17 -142 26 -312 19 -349 -15 -74 -20 -166
-25 -439 -5 -311 -5 -310 -29 -485 -9 -66 -20 -151 -25 -190 -5 -38 -10 -137
-11 -220 -1 -82 -8 -206 -15 -275 -23 -221 -25 -261 -29 -480 -2 -118 -6 -228
-8 -245 -8 -46 -16 -141 -22 -240 -8 -141 -14 -234 -30 -470 -8 -121 -17 -251
-20 -290 -2 -38 -8 -115 -12 -170 -13 -177 -4 -579 13 -607 4 -6 7 -108 6
-227 -1 -205 -11 -328 -35 -451 -6 -30 -11 -66 -11 -80 -2 -46 -67 -150 -95
-150 -6 0 -11 -4 -11 -8 0 -14 -148 -58 -220 -66 -14 -1 -32 -5 -40 -8 -47
-18 -98 -25 -186 -27 -54 -1 -101 -4 -105 -7 -12 -7 -263 -16 -489 -17 -182
-1 -331 6 -349 17 -3 2 -60 9 -126 15 -66 7 -135 14 -154 17 -19 2 -122 15
-230 29 -108 13 -232 29 -276 35 -133 16 -239 28 -260 28 -11 0 -72 0 -135 0
-287 -2 -621 2 -795 8 -104 4 -248 6 -320 5 -71 -1 -287 -1 -480 -1 -788 2
-1057 2 -1195 0 -80 -2 -176 0 -215 3 -231 21 -345 23 -885 20 -135 -1 -263
-1 -285 1 -38 4 -393 5 -655 3 -136 -1 -563 11 -620 17 -19 3 -91 7 -160 11
-69 3 -144 8 -166 11 -23 3 -140 7 -260 9 -121 1 -255 8 -299 14 -81 11 -253
14 -335 6 -49 -5 -382 -7 -415 -2 -11 2 -25 5 -30 7 -9 5 -69 5 -205 0 -73 -3
-232 11 -245 20 -5 4 -25 11 -44 15 -18 4 -41 14 -51 24 -10 9 -30 24 -44 34
-30 20 -47 84 -25 97 10 7 10 11 0 24 -8 9 -20 16 -27 16 -8 0 -14 6 -14 13 0
9 -3 9 -9 -1 -14 -23 -27 221 -16 303 3 23 6 336 3 425 -1 61 13 637 17 685 3
33 7 103 9 155 9 204 17 400 21 515 2 66 6 127 8 135 3 8 9 132 12 275 10 368
12 425 20 555 8 146 12 228 19 415 4 83 8 177 11 210 5 56 7 91 21 291 10 142
12 169 14 169 4 0 8 71 14 295 3 124 9 254 11 290 3 36 7 122 10 192 5 161 15
344 21 383 2 17 6 145 9 285 3 140 7 302 10 360 7 175 15 384 21 595 3 110 7
218 8 240 2 22 7 148 11 280 3 132 8 276 11 320 6 126 15 407 17 562 1 79 5
143 9 143 4 0 14 -12 22 -27 8 -16 15 -23 16 -17 0 6 -10 24 -22 40 -22 27
-23 35 -19 164 2 74 5 158 7 185 1 28 5 185 8 350 3 165 9 419 13 565 4 146 7
544 8 885 1 341 5 649 8 685 9 102 16 274 22 535 7 340 16 507 26 526 4 9 6
18 4 21 -2 2 -5 17 -6 34 -2 44 11 307 17 327 8 27 12 84 18 287 4 102 9 244
12 315 3 72 7 240 9 375 2 135 6 290 9 345 3 55 8 163 11 240 3 77 8 154 10
170 2 17 7 77 10 135 4 57 8 107 10 110 4 7 16 355 16 485 0 55 0 171 -1 257
0 86 4 177 10 202 5 25 12 96 14 158 3 62 8 121 12 132 4 11 2 21 -7 27 -10 6
-14 36 -16 111 -2 128 11 209 42 257 19 31 33 40 86 55 35 10 71 21 79 24 28
10 45 8 78 -10 32 -17 140 -40 153 -32 4 2 46 6 95 9 141 8 177 13 211 30 18
9 42 18 55 20 13 3 35 7 50 11 15 3 56 7 90 9 84 6 98 9 108 25 6 10 38 14
117 16 181 4 872 15 969 15 50 1 124 7 165 15 81 16 181 22 519 29 124 3 261
7 305 10 44 2 93 4 108 4 20 1 26 5 21 14 -6 9 -5 9 7 0 9 -7 30 -10 49 -7 19
3 301 7 625 9 325 2 603 6 620 9 16 2 72 7 125 11 52 3 111 8 130 10 49 7 169
14 355 20 339 12 416 15 457 20 103 14 876 27 1423 25 33 0 152 2 265 5 242 6
620 6 670 0 19 -2 143 -7 275 -10 132 -3 276 -10 320 -14 83 -9 625 -10 625
-1 0 3 53 5 118 6 124 0 370 11 437 19 22 3 85 7 140 11 55 3 118 6 140 8 22
1 51 5 65 9 14 3 48 9 75 12 28 3 64 7 80 10 17 3 50 8 74 10 25 3 47 7 49 10
11 11 203 -6 256 -23z m-9928 -265 c4 -4 -4 -8 -17 -8 -13 -1 -33 -3 -44 -4
-11 -2 -56 -6 -100 -9 -60 -5 -76 -4 -62 4 36 23 205 36 223 17z m-316 -17
c22 -14 7 -21 -30 -13 -29 5 -31 7 -15 14 27 10 28 10 45 -1z m65 -10 c-3 -5
-13 -10 -21 -10 -8 0 -14 5 -14 10 0 6 9 10 21 10 11 0 17 -4 14 -10z m10865
-756 c41 -5 178 -8 304 -9 150 0 231 -4 233 -11 5 -14 -54 -18 -287 -17 -183
1 -260 5 -380 17 -180 19 -191 19 -197 -3 -7 -26 -10 -26 -48 -1 l-30 20 30 0
c17 0 36 4 43 9 15 9 221 6 332 -5z m-394 -67 c16 -12 49 -31 74 -42 42 -18
136 -73 163 -96 32 -26 134 -89 145 -89 6 0 12 -4 12 -10 0 -5 5 -10 10 -10 6
0 40 -18 76 -40 36 -22 70 -40 74 -40 4 0 13 -7 20 -15 7 -8 18 -15 26 -15 7
0 30 -11 50 -25 20 -14 45 -25 55 -25 13 0 20 -8 21 -22 2 -37 3 -42 11 -55 7
-11 2 -369 -8 -628 -15 -387 -23 -524 -30 -536 -4 -5 -2 -9 2 -9 5 0 10 -51
12 -112 2 -62 5 -135 6 -163 2 -27 -1 -72 -6 -100 -4 -27 -11 -72 -14 -100 -3
-27 -10 -86 -15 -130 -5 -44 -12 -120 -15 -170 -3 -49 -10 -121 -16 -160 -5
-38 -12 -131 -15 -205 -2 -74 -7 -142 -9 -151 -3 -8 -7 -40 -10 -70 -3 -30 -7
-70 -10 -89 -3 -19 -8 -66 -11 -105 -3 -38 -7 -81 -10 -93 -3 -18 -1 -22 8
-16 8 5 7 1 -2 -11 -13 -15 -15 -82 -16 -454 -1 -415 -10 -849 -19 -881 -2 -8
-7 -71 -10 -140 -3 -69 -10 -127 -15 -128 -6 -2 -8 -7 -5 -12 12 -19 16 -306
6 -364 -6 -34 -13 -158 -16 -276 -8 -328 -16 -456 -40 -650 -3 -19 -9 -71 -14
-115 -11 -85 -19 -235 -26 -510 -6 -219 -12 -381 -19 -475 -3 -41 -8 -166 -11
-276 -2 -111 -9 -213 -14 -227 -5 -14 -8 -27 -6 -29 7 -7 7 -102 0 -173 -4
-38 -8 -101 -10 -140 -4 -87 -33 -474 -40 -535 -3 -25 -7 -76 -9 -115 -2 -38
-7 -86 -10 -105 -11 -67 -16 -150 -21 -337 -5 -190 -11 -278 -21 -323 -6 -31
-21 -179 -28 -290 -4 -47 -8 -98 -10 -115 -23 -159 -27 -231 -28 -469 0 -151
-5 -314 -10 -363 -11 -97 -14 -152 -22 -417 -4 -169 -15 -345 -21 -356 -2 -3
-6 -52 -10 -110 -6 -102 -10 -140 -20 -225 -2 -22 -7 -112 -10 -200 -12 -348
-16 -461 -20 -490 -3 -16 -7 -77 -9 -135 -3 -58 -8 -116 -10 -130 -23 -106
-40 -1002 -28 -1495 2 -92 -1 -150 -8 -150 -1 0 -2 -13 -15 -190 -7 -107 -33
-388 -42 -465 -8 -57 -8 -77 -3 -200 4 -98 -15 -189 -38 -188 -9 0 -46 -3 -82
-6 -36 -4 -72 -8 -80 -8 -8 1 -37 -4 -65 -10 -27 -6 -126 -12 -220 -14 -93 -1
-199 -5 -234 -8 -102 -8 -261 4 -261 21 0 7 4 13 8 13 5 0 20 26 35 58 22 45
28 77 32 152 3 52 11 140 19 195 15 104 17 520 2 543 -7 12 -8 501 -1 597 2
28 6 119 9 204 4 85 9 168 11 185 3 17 9 114 15 216 11 202 18 305 25 390 5
55 10 122 20 260 3 41 8 102 11 135 4 33 6 67 5 75 -2 30 0 246 3 285 2 22 6
74 10 115 3 41 9 105 12 142 3 37 7 77 9 90 2 13 6 97 9 188 4 91 8 176 10
190 4 21 9 65 21 155 7 62 16 216 20 375 3 107 9 245 13 305 7 104 7 190 3
610 -2 217 6 636 14 760 3 50 7 259 9 465 2 206 6 386 9 400 7 30 18 220 31
505 13 283 23 466 36 630 5 66 12 154 15 195 3 41 11 113 16 160 6 47 12 140
14 208 2 67 6 141 9 165 10 77 15 150 21 312 6 158 22 417 30 485 2 19 7 96
10 170 3 74 8 194 11 265 2 72 7 141 9 155 3 14 7 61 10 105 3 44 8 94 10 110
5 41 14 217 20 410 4 88 8 175 11 192 3 18 1 41 -5 50 -5 10 -6 24 -1 33 9 17
14 78 30 325 5 94 13 186 15 205 3 19 7 55 9 80 2 25 7 75 11 112 3 37 8 93
10 125 5 74 22 297 30 388 4 39 9 77 12 85 2 8 7 42 9 74 2 33 11 81 18 107 8
26 13 49 10 51 -2 2 1 44 7 94 16 134 18 158 23 289 6 124 16 246 22 256 4 6
5 80 5 309 -1 205 5 305 24 415 8 44 16 125 20 180 3 55 7 112 9 125 3 14 7
117 10 230 5 176 28 432 43 480 4 13 7 115 12 408 l1 73 29 -15 c16 -9 42 -26
57 -39z m980 34 c-4 -6 -14 -7 -23 -4 -15 6 -14 7 3 13 22 9 29 6 20 -9z
m-761 -37 c44 -1 96 -6 115 -10 19 -4 159 -8 310 -9 278 -2 340 -7 341 -28 0
-7 4 -33 8 -58 4 -25 4 -54 1 -64 -4 -11 -3 -36 1 -58 3 -21 1 -87 -6 -145 -7
-59 -12 -212 -13 -339 0 -128 -3 -237 -6 -242 -5 -8 -6 -127 -4 -311 2 -96
-13 -881 -17 -910 -3 -29 -18 -161 -40 -375 -22 -209 -24 -221 -36 -300 -26
-168 -30 -231 -34 -510 -2 -137 -6 -329 -10 -425 -4 -96 -8 -227 -10 -290 -1
-63 -5 -153 -8 -200 -3 -47 -9 -137 -12 -200 -4 -63 -8 -131 -10 -150 -3 -19
-7 -89 -10 -155 -3 -66 -8 -156 -10 -200 -3 -44 -8 -129 -11 -190 -3 -60 -10
-137 -14 -170 -4 -33 -9 -152 -9 -265 -1 -207 -9 -424 -17 -470 -2 -14 -8
-115 -14 -225 -5 -110 -12 -218 -15 -240 -2 -22 -7 -101 -10 -175 -6 -140 -13
-259 -20 -345 -8 -82 -20 -341 -30 -607 -2 -42 -5 -84 -8 -95 -6 -21 -14 -155
-22 -363 -3 -80 -8 -176 -10 -215 -3 -38 -7 -126 -10 -195 -5 -120 -30 -458
-40 -530 -6 -50 -13 -147 -21 -285 -3 -66 -8 -122 -9 -125 -5 -9 -21 -253 -30
-450 -3 -69 -8 -145 -10 -170 -2 -25 -7 -97 -11 -160 -3 -63 -8 -123 -10 -133
-3 -17 -19 -248 -28 -417 -3 -41 -7 -120 -10 -175 -14 -224 -17 -334 -21 -890
-2 -319 -9 -659 -15 -755 -5 -96 -12 -247 -15 -335 -2 -88 -11 -218 -19 -290
-8 -71 -18 -168 -22 -215 -3 -47 -8 -88 -10 -91 -2 -4 -6 -56 -9 -115 -10
-196 -27 -449 -31 -455 -3 -5 -5 -503 -2 -609 0 -8 -3 -100 -7 -205 -9 -272
-9 -491 0 -558 9 -69 9 -100 2 -149 -4 -27 -2 -42 10 -53 14 -15 13 -15 -13
-9 -16 4 -33 7 -39 7 -5 -1 -86 -4 -179 -7 -92 -3 -187 -8 -210 -11 -22 -3
-66 -7 -96 -10 -30 -3 -68 -8 -85 -11 -16 -3 -75 -4 -130 -2 -162 4 -559 -2
-669 -11 -6 -1 -5 -6 2 -13 7 -7 12 -16 12 -20 0 -14 -376 7 -385 21 -2 4 13
8 33 9 65 5 272 43 347 65 22 7 40 10 40 7 0 -3 15 5 33 18 17 13 32 18 32 12
0 -6 3 -9 8 -7 4 3 41 -1 82 -7 113 -18 593 -11 685 11 40 9 102 13 182 13 53
0 84 4 89 12 13 20 15 54 18 303 2 132 7 260 10 285 6 42 20 170 31 285 3 28
7 69 11 93 15 114 17 146 15 272 -6 619 0 1194 14 1283 2 12 6 83 10 157 3 74
8 162 10 195 2 33 7 112 10 175 3 63 7 153 10 200 3 47 7 130 10 185 3 55 8
143 11 195 3 52 5 105 5 118 0 12 3 22 7 22 4 0 7 28 7 63 0 34 3 89 6 122 16
133 21 217 24 350 6 233 16 418 26 463 5 24 9 181 9 350 0 177 4 332 10 367 6
33 13 90 15 127 1 36 5 70 8 75 3 4 8 55 12 113 3 58 8 114 10 125 3 11 7 45
10 75 22 216 27 430 12 449 -9 12 -9 13 1 7 8 -5 12 0 13 16 1 26 6 80 13 148
3 25 9 101 15 170 6 69 13 145 16 170 6 56 16 181 22 285 2 44 7 87 10 95 3 8
6 51 8 95 3 104 14 292 22 375 3 36 7 144 9 240 1 96 5 213 8 260 3 47 8 128
10 180 3 52 9 140 12 195 4 55 6 109 6 120 -6 185 8 467 27 559 10 45 18 117
27 246 10 132 12 169 18 415 4 127 9 246 12 265 12 66 15 304 4 333 -7 21 -7
34 0 42 6 7 13 53 15 101 2 49 6 125 9 169 5 64 19 631 17 670 -6 125 -6 548
0 574 4 20 10 101 14 180 3 79 8 148 11 153 11 18 25 161 29 303 2 61 11 157
19 215 9 57 16 123 15 145 -1 22 4 78 11 125 7 47 14 96 15 110 3 40 16 132
23 165 11 53 3 413 -10 421 -5 3 -5 11 -1 17 4 6 8 29 9 52 11 275 16 374 22
453 4 50 4 92 -1 92 -4 0 -6 4 -2 10 3 5 8 130 11 277 4 193 2 279 -7 310 -14
52 -80 118 -111 110 -13 -4 -51 13 -108 48 -48 29 -91 51 -94 48 -3 -4 -6 -1
-6 5 0 7 -5 12 -12 12 -22 0 -227 134 -221 144 4 6 3 8 -1 4 -5 -4 -25 3 -45
16 -20 13 -46 26 -58 30 -13 4 -23 12 -23 18 0 6 7 7 18 2 9 -4 53 -8 97 -10z
m-10140 -15538 c22 -3 41 -5 43 -5 2 -1 0 -7 -4 -13 -6 -10 -3 -9 9 0 15 13
225 16 392 7 141 -8 256 -16 277 -21 51 -10 366 -18 788 -19 245 -1 458 -2
474 -3 52 -3 21 -12 -60 -17 -43 -2 -90 -7 -104 -10 -112 -24 -791 -24 -1200
0 -47 2 -128 7 -180 10 -52 4 -147 8 -210 10 -63 3 -158 7 -210 10 -254 13
-567 18 -582 9 -4 -3 -8 0 -8 6 0 8 -15 9 -47 4 -27 -4 -52 -7 -58 -6 -5 1
-64 4 -130 7 -132 6 -151 8 -161 18 -4 4 -24 7 -45 7 -21 0 -40 4 -43 9 -4 6
115 9 296 7 167 -1 346 1 398 4 87 5 268 -2 365 -14z m3050 -60 c11 -2 50 -5
88 -5 107 -1 77 -17 -35 -18 -140 -2 -219 -3 -243 -2 -11 0 -139 0 -285 0
-146 0 -285 3 -310 7 l-45 8 70 7 c39 4 148 7 243 6 96 0 177 2 180 6 7 8 302
0 337 -9z m-1002 -3 c-7 -2 -19 -2 -25 0 -7 3 -2 5 12 5 14 0 19 -2 13 -5z
m147 -3 c0 -5 -6 -10 -14 -10 -8 0 -18 5 -21 10 -3 6 3 10 14 10 12 0 21 -4
21 -10z m1775 -10 l40 -2 -45 -9 c-95 -20 -750 -11 -750 10 0 5 643 6 755 1z
m2095 -15 c286 -1 470 -5 515 -13 39 -6 95 -12 126 -12 31 0 101 -9 155 -21
55 -11 131 -22 169 -25 39 -3 95 -10 125 -16 46 -9 51 -12 30 -18 -23 -6 -108
-2 -280 14 -36 4 -137 8 -225 11 -88 2 -212 7 -275 10 -63 3 -241 8 -395 10
-305 4 -496 12 -535 22 -14 3 -31 5 -37 4 -7 -1 -26 5 -43 14 -17 9 -35 13
-41 10 -10 -7 -572 -6 -679 1 -30 2 -125 6 -210 9 -85 4 -159 8 -165 10 -5 2
289 1 655 -2 366 -3 865 -7 1110 -8z m1195 -105 c-3 -5 -15 -10 -26 -10 -10 0
-19 5 -19 10 0 6 12 10 26 10 14 0 23 -4 19 -10z m75 -8 c0 -5 -13 -7 -30 -4
-16 2 -30 6 -30 8 0 2 14 4 30 4 17 0 30 -4 30 -8z m2838 -29 c-20 -22 -139
-50 -158 -38 -6 4 -10 3 -10 -2 0 -7 -79 -15 -180 -17 -19 -1 -38 -5 -42 -11
-5 -6 -8 -6 -8 2 0 8 -45 11 -157 11 -87 0 -187 3 -223 6 -70 6 -358 19 -427
19 -24 0 -43 4 -43 9 0 10 269 14 515 8 61 -2 155 2 210 9 55 6 170 14 255 17
85 3 155 6 156 7 1 1 32 2 68 2 l65 0 -21 -22z m-1803 7 l20 -9 -20 0 c-11 0
-27 4 -35 9 -13 9 -13 10 0 9 8 0 24 -4 35 -9z"/>
<path d="M11216 15538 c3 -5 10 -6 15 -3 13 9 11 12 -6 12 -8 0 -12 -4 -9 -9z"/>
<path d="M10398 4063 c7 -3 16 -2 19 1 4 3 -2 6 -13 5 -11 0 -14 -3 -6 -6z"/>
<path d="M11884 15989 c-4 -7 -8 -55 -10 -108 -4 -124 -14 -300 -19 -326 -2
-11 -4 -22 -4 -25 -1 -3 -6 2 -11 10 -7 12 -12 12 -22 2 -10 -10 -10 -14 2
-22 8 -5 18 -6 24 -3 5 3 6 1 2 -5 -4 -7 -2 -12 4 -12 6 0 9 -3 7 -7 -3 -5 -8
-80 -11 -168 -4 -88 -9 -185 -11 -215 -2 -30 -7 -120 -10 -200 -4 -80 -8 -161
-10 -180 -2 -19 -7 -96 -10 -170 -3 -74 -8 -164 -10 -200 -5 -80 -23 -407 -30
-550 -3 -58 -7 -141 -10 -185 -5 -76 -10 -167 -20 -355 -2 -47 -9 -164 -14
-260 -6 -96 -13 -227 -16 -290 -3 -63 -7 -144 -10 -180 -2 -36 -7 -126 -11
-200 -3 -74 -8 -162 -9 -195 -2 -33 -6 -121 -9 -195 -4 -74 -8 -157 -11 -185
-3 -27 -7 -99 -10 -160 -3 -60 -7 -150 -10 -200 -3 -49 -8 -135 -10 -190 -3
-55 -7 -129 -10 -165 -5 -75 -11 -177 -25 -455 -11 -223 -18 -350 -25 -440 -2
-33 -7 -118 -10 -190 -7 -158 -14 -299 -20 -380 -3 -33 -7 -114 -10 -180 -3
-66 -10 -190 -15 -275 -5 -85 -11 -200 -14 -255 -9 -167 -17 -297 -21 -365 -7
-123 -24 -426 -60 -1130 -4 -63 -8 -142 -10 -175 -2 -33 -9 -152 -15 -265 -5
-113 -12 -243 -15 -290 -10 -163 -23 -411 -30 -560 -2 -52 -7 -133 -10 -180
-7 -117 -13 -226 -20 -355 -6 -122 -32 -600 -40 -740 -3 -49 -7 -139 -10 -200
-3 -60 -7 -144 -10 -185 -3 -41 -7 -124 -10 -185 -11 -230 -24 -489 -30 -585
-2 -41 -7 -122 -10 -180 -3 -58 -8 -130 -10 -160 -3 -30 -7 -134 -11 -230 -3
-96 -7 -182 -9 -190 -2 -8 -6 -100 -9 -205 -4 -104 -9 -201 -11 -215 -2 -14
-7 -81 -10 -150 -3 -69 -8 -150 -10 -180 -3 -30 -7 -120 -10 -200 -3 -80 -12
-251 -20 -380 -8 -129 -17 -296 -19 -370 -3 -74 -7 -153 -11 -175 -16 -114
-14 -145 11 -145 9 0 14 12 15 33 1 91 10 230 18 297 6 41 10 134 10 205 1 72
3 148 6 170 3 22 8 94 10 160 2 66 6 174 10 240 10 210 25 498 30 570 10 167
15 257 20 360 5 115 13 277 20 430 8 147 14 262 20 405 4 74 8 160 10 190 2
30 6 107 10 170 3 63 8 149 10 190 10 157 23 396 23 410 -1 8 2 53 5 100 4 47
9 132 12 190 3 58 8 141 10 185 5 84 37 681 55 1020 6 110 12 236 15 280 2 44
7 130 10 190 3 61 8 144 10 185 5 79 11 206 20 380 3 58 7 141 10 185 3 44 7
125 10 180 3 55 7 127 10 160 2 33 7 121 10 195 5 119 16 321 30 560 2 41 9
163 15 270 5 107 12 229 15 270 6 91 12 201 20 375 4 72 8 157 10 190 2 33 6
114 10 180 3 66 8 154 10 195 2 41 7 127 10 190 3 63 10 183 15 265 6 83 12
202 15 265 3 63 9 185 14 270 5 85 12 218 16 295 3 77 8 160 10 185 3 25 7 99
10 165 3 66 9 197 15 290 5 94 12 217 15 275 3 58 7 132 10 165 2 33 7 128 10
210 3 83 7 166 10 185 2 19 9 134 14 255 6 121 13 254 16 295 2 41 7 127 10
190 3 63 8 140 10 170 5 64 13 199 20 355 3 61 7 137 9 170 2 33 7 123 10 200
4 77 9 160 11 185 3 25 7 83 10 130 2 47 7 137 10 200 3 63 8 144 10 180 2 36
6 112 10 170 3 58 8 128 10 155 8 85 14 167 20 255 11 188 17 275 22 282 5 10
-15 48 -27 48 -5 0 -12 -5 -16 -11z"/>
<path d="M12030 15813 c-3 -51 -10 -198 -15 -318 -6 -159 -15 -367 -20 -475
-2 -36 -6 -119 -9 -185 -3 -66 -8 -172 -11 -235 -3 -63 -8 -155 -10 -205 -14
-316 -17 -395 -20 -435 -2 -25 -6 -112 -9 -195 -3 -82 -8 -181 -11 -220 -10
-158 -20 -348 -30 -605 -3 -85 -8 -193 -10 -240 -3 -47 -10 -182 -15 -300 -6
-118 -12 -258 -15 -310 -3 -52 -10 -189 -15 -305 -5 -115 -12 -257 -15 -315
-8 -162 -35 -712 -40 -835 -3 -60 -7 -139 -10 -175 -2 -36 -7 -132 -10 -215
-3 -82 -8 -181 -10 -220 -3 -38 -7 -142 -10 -230 -3 -88 -8 -176 -10 -195 -2
-19 -6 -100 -10 -180 -3 -80 -10 -219 -15 -310 -5 -91 -12 -232 -15 -315 -3
-82 -8 -184 -10 -225 -3 -41 -9 -178 -15 -305 -5 -126 -12 -264 -15 -305 -3
-41 -7 -138 -10 -215 -3 -77 -7 -165 -10 -195 -2 -30 -7 -122 -10 -205 -3 -82
-8 -179 -10 -215 -2 -36 -7 -130 -10 -210 -3 -80 -10 -224 -15 -320 -5 -96
-12 -238 -15 -315 -3 -77 -7 -176 -10 -220 -3 -44 -7 -141 -10 -215 -3 -74 -8
-166 -10 -205 -2 -38 -7 -126 -10 -195 -6 -133 -9 -184 -25 -485 -6 -104 -17
-354 -25 -555 -8 -201 -17 -394 -20 -430 -2 -36 -7 -121 -10 -190 -3 -69 -9
-217 -15 -330 -5 -113 -12 -266 -15 -340 -3 -74 -7 -171 -10 -215 -2 -44 -7
-159 -10 -255 -3 -96 -8 -193 -10 -215 -2 -22 -7 -105 -10 -185 -3 -80 -8
-163 -10 -185 -3 -22 -7 -114 -10 -205 -8 -253 -16 -412 -21 -440 -2 -14 -6
-56 -9 -95 -2 -38 -7 -91 -11 -117 -6 -46 -5 -48 19 -48 26 0 44 25 25 36 -7
4 -6 9 2 14 9 6 12 37 9 111 -4 144 -2 269 5 369 9 128 15 249 21 415 3 83 10
215 15 295 6 80 12 215 15 300 8 219 13 330 19 445 3 55 8 163 11 240 3 77 8
174 10 215 3 41 7 136 10 210 3 74 7 169 10 210 5 74 9 154 20 405 4 72 8 159
10 195 4 83 14 301 21 455 5 119 8 182 19 385 6 124 12 249 20 420 3 69 8 154
10 190 2 36 7 137 10 225 3 88 7 187 10 220 3 33 7 123 11 200 3 77 7 147 9
155 2 8 6 107 10 219 4 111 9 226 10 255 2 28 6 114 9 191 3 77 8 178 11 225
3 47 7 146 10 220 3 74 7 171 10 215 6 108 13 247 20 380 3 61 8 146 10 190 2
44 7 139 10 210 3 72 8 168 10 215 3 47 7 137 10 200 3 63 7 153 10 200 2 47
7 155 11 240 3 85 7 177 9 204 2 27 7 119 10 205 3 86 8 174 10 196 5 49 14
235 20 415 3 74 7 164 10 200 2 36 7 130 10 210 3 80 8 174 10 210 3 36 7 117
10 180 3 63 7 160 10 215 3 55 9 201 15 325 5 124 12 268 15 320 7 118 23 464
30 625 3 66 7 156 10 200 3 44 7 143 10 220 3 77 8 169 10 205 6 108 14 268
20 395 17 377 24 518 30 625 11 174 18 348 19 452 0 60 5 108 10 108 5 0 6 20
4 44 -3 24 -2 50 3 58 4 8 9 49 10 92 2 70 15 165 18 126 1 -9 15 -31 32 -50
l32 -34 -7 -216 c-3 -118 -8 -244 -11 -280 -2 -36 -7 -132 -10 -215 -3 -82 -7
-175 -9 -205 -3 -30 -7 -145 -11 -255 -3 -110 -7 -243 -10 -295 -8 -165 -15
-320 -20 -480 -3 -85 -7 -191 -10 -235 -6 -103 -13 -273 -20 -450 -3 -77 -8
-187 -10 -245 -3 -58 -7 -168 -10 -245 -3 -77 -7 -192 -10 -255 -2 -63 -7
-182 -10 -265 -3 -82 -8 -195 -10 -250 -3 -55 -9 -212 -15 -350 -5 -137 -12
-304 -15 -370 -3 -66 -8 -174 -10 -240 -3 -66 -10 -217 -15 -335 -13 -267 -18
-399 -25 -610 -3 -91 -8 -199 -10 -240 -3 -41 -7 -142 -10 -225 -3 -82 -7
-175 -10 -205 -3 -30 -7 -147 -11 -260 -3 -113 -7 -223 -9 -245 -1 -22 -6
-132 -9 -245 -4 -113 -9 -221 -11 -240 -2 -19 -7 -136 -11 -260 -3 -124 -7
-227 -9 -230 -2 -3 -6 -102 -9 -220 -4 -118 -9 -231 -11 -250 -2 -19 -7 -116
-10 -215 -3 -99 -8 -218 -10 -265 -2 -47 -7 -155 -10 -240 -3 -85 -8 -200 -10
-255 -2 -55 -7 -163 -10 -240 -3 -77 -8 -185 -10 -240 -3 -55 -7 -154 -10
-220 -9 -216 -25 -608 -30 -715 -2 -58 -7 -177 -10 -265 -3 -88 -8 -191 -10
-230 -2 -38 -7 -144 -10 -235 -3 -91 -8 -196 -10 -235 -2 -38 -7 -144 -10
-235 -3 -91 -12 -336 -20 -545 -8 -209 -17 -445 -20 -525 -6 -160 -13 -344
-20 -490 -2 -52 -7 -165 -10 -250 -3 -85 -8 -193 -10 -240 -3 -47 -7 -143 -10
-215 -6 -119 -10 -173 -15 -200 -5 -23 12 -53 27 -48 23 9 32 45 16 61 -7 7
-11 17 -9 21 3 4 7 88 11 187 3 98 7 211 10 249 2 39 7 147 10 240 8 229 13
361 19 480 5 90 14 330 21 540 1 44 5 143 9 220 4 77 13 307 21 510 22 537 24
605 30 765 3 80 7 188 10 240 3 52 8 165 11 250 4 85 8 180 9 210 1 30 6 132
9 225 4 94 8 213 11 265 7 152 14 323 20 495 3 88 8 194 10 235 2 41 7 138 10
215 3 77 7 185 10 240 2 55 7 172 10 260 3 88 8 205 10 260 3 55 8 154 10 220
3 66 7 174 10 240 3 66 7 176 10 245 2 69 7 188 10 265 3 77 8 192 10 255 2
63 7 144 10 180 2 36 7 148 10 250 3 102 10 273 15 380 5 107 12 258 15 335 3
77 7 203 10 280 3 77 10 228 15 335 5 107 12 276 15 375 3 99 8 212 10 250 2
39 7 133 10 210 3 77 8 187 10 245 24 561 23 535 40 995 10 274 15 401 20 485
3 47 7 146 10 220 14 373 26 665 29 725 2 28 6 113 10 190 4 77 9 183 11 235
3 52 7 181 10 285 3 105 7 206 10 225 2 19 7 125 11 235 3 110 7 211 9 225 1
14 6 86 10 160 4 74 9 153 11 175 2 22 6 90 9 150 3 61 7 115 10 122 2 6 -5
19 -15 28 -24 21 -30 11 -33 -55 -1 -24 -6 -45 -12 -47 -12 -3 -37 46 -29 58
3 5 0 9 -6 9 -6 0 -8 5 -5 10 3 6 1 10 -4 10 -6 0 -11 15 -11 33 0 18 -5 38
-12 45 -13 13 -38 16 -38 5z"/>
<path d="M11709 15768 c0 -7 -2 -20 -3 -28 -3 -14 -11 -161 -21 -390 -5 -110
-14 -268 -20 -355 -5 -85 -14 -256 -20 -420 -3 -77 -8 -168 -11 -202 -2 -35
-7 -118 -9 -185 -6 -162 -14 -318 -20 -398 -4 -64 -10 -183 -20 -405 -3 -60
-7 -132 -10 -160 -2 -27 -7 -129 -11 -225 -3 -96 -7 -187 -9 -202 -2 -14 -6
-98 -10 -185 -3 -87 -8 -176 -10 -198 -2 -22 -7 -101 -10 -175 -3 -74 -8 -191
-10 -260 -3 -69 -8 -150 -10 -180 -2 -30 -7 -122 -10 -205 -3 -82 -8 -184 -10
-225 -2 -41 -7 -136 -10 -210 -3 -74 -8 -166 -10 -205 -6 -90 -13 -208 -20
-365 -8 -183 -14 -304 -25 -495 -5 -93 -12 -228 -15 -300 -3 -71 -10 -211 -15
-310 -5 -99 -12 -236 -15 -305 -3 -69 -8 -165 -10 -215 -9 -187 -15 -303 -20
-410 -5 -123 -13 -267 -20 -365 -3 -36 -7 -128 -10 -205 -6 -143 -12 -282 -20
-415 -2 -41 -7 -142 -10 -225 -3 -82 -8 -175 -10 -205 -4 -53 -8 -115 -20
-370 -3 -63 -8 -144 -10 -180 -2 -36 -7 -132 -10 -215 -3 -82 -8 -184 -10
-225 -3 -41 -7 -127 -10 -190 -3 -63 -7 -149 -10 -190 -2 -41 -7 -131 -10
-200 -3 -69 -8 -154 -10 -190 -3 -36 -7 -128 -10 -205 -3 -77 -7 -178 -10
-225 -3 -47 -7 -164 -11 -260 -3 -96 -7 -177 -9 -180 -2 -3 -6 -81 -9 -175 -4
-93 -9 -206 -11 -250 -2 -44 -7 -129 -9 -190 -7 -133 -17 -340 -21 -426 -2
-35 -9 -185 -14 -334 -6 -148 -13 -290 -16 -315 -2 -25 -7 -99 -10 -165 -5
-113 -10 -202 -20 -355 -2 -36 -7 -132 -10 -215 -5 -142 -19 -410 -30 -575 -3
-41 -8 -130 -10 -197 -5 -118 -5 -123 15 -123 14 0 20 7 20 23 1 50 11 307 15
372 12 201 15 266 21 440 3 105 7 208 9 230 7 129 16 295 21 400 2 66 7 143 9
170 4 49 8 137 21 435 9 221 12 276 18 385 3 55 8 159 11 230 3 72 7 180 10
240 3 61 7 175 10 255 3 80 7 174 10 210 2 36 7 119 10 185 3 66 8 158 10 205
6 92 33 626 40 780 14 310 17 390 20 435 2 28 6 111 9 185 4 74 9 173 11 220
2 47 7 132 9 190 6 124 16 305 21 410 2 41 6 138 10 215 3 77 10 203 15 280 5
77 12 214 16 305 4 91 8 183 9 205 1 22 5 103 9 180 3 77 8 172 11 210 3 39 7
135 10 214 3 79 7 172 10 205 12 183 33 602 45 901 6 143 13 280 15 305 2 25
6 113 10 195 3 83 8 168 10 190 3 22 7 112 10 200 3 88 8 189 10 225 2 36 7
117 10 180 3 63 8 153 10 200 3 47 7 150 10 230 4 80 8 165 10 189 2 24 7 116
10 205 3 89 8 184 10 211 2 28 7 118 10 200 3 83 12 267 20 410 8 143 17 328
21 410 4 83 8 168 9 190 2 22 6 112 10 200 3 88 8 185 11 215 2 30 6 102 9
160 4 106 12 264 20 440 3 52 7 147 10 210 3 63 7 140 10 170 2 30 7 118 10
195 10 238 15 348 20 400 12 117 15 334 5 340 -5 3 -10 0 -11 -7z"/>
<path d="M11490 1619 c0 -5 5 -7 10 -4 6 3 10 8 10 11 0 2 -4 4 -10 4 -5 0
-10 -5 -10 -11z"/>
</g>
</svg>
